<?xml version="1.0" encoding="utf-8"?>
<!-- Generator: Adobe Illustrator 15.0.0, SVG Export Plug-In . SVG Version: 6.00 Build 0)  -->
<!DOCTYPE svg PUBLIC "-//W3C//DTD SVG 1.1//EN" "http://www.w3.org/Graphics/SVG/1.1/DTD/svg11.dtd">
<svg version="1.1" id="Layer_1" xmlns="http://www.w3.org/2000/svg" xmlns:xlink="http://www.w3.org/1999/xlink" x="0px" y="0px"
	 width="965.716px" height="339.606px" viewBox="0 0 965.716 339.606" enable-background="new 0 0 965.716 339.606"
	 xml:space="preserve">
<g>
	<polygon points="422.824,172.838 449.135,172.838 449.135,146.473 456.398,146.473 456.398,172.838 482.716,172.838 
		482.716,180.058 456.398,180.058 456.398,206.207 449.135,206.207 449.135,180.058 422.824,180.058 	"/>
	<g>
		<path d="M67.644,291.748c0,21.885,7.562,35.41,35.416,43.764v0.791c-53.321,1.588-67.242-15.123-67.242-58.487v-65.653
			c0-13.518,0.789-24.664-12.741-34.213c-6.355-4.771-14.722-7.958-23.077-9.955v-0.787c12.738-1.192,20.296-5.563,26.669-11.536
			c9.543-9.944,9.148-17.906,9.148-29.846V51.821c0-15.112,1.591-31.424,16.714-41.368c15.511-10.35,31.029-10.35,50.528-10.35v0.8
			c-28.654,7.96-35.416,21.085-35.416,43.755v74.407c0,25.459-6.375,41.783-39.79,48.142v0.787
			c34.615,7.573,39.79,26.65,39.79,54.928V291.748z"/>
		<path d="M898.082,44.666c0-21.891-7.555-35.415-35.407-43.774V0.103c53.31-1.591,67.233,15.12,67.233,58.48v65.657
			c0,13.524-0.796,24.671,12.734,34.209c6.362,4.772,14.718,7.967,23.073,9.949v0.807c-12.734,1.185-20.293,5.562-26.663,11.533
			c-9.538,9.945-9.145,17.899-9.145,29.836v74.004c0,15.123-1.585,31.424-16.706,41.379c-15.514,10.346-31.028,10.346-50.527,10.346
			v-0.791c28.642-7.96,35.407-21.088,35.407-43.764v-74.411c0-25.455,6.364-41.776,39.786-48.132v-0.807
			c-34.609-7.561-39.786-26.651-39.786-54.904V44.666z"/>
		<polygon points="165.099,51.245 165.099,54.848 144.108,54.848 144.108,107.222 139.725,107.222 139.725,54.848 118.733,54.848 
			118.733,51.245 		"/>
		<path d="M174.472,51.245v25.521h0.162c3.075-4.754,7.113-7.133,12.138-7.133c4.162,0,7.488,1.337,9.983,4.003
			c2.484,2.682,3.721,6.349,3.721,11.021v22.564h-3.93V86.229c0-8.502-3.334-12.745-10.01-12.745c-4.789,0-8.808,2.63-12.064,7.891
			v25.848h-3.919V51.245H174.472z"/>
		<path d="M242.178,87.417h-29.049c-0.073,0.648-0.112,1.29-0.112,1.937c0,4.107,1.466,7.599,4.398,10.452
			c2.951,2.858,6.413,4.277,10.424,4.277c4.672,0,9.245-1.814,13.696-5.48v4.448c-4.208,3.257-8.935,4.889-14.172,4.889
			c-5.311,0-9.713-1.845-13.19-5.527c-3.47-3.688-5.211-8.375-5.211-14.064c0-5.396,1.609-9.864,4.816-13.407
			c3.203-3.547,7.229-5.311,12.095-5.311c4.572,0,8.433,1.599,11.585,4.798C240.607,77.613,242.178,81.948,242.178,87.417
			 M213.655,84.261h23.877c-1.38-7.196-5.272-10.777-11.658-10.777c-3.017,0-5.627,0.944-7.829,2.823
			C215.837,78.187,214.382,80.833,213.655,84.261"/>
		<polygon points="324.637,51.245 324.637,107.222 321.075,107.222 278.53,58.297 278.53,107.222 274.19,107.222 274.19,51.245 
			277.857,51.245 320.313,100.169 320.313,51.245 		"/>
		<path d="M367.558,87.417h-29.062c-0.073,0.648-0.112,1.29-0.112,1.937c0,4.107,1.465,7.599,4.398,10.452
			c2.943,2.858,6.42,4.277,10.428,4.277c4.66,0,9.232-1.814,13.704-5.48v4.448c-4.227,3.257-8.958,4.889-14.183,4.889
			c-5.322,0-9.712-1.845-13.191-5.527c-3.469-3.688-5.209-8.375-5.209-14.064c0-5.396,1.598-9.864,4.816-13.407
			c3.194-3.547,7.24-5.311,12.096-5.311c4.564,0,8.428,1.599,11.576,4.798C365.975,77.613,367.558,81.948,367.558,87.417
			 M339.022,84.261h23.877c-1.388-7.196-5.272-10.777-11.657-10.777c-3.014,0-5.616,0.944-7.83,2.823
			C341.204,78.187,339.75,80.833,339.022,84.261"/>
		<polygon points="428.486,70.358 412.555,107.939 410.67,107.939 399.333,78.009 387.903,107.939 386.135,107.939 370.35,70.358 
			374.226,70.358 386.805,100.405 398.366,70.358 400.508,70.358 411.723,100.405 424.584,70.358 		"/>
		<polygon points="486.782,51.245 465.032,77.16 465.032,107.222 460.699,107.222 460.699,77.16 438.946,51.245 444.179,51.245 
			462.888,73.413 481.501,51.245 		"/>
		<path d="M497.522,69.634c5.342,0,9.787,1.829,13.368,5.488c3.552,3.659,5.343,8.229,5.343,13.701
			c0,5.452-1.791,9.999-5.343,13.646c-3.581,3.648-8.026,5.473-13.368,5.473c-5.341,0-9.805-1.824-13.402-5.473
			c-3.59-3.647-5.388-8.194-5.388-13.646c0-5.473,1.798-10.042,5.388-13.701C487.718,71.463,492.182,69.634,497.522,69.634
			 M497.522,104.088c4.139,0,7.593-1.447,10.376-4.341c2.78-2.908,4.165-6.537,4.165-10.924c0-4.354-1.393-7.99-4.193-10.938
			c-2.781-2.931-6.243-4.401-10.348-4.401c-4.168,0-7.639,1.454-10.446,4.367c-2.782,2.904-4.179,6.572-4.179,10.973
			c0,4.387,1.396,8.016,4.179,10.924C489.884,102.641,493.354,104.088,497.522,104.088"/>
		<path d="M550.364,74.001l-2.273,3.69c-3.08-2.815-5.548-4.217-7.419-4.217c-3.683,0-7.628,3.528-11.818,10.577v23.17h-3.917
			V70.358h3.917v9.7h0.159c4.413-6.948,8.703-10.425,12.896-10.425C544.314,69.634,547.144,71.089,550.364,74.001"/>
		<path d="M559.142,107.211h-3.919V51.242h3.919V107.211z M585.224,70.358l-20.16,17.492l23.281,19.36h-5.381l-23.262-19.348
			l20.362-17.505H585.224z"/>
		<path d="M544.837,228.622l25.874,56.38h-4.529l-8.866-19.361h-27.366l-8.824,19.361h-4.544l25.881-56.38H544.837z
			 M555.671,262.041l-12.062-26.355l-12.026,26.355H555.671z"/>
		<path d="M608.018,249.224v4.371c-3.535-1.552-6.729-2.319-9.573-2.319c-4.116,0-7.466,1.423-10.045,4.277
			c-2.58,2.853-3.864,6.571-3.864,11.13c0,4.652,1.284,8.357,3.864,11.087c2.579,2.742,6.03,4.1,10.354,4.1
			c3.159,0,6.463-0.702,9.934-2.111v4.076c-3.679,1.264-7.087,1.886-10.243,1.886c-5.399,0-9.759-1.707-13.082-5.125
			c-3.326-3.424-4.985-7.914-4.985-13.469c0-5.79,1.671-10.521,5.028-14.189c3.342-3.673,7.631-5.509,12.834-5.509
			C601.098,247.428,604.354,248.017,608.018,249.224"/>
		<path d="M651.614,278.594v3.275c-3.404,2.573-5.884,3.851-7.453,3.851c-0.917,0-1.544-0.308-1.892-0.894
			c-0.349-0.605-0.589-1.833-0.751-3.672c-3.876,3.03-7.72,4.565-11.55,4.565c-2.773,0-5.125-0.91-7.044-2.727
			c-1.925-1.812-2.881-4.016-2.881-6.6c0-4.017,1.844-7.173,5.562-9.485c3.722-2.313,9.017-3.637,15.913-3.983v-4.686
			c0-5.032-2.726-7.526-8.18-7.526c-3.482,0-7.226,1.552-11.264,4.685v-4.05c4.165-2.627,8.142-3.92,11.905-3.92
			c3.342,0,6.088,0.813,8.262,2.451c2.158,1.642,3.242,4.03,3.242,7.16v22.95c0,1.271,0.282,1.88,0.882,1.88
			C647.108,281.869,648.853,280.78,651.614,278.594 M641.519,277.713V266.2c-5.052-0.173-9.243,0.708-12.578,2.673
			c-3.315,1.965-4.975,4.473-4.975,7.521c0,1.707,0.688,3.156,2.072,4.324c1.396,1.171,3.142,1.76,5.215,1.76
			C634.622,282.478,638.045,280.886,641.519,277.713"/>
		<path d="M694.883,229.029v55.973h-3.977v-2.885c-3.358,2.405-6.992,3.603-10.896,3.603c-5.221,0-9.64-1.84-13.229-5.545
			c-3.607-3.692-5.396-8.245-5.396-13.645c0-5.469,1.78-10.034,5.314-13.66c3.535-3.636,7.969-5.442,13.311-5.442
			c3.396,0,7.032,0.973,10.896,2.964v-21.362H694.883z M690.906,278.514v-23.798c-3.516-2.306-7.094-3.44-10.729-3.44
			c-4.252,0-7.74,1.402-10.503,4.212c-2.746,2.825-4.115,6.425-4.115,10.795c0,4.47,1.45,8.182,4.398,11.146
			c2.939,2.965,6.61,4.44,11.016,4.44C684.389,281.869,687.712,280.761,690.906,278.514"/>
		<path d="M742.281,265.207h-29.057c-0.081,0.642-0.108,1.287-0.108,1.919c0,4.116,1.459,7.603,4.406,10.458
			c2.935,2.862,6.417,4.285,10.42,4.285c4.662,0,9.232-1.823,13.697-5.476v4.439c-4.225,3.259-8.942,4.887-14.177,4.887
			c-5.315,0-9.72-1.84-13.189-5.521c-3.481-3.689-5.207-8.377-5.207-14.071c0-5.39,1.598-9.859,4.801-13.402
			c3.206-3.537,7.245-5.297,12.11-5.297c4.572,0,8.429,1.588,11.578,4.773C740.703,255.397,742.281,259.729,742.281,265.207
			 M713.748,262.041h23.889c-1.396-7.176-5.289-10.775-11.659-10.775c-3.029,0-5.628,0.936-7.833,2.815
			C715.933,255.963,714.474,258.627,713.748,262.041"/>
		<path d="M759.869,248.143v6.501h0.159c2.989-4.811,6.904-7.216,11.74-7.216c5.639,0,9.603,2.938,11.897,8.85
			c3.462-5.912,7.731-8.85,12.799-8.85c3.817,0,6.904,1.356,9.245,4.086c2.341,2.723,3.516,6.332,3.516,10.838v22.65h-3.93v-20.913
			c0-3.996-0.835-7.133-2.514-9.402c-1.683-2.283-4.043-3.411-7.079-3.411c-2.259,0-4.243,0.668-5.913,2.034
			c-1.68,1.36-3.416,3.554-5.196,6.574v25.118h-3.976V264c0-4.076-0.871-7.226-2.615-9.439c-1.752-2.197-4.096-3.285-7.032-3.285
			c-4.277,0-7.979,2.62-11.102,7.881v25.846h-3.937v-36.859H759.869z"/>
		<polygon points="853.704,248.143 826.118,303.88 822.095,303.88 834.975,277.839 819.441,248.143 823.572,248.143 836.94,273.875 
			849.675,248.143 		"/>
		<path d="M173.111,135.056c0.394-1.069,0.951-1.815,1.651-2.254c0.716-0.426,1.733-0.645,3.075-0.645
			c1.47,0,2.484,0.36,3.087,1.065c0.581,0.703,0.87,2.174,0.87,4.377c0,3.861,0.039,7.45,0.124,10.785
			c0.085,3.334,0.112,4.771,0.112,4.34c0,1.864-0.309,3.104-0.929,3.751c-0.642,0.662-1.756,0.979-3.376,0.979
			c-2.604,0-4.302-1.84-5.083-5.554c-0.286-1.104-0.491-1.947-0.654-2.543c-0.75-2.954-2.545-5.359-5.384-7.243
			c-2.832-1.864-6.159-2.801-9.984-2.801c-6.985,0-12.567,2.549-16.791,7.662c-4.221,5.096-6.325,11.943-6.325,20.539
			c0,8.579,2.143,15.435,6.41,20.529c4.278,5.118,9.929,7.666,16.942,7.666c2.286,0,4.603-0.321,6.978-0.97
			c2.367-0.658,4.692-1.638,6.97-2.925c1.075-0.556,2.522-1.495,4.387-2.812c1.837-1.319,3.164-1.991,3.957-1.991
			c1.21,0,2.243,0.4,3.102,1.214c0.844,0.82,1.265,1.807,1.265,2.987c0,1.188-0.456,2.31-1.389,3.401
			c-0.924,1.082-2.654,2.405-5.16,3.983c-3.318,2.19-6.645,3.775-10.003,4.798c-3.349,1.019-6.876,1.548-10.59,1.548
			c-9.724,0-17.761-3.444-24.109-10.329c-6.355-6.878-9.511-15.682-9.511-26.401c0-10.601,3.203-19.407,9.635-26.42
			c6.421-7.009,14.494-10.518,24.233-10.518c2.595,0,5.25,0.306,7.941,0.941C167.262,132.846,170.121,133.795,173.111,135.056"/>
		<path d="M250.672,175.968c0,8.44-2.877,15.328-8.637,20.688c-5.76,5.363-13.221,8.037-22.407,8.037
			c-9.148,0-16.595-2.674-22.346-8.037c-5.752-5.359-8.629-12.247-8.629-20.688c0-8.434,2.877-15.33,8.629-20.668
			c5.751-5.337,13.198-8.007,22.346-8.007c9.14,0,16.601,2.677,22.373,8.038C247.783,160.699,250.672,167.569,250.672,175.968
			 M219.628,196.418c6.073,0,11.043-1.926,14.926-5.768c3.884-3.837,5.83-8.728,5.83-14.683c0-5.962-1.954-10.875-5.856-14.752
			c-3.903-3.885-8.861-5.815-14.899-5.815c-6.026,0-10.989,1.931-14.874,5.815c-3.883,3.877-5.821,8.79-5.821,14.752
			c0,5.981,1.931,10.905,5.795,14.716C208.603,194.499,213.554,196.418,219.628,196.418"/>
		<path d="M310.082,203.217c-0.832,0-1.408-0.209-1.748-0.632c-0.341-0.404-0.5-1.201-0.5-2.376v-4.863
			c-2.359,2.958-5.322,5.257-8.865,6.898c-3.551,1.631-7.389,2.448-11.527,2.448c-7.454,0-13.697-2.641-18.713-7.957
			c-5.021-5.294-7.543-11.888-7.543-19.765c0-8.159,2.681-14.948,8.038-20.371c5.373-5.407,12.057-8.122,20.04-8.122
			c4.065,0,7.713,0.727,10.936,2.15c3.245,1.439,6.018,3.562,8.35,6.351v-22.631h-3.14c-3.435,0-5.64-0.314-6.646-0.925
			c-1.005-0.61-1.516-1.719-1.516-3.334c0-1.421,0.406-2.484,1.21-3.188c0.812-0.715,1.988-1.062,3.516-1.062h12.119
			c1.184,0,2.042,0.188,2.576,0.582c0.539,0.396,0.797,1.006,0.797,1.835v66.624h2.665c1.926,0,3.327,0.331,4.201,0.977
			c0.859,0.648,1.288,1.684,1.288,3.103c0,1.334-0.375,2.386-1.11,3.137c-0.75,0.758-1.768,1.122-3.018,1.122H310.082z
			 M271.359,176.666c0,5.445,1.759,9.902,5.264,13.363c3.508,3.48,7.953,5.204,13.36,5.204c5.435,0,9.91-1.81,13.414-5.406
			c3.504-3.6,5.26-8.191,5.26-13.74c0-5.482-1.744-9.995-5.221-13.538c-3.489-3.55-7.976-5.323-13.453-5.323
			c-5.554,0-10.05,1.788-13.484,5.376C273.08,166.185,271.359,170.876,271.359,176.666"/>
		<path d="M341.235,178.509c0.31,5.678,2.235,10.064,5.759,13.151c3.528,3.093,8.344,4.642,14.451,4.642
			c4.615,0,9.643-1.237,15.082-3.689c5.434-2.468,8.718-3.698,9.868-3.698c1.176,0,2.162,0.37,2.959,1.118
			c0.781,0.754,1.174,1.681,1.174,2.789c0,1.128-0.414,2.187-1.229,3.116c-0.835,0.956-2.15,1.88-3.965,2.793
			c-3.937,1.925-8.01,3.411-12.215,4.427c-4.188,1.028-8.355,1.531-12.498,1.531c-8.981,0-16.18-2.584-21.58-7.771
			c-5.404-5.185-8.092-12.056-8.092-20.602c0-8.703,2.858-15.755,8.575-21.161c5.706-5.393,13.148-8.093,22.334-8.093
			c8.309,0,15.214,2.521,20.694,7.57c5.48,5.035,8.212,11.151,8.212,18.318c0,2.2-0.46,3.686-1.385,4.438
			c-0.925,0.744-3.434,1.121-7.535,1.121h-0.896H341.235z M341.525,170.761h38.488c-0.592-4.691-2.558-8.46-5.884-11.322
			c-3.327-2.854-7.419-4.284-12.27-4.284c-5.237,0-9.643,1.373-13.235,4.139C345.034,162.058,342.673,165.875,341.525,170.761"/>
		<path d="M526.891,203.213h-9.347h-2.66c-1.459,0-2.554-0.36-3.277-1.055c-0.728-0.715-1.095-1.787-1.095-3.203
			c0-1.532,0.422-2.584,1.269-3.186c0.853-0.6,2.448-0.884,4.82-0.884h1.064v-53.279h-0.945c-2.37,0-3.994-0.308-4.885-0.939
			c-0.882-0.629-1.323-1.728-1.323-3.306c0-1.456,0.367-2.531,1.095-3.216c0.724-0.7,1.861-1.041,3.396-1.041h2.541h9.347h13.054
			c9.812,0,17.639,3.165,23.475,9.494c5.842,6.312,8.758,14.86,8.758,25.614c0,5.261-0.844,10.114-2.522,14.604
			c-1.671,4.496-4.116,8.434-7.311,11.828c-2.942,3.063-6.532,5.316-10.775,6.709c-4.231,1.399-9.686,2.104-16.351,2.104
			c-0.789,0-2.112-0.046-3.985-0.126C529.351,203.25,527.911,203.213,526.891,203.213 M526.891,194.886
			c1.261,0.122,2.506,0.202,3.747,0.258c1.245,0.066,2.459,0.1,3.636,0.1c9.693,0,16.799-2.177,21.316-6.508
			c4.515-4.338,6.754-11.18,6.754-20.522c0-9.37-2.255-16.202-6.784-20.479c-4.534-4.277-11.777-6.405-21.755-6.405
			c-1.855,0-3.269,0.02-4.223,0.055c-0.975,0.038-1.873,0.107-2.691,0.224V194.886z"/>
		<path d="M592.302,178.509c0.321,5.678,2.24,10.064,5.775,13.151c3.523,3.093,8.336,4.642,14.458,4.642
			c4.601,0,9.628-1.237,15.063-3.689c5.445-2.468,8.721-3.698,9.879-3.698c1.183,0,2.165,0.37,2.946,1.118
			c0.789,0.754,1.196,1.681,1.196,2.789c0,1.128-0.426,2.187-1.258,3.116c-0.828,0.956-2.132,1.88-3.948,2.793
			c-3.95,1.925-8.009,3.411-12.212,4.427c-4.193,1.028-8.363,1.531-12.503,1.531c-8.995,0-16.187-2.584-21.574-7.771
			c-5.407-5.185-8.104-12.056-8.104-20.602c0-8.703,2.861-15.755,8.57-21.161c5.722-5.393,13.176-8.093,22.339-8.093
			c8.315,0,15.229,2.521,20.701,7.57c5.481,5.035,8.216,11.151,8.216,18.318c0,2.2-0.468,3.686-1.396,4.438
			c-0.918,0.744-3.431,1.121-7.528,1.121h-0.882H592.302z M592.604,170.761h38.483c-0.589-4.691-2.549-8.46-5.884-11.322
			c-3.333-2.854-7.419-4.284-12.272-4.284c-5.234,0-9.64,1.373-13.229,4.139C596.112,162.058,593.753,165.875,592.604,170.761"/>
		<path d="M647.484,198.955v-10.521c0-1.734,0.292-2.972,0.882-3.723c0.595-0.741,1.55-1.118,2.873-1.118
			c1.471,0,2.646,1.096,3.488,3.309c0.569,1.333,1.092,2.339,1.552,3.018c1.504,2.127,3.729,3.824,6.672,5.111
			c2.921,1.277,6.162,1.919,9.697,1.919c3.783,0,6.832-0.856,9.118-2.527c2.293-1.711,3.431-3.931,3.431-6.693
			c0-2.799-0.916-4.797-2.763-5.972c-1.845-1.185-4.985-1.776-9.466-1.776h-2.945c-7.301,0-12.862-1.396-16.691-4.188
			c-3.818-2.81-5.749-6.862-5.749-12.186c0-5.197,1.885-9.244,5.613-12.105c3.733-2.885,8.994-4.324,15.743-4.324
			c2.763,0,5.562,0.42,8.429,1.267c2.861,0.844,4.358,1.271,4.506,1.271c0.396,0,1.149-0.375,2.248-1.145
			c1.113-0.774,2.205-1.161,3.28-1.161c1.218,0,2.11,0.496,2.715,1.479c0.58,0.993,0.873,2.472,0.873,4.438v6.907
			c0,2.095-0.284,3.6-0.854,4.521c-0.569,0.928-1.485,1.404-2.734,1.404c-1.075,0-2.407-1.019-3.977-3.021
			c-1.104-1.383-2.02-2.422-2.728-3.142c-1.906-1.927-3.918-3.32-6.068-4.162c-2.147-0.844-4.661-1.269-7.562-1.269
			c-3.362,0-6.068,0.82-8.126,2.451c-2.066,1.633-3.084,3.714-3.084,6.237c0,2.485,1.056,4.261,3.156,5.316
			c2.113,1.062,6.665,1.684,13.635,1.829c7.436,0.21,12.87,1.635,16.304,4.291c3.442,2.664,5.148,6.772,5.148,12.328
			c0,5.313-1.891,9.577-5.681,12.764c-3.783,3.196-8.905,4.797-15.35,4.797c-2.03,0-4.305-0.208-6.804-0.618
			c-2.507-0.42-5.654-1.115-9.446-2.101c-1.257,0.893-2.32,1.598-3.214,2.031c-0.896,0.45-1.645,0.688-2.258,0.688
			c-1.258,0-2.214-0.482-2.87-1.455C647.805,202.164,647.484,200.778,647.484,198.955"/>
		<path d="M717.878,194.886h5.146c1.55,0,2.68,0.324,3.402,0.966c0.736,0.646,1.104,1.694,1.104,3.104
			c0,1.618-0.35,2.746-1.037,3.345c-0.688,0.609-1.966,0.913-3.821,0.913h-18.524c-1.578,0-2.754-0.36-3.555-1.055
			c-0.789-0.715-1.183-1.787-1.183-3.203c0-1.373,0.42-2.398,1.255-3.08c0.829-0.665,2.059-0.989,3.73-0.989h4.498V156.99h-4.434
			c-1.616,0-2.858-0.367-3.7-1.095c-0.844-0.734-1.277-1.783-1.277-3.163c0-1.373,0.396-2.422,1.183-3.104
			c0.791-0.688,1.966-1.035,3.556-1.035h10.234c1.065,0,1.9,0.215,2.515,0.648c0.606,0.434,0.909,1.022,0.909,1.776V194.886z
			 M706.947,135.922c0-3.149,0.382-5.121,1.156-5.941c0.763-0.821,2.405-1.223,4.928-1.223c2.445,0,4.058,0.339,4.847,1.028
			c0.793,0.681,1.188,2.305,1.188,4.865c0,2.5-0.367,4.055-1.096,4.65c-0.734,0.596-2.379,0.898-4.939,0.898
			c-2.522,0-4.165-0.274-4.928-0.829C707.329,138.817,706.947,137.669,706.947,135.922"/>
		<path d="M780.15,200.083c0,5.525-0.283,9.433-0.835,11.723c-0.543,2.322-1.497,4.334-2.829,6.064
			c-2.212,2.924-5.307,5.131-9.272,6.656c-4.003,1.525-8.683,2.286-14.082,2.286c-4.5,0-7.775-0.44-9.848-1.307
			c-2.066-0.874-3.095-2.243-3.095-4.14c0-1.217,0.503-2.292,1.505-3.212c1.009-0.93,2.191-1.406,3.57-1.406
			c1.075,0,2.699,0.146,4.911,0.45c2.213,0.298,3.876,0.446,5.021,0.446c5.841,0,9.974-1.347,12.425-4.033
			c2.44-2.676,3.671-7.269,3.671-13.76v-7.156c-2.405,2.803-5.078,4.841-7.988,6.15c-2.92,1.297-6.262,1.942-10.053,1.942
			c-7.371,0-13.469-2.462-18.296-7.371c-4.827-4.887-7.252-11.106-7.252-18.637c0-7.573,2.486-13.84,7.454-18.822
			c4.978-4.989,11.116-7.48,18.454-7.48c3.036,0,5.995,0.564,8.885,1.678c2.9,1.121,5.83,2.832,8.796,5.121v-4.254
			c0-0.836,0.255-1.446,0.789-1.842c0.522-0.396,1.37-0.587,2.506-0.587h8.932c1.571,0,2.754,0.341,3.555,1.035
			c0.777,0.688,1.176,1.726,1.176,3.106c0,1.578-0.499,2.677-1.481,3.308c-0.982,0.63-2.836,0.936-5.562,0.936h-1.056V200.083z
			 M754.493,157.341c-5.171,0-9.385,1.595-12.653,4.798c-3.275,3.195-4.899,7.326-4.899,12.416c0,4.989,1.624,9.105,4.899,12.324
			c3.269,3.203,7.482,4.811,12.653,4.811c5.121,0,9.325-1.607,12.622-4.811c3.287-3.219,4.939-7.335,4.939-12.324
			c0-5.012-1.652-9.145-4.939-12.361C763.818,158.956,759.614,157.341,754.493,157.341"/>
		<path d="M802.487,194.886V156.99h-1.13c-2.671,0-4.518-0.314-5.519-0.947c-1.011-0.627-1.514-1.732-1.514-3.311
			c0-1.462,0.416-2.515,1.239-3.156c0.836-0.665,2.165-0.982,4.03-0.982h2.762h5.694c1.056,0,1.879,0.215,2.467,0.648
			c0.601,0.434,0.895,1.022,0.895,1.776v4.019c2.882-2.686,5.727-4.657,8.544-5.949c2.808-1.271,5.74-1.919,8.77-1.919
			c5.955,0,10.64,1.858,14.051,5.563c3.408,3.705,5.106,8.834,5.106,15.368v26.785h2.781c1.965,0,3.396,0.324,4.26,0.966
			c0.865,0.646,1.295,1.694,1.295,3.104c0,1.538-0.468,2.637-1.396,3.289c-0.916,0.648-2.561,0.969-4.919,0.969h-13.064
			c-2.532,0-4.15-0.281-4.858-0.887c-0.702-0.579-1.063-1.72-1.063-3.371c0-1.532,0.415-2.584,1.239-3.186
			c0.835-0.6,2.397-0.884,4.683-0.884h2.059v-24.597c0-4.614-1.041-8.127-3.134-10.556c-2.084-2.415-5.121-3.63-9.097-3.63
			c-4.02,0-7.562,1.355-10.642,4.083c-3.075,2.72-4.613,6.084-4.613,10.103v24.597h2.073c2.358,0,3.956,0.284,4.783,0.884
			c0.836,0.602,1.239,1.653,1.239,3.186c0,1.651-0.349,2.792-1.057,3.371c-0.715,0.605-2.452,0.887-5.206,0.887h-10.758h-3.194
			c-1.617,0-2.828-0.337-3.636-1.025c-0.809-0.688-1.211-1.771-1.211-3.232c0-1.571,0.468-2.646,1.393-3.219
			c0.92-0.566,2.727-0.851,5.406-0.851H802.487z"/>
	</g>
</g>
</svg>
