<?xml version="1.0" encoding="utf-8"?>
<!-- Generator: Adobe Illustrator 15.0.0, SVG Export Plug-In . SVG Version: 6.00 Build 0)  -->
<!DOCTYPE svg PUBLIC "-//W3C//DTD SVG 1.1//EN" "http://www.w3.org/Graphics/SVG/1.1/DTD/svg11.dtd">
<svg version="1.1" id="Layer_1" xmlns="http://www.w3.org/2000/svg" xmlns:xlink="http://www.w3.org/1999/xlink" x="0px" y="0px"
	 width="185.25px" height="185.188px" viewBox="0 0 185.25 185.188" enable-background="new 0 0 185.25 185.188"
	 xml:space="preserve">
<path fill="#0183CB" d="M170.082,100.034l-34.577-6.622c0.001-0.111,0.009-0.225,0.009-0.331c0-2.688-0.257-5.313-0.734-7.862
	l32.799-12.982c4.031-1.599,6.01-6.159,4.408-10.19c-1.598-4.032-6.156-6.02-10.191-4.413l-32.734,12.961
	c-1.481-2.365-3.187-4.578-5.09-6.601l20.646-28.612c2.534-3.522,1.741-8.431-1.775-10.968c-3.518-2.536-8.43-1.747-10.967,1.771
	l-20.592,28.541c-2.543-1.21-5.229-2.172-8.021-2.857l1.83-35.225c0.225-4.335-3.104-8.024-7.438-8.253
	c-4.329-0.223-8.029,3.104-8.251,7.438l-1.826,35.153c-3.227,0.417-6.342,1.188-9.3,2.285L59.956,23.142
	c-2.257-3.708-7.086-4.886-10.793-2.632c-3.705,2.254-4.89,7.085-2.632,10.793l18.288,30.081c-1.885,1.681-3.616,3.529-5.177,5.519
	L28.251,50.801c-3.865-1.979-8.596-0.454-10.575,3.405c-1.979,3.856-0.46,8.597,3.405,10.568l31.317,16.062
	c-0.751,2.497-1.282,5.088-1.562,7.755l-35.143,2.984c-4.326,0.369-7.53,4.172-7.162,8.488c0.367,4.323,4.167,7.534,8.491,7.161
	l35.071-2.979c0.779,2.859,1.851,5.603,3.179,8.188L27.496,134.18c-3.416,2.678-4.017,7.613-1.343,11.027
	c2.675,3.416,7.612,4.021,11.027,1.344l27.722-21.704c2.186,1.938,4.573,3.651,7.126,5.11L60.68,163.357
	c-1.394,4.111,0.804,8.57,4.91,9.968c4.109,1.396,8.573-0.803,9.965-4.909l11.321-33.328c2.018,0.295,4.081,0.453,6.18,0.453
	c0.561,0,1.115-0.021,1.67-0.042l8.045,34.351c0.992,4.229,5.217,6.846,9.438,5.855c4.225-0.989,6.852-5.213,5.855-9.438
	l-8.026-34.269c2.545-1.112,4.959-2.47,7.215-4.035l25.235,24.646c3.104,3.03,8.078,2.978,11.107-0.131
	c3.027-3.104,2.977-8.079-0.134-11.105l-25.18-24.59c1.67-2.479,3.071-5.146,4.194-7.952l34.645,6.638
	c4.264,0.812,8.379-1.979,9.189-6.236C177.134,104.968,174.348,100.848,170.082,100.034z M93.057,117.081c-13.255,0-24-10.746-24-24
	c0-13.255,10.745-24,24-24s24,10.745,24,24C117.057,106.335,106.312,117.081,93.057,117.081z"/>
<path fill="#0183CB" d="M127.832,30.623c-34.506-19.206-78.044-6.797-97.246,27.704c-19.204,34.508-6.796,78.05,27.708,97.249
	c34.504,19.196,78.044,6.796,97.243-27.711C174.74,93.363,162.335,49.824,127.832,30.623z M93.057,151.997
	c-32.539,0-58.917-26.372-58.917-58.915c0-32.539,26.379-58.917,58.917-58.917c32.544-0.001,58.917,26.378,58.917,58.917
	C151.975,125.625,125.602,151.997,93.057,151.997z"/>
<circle fill="#0183CB" cx="93.056" cy="93.081" r="13.167"/>
<g>
	<g>
		<path fill="#0183CB" d="M110.152,24.092c-1.041-7.799-2.539-15.519-4.479-23.261C101.514,0.377,97.33,0.054,93.141,0
			c-3.447,7.326-6.369,14.949-8.771,22.467C83.087,22.555,111.283,24.262,110.152,24.092z"/>
	</g>
	<g>
		<path fill="#0183CB" d="M144.646,44.191c3.324-7.131,6.225-14.438,8.768-22.006c-3.262-2.626-6.607-5.148-10.109-7.457
			c-6.854,4.313-13.423,9.158-19.5,14.193C122.678,28.307,145.508,44.943,144.646,44.191z"/>
	</g>
	<g>
		<path fill="#0183CB" d="M162.863,79.714c6.646-4.213,13.027-8.808,19.248-13.809c-1.332-3.975-2.789-7.902-4.496-11.73
			c-8.098-0.062-16.242,0.478-24.074,1.441C152.923,54.491,163.184,80.812,162.863,79.714z"/>
	</g>
	<g>
		<path fill="#0183CB" d="M159.059,119.452c7.867,0.029,15.719-0.396,23.654-1.253c1.02-4.062,1.91-8.16,2.537-12.309
			c-6.787-4.417-13.938-8.354-21.055-11.764C164.281,92.852,158.736,120.552,159.059,119.452z"/>
	</g>
	<g>
		<path fill="#0183CB" d="M134.43,150.873c6.609,4.27,13.453,8.142,20.6,11.691c3.053-2.872,6.012-5.844,8.771-8.992
			c-3.335-7.383-7.234-14.554-11.392-21.262C153.17,131.282,133.566,151.625,134.43,150.873z"/>
	</g>
	<g>
		<path fill="#0183CB" d="M96.75,164.06c3.266,7.158,6.941,14.109,11.045,20.956c4.115-0.772,8.209-1.684,12.234-2.851
			c1.17-8.017,1.75-16.154,1.863-24.046C123.094,157.663,95.616,164.228,96.75,164.06z"/>
	</g>
	<g>
		<path fill="#0183CB" d="M57.904,154.855c-1.108,7.789-1.759,15.626-1.994,23.604c3.885,1.562,7.821,3.007,11.842,4.189
			c5.303-6.113,10.181-12.658,14.532-19.242C83.541,163.668,56.86,154.387,57.904,154.855z"/>
	</g>
	<g>
		<path fill="#0183CB" d="M30.148,126.161c-5.132,5.964-9.905,12.214-14.404,18.807c2.429,3.412,4.967,6.749,7.713,9.917
			c7.764-2.293,15.401-5.176,22.614-8.377C46.99,147.404,29.521,125.202,30.148,126.161z"/>
	</g>
	<g>
		<path fill="#0183CB" d="M22.238,87.031c-7.537,2.256-14.926,4.943-22.27,8.071c0.207,4.188,0.545,8.362,1.151,12.515
			c7.775,2.254,15.762,3.939,23.563,5.137C24.972,114.003,22.227,85.887,22.238,87.031z"/>
	</g>
	<g>
		<path fill="#0183CB" d="M36.67,49.81c-7.564-2.164-15.239-3.881-23.109-5.204c-2.082,3.639-4.05,7.337-5.776,11.158
			c5.334,6.09,11.149,11.818,17.078,17.027C24.433,74,37.278,48.84,36.67,49.81z"/>
	</g>
	<g>
		<path fill="#0183CB" d="M68.889,26.24c-5.204-5.9-10.743-11.484-16.658-16.846c-3.713,1.939-7.365,3.998-10.879,6.285
			c1.21,8.004,3.02,15.965,5.205,23.547C45.544,40.018,69.926,25.75,68.889,26.24z"/>
	</g>
</g>
<path fill="none" d="M121.458,97.427c0-16.937-9.333-32.333-28.333-32.333c-18.669,0-28.667,11.667-27.333,30"/>
<path fill="none" d="M122.125,96.428c0-18.41-12.27-32.722-30.667-32c-17,0.667-28.331,14.929-28.331,36.411"/>
<g>
	<path fill="#FFFFFF" d="M63.926,92.921c0.232,0.428,0.475,1.331,0.499,2.476c0.055,2.653-1.579,4.671-4.679,4.735
		c-2.96,0.062-4.984-1.895-5.044-4.812c-0.024-1.158,0.211-1.918,0.373-2.242l0.998,0.286c-0.214,0.451-0.368,1.111-0.352,1.894
		c0.046,2.206,1.487,3.643,3.958,3.591c2.317-0.048,3.756-1.405,3.708-3.681c-0.016-0.754-0.185-1.505-0.432-1.988L63.926,92.921z"
		/>
	<path fill="#FFFFFF" d="M61.314,83.036c3.151,0.691,4.421,2.985,3.907,5.332c-0.536,2.441-2.802,3.717-5.585,3.107
		c-2.919-0.64-4.434-2.859-3.896-5.315C56.293,83.637,58.573,82.435,61.314,83.036z M59.884,90.214
		c1.978,0.434,3.971-0.245,4.384-2.127c0.413-1.882-1.086-3.326-3.174-3.784c-1.841-0.403-3.96,0.133-4.394,2.111
		C56.266,88.392,57.878,89.775,59.884,90.214z"/>
	<path fill="#FFFFFF" d="M58.362,78.518c0.245-0.71,0.593-1.522,1.056-2.367c0.837-1.532,1.801-2.421,2.858-2.783
		c1.083-0.379,2.272-0.285,3.608,0.445c1.348,0.737,2.216,1.769,2.561,2.944c0.343,1.206,0.063,2.708-0.814,4.313
		c-0.422,0.772-0.8,1.377-1.157,1.882L58.362,78.518z M66.248,81.444c0.184-0.25,0.411-0.635,0.638-1.052
		c1.253-2.291,0.648-4.213-1.582-5.432c-1.941-1.077-3.782-0.651-5.015,1.604c-0.301,0.551-0.48,0.995-0.573,1.31L66.248,81.444z"/>
	<path fill="#FFFFFF" d="M71.349,68.755l-2.541,2.612l2.432,2.366l2.843-2.923l0.731,0.711l-3.7,3.804l-6.747-6.562l3.553-3.654
		l0.731,0.711l-2.697,2.772l2.132,2.074l2.541-2.613L71.349,68.755z"/>
	<path fill="#FFFFFF" d="M74.412,60.66c0.511-0.358,1.288-0.809,2.036-1.153c1.179-0.543,2.058-0.672,2.794-0.442
		c0.594,0.188,1.116,0.654,1.426,1.326c0.514,1.116,0.149,2.191-0.598,2.905l0.018,0.038c0.751-0.07,1.425,0.358,2.037,1.152
		c0.829,1.063,1.411,1.794,1.741,2.042l-1.141,0.526c-0.256-0.189-0.78-0.824-1.499-1.784c-0.797-1.062-1.471-1.29-2.49-0.866
		l-1.04,0.479l1.707,3.703l-1.103,0.508L74.412,60.66z M77.309,64.044l1.128-0.52c1.179-0.543,1.629-1.535,1.18-2.511
		c-0.509-1.103-1.53-1.217-2.696-0.679c-0.532,0.246-0.883,0.453-1.049,0.591L77.309,64.044z"/>
	<path fill="#FFFFFF" d="M88.927,61.097l-3.584,0.669l0.623,3.337l4.01-0.749l0.187,1.002l-5.219,0.974l-1.728-9.256l5.013-0.936
		l0.187,1.002l-3.804,0.71l0.546,2.925l3.584-0.669L88.927,61.097z"/>
	<path fill="#FFFFFF" d="M93.694,65.377l-2.681-9.531l1.325,0.056l1.266,4.693c0.337,1.286,0.637,2.444,0.854,3.558l0.028,0.001
		c0.312-1.077,0.738-2.246,1.223-3.455l1.788-4.577l1.298,0.056l-3.763,9.256L93.694,65.377z"/>
	<path fill="#FFFFFF" d="M102.367,56.969l-1.902,9.215l-1.203-0.248l1.902-9.215L102.367,56.969z"/>
	<path fill="#FFFFFF" d="M108.57,64.277l-3.394-1.334l-1.242,3.159l3.796,1.493l-0.373,0.949l-4.94-1.942l3.445-8.762l4.745,1.866
		l-0.373,0.949l-3.601-1.416l-1.089,2.769l3.393,1.334L108.57,64.277z"/>
	<path fill="#FFFFFF" d="M109.762,69.907l4.255-8.731l0.981,0.83l-2.223,4.359c-0.544,1.076-1.109,2.134-1.567,2.936l0.021,0.018
		c0.722-0.616,1.667-1.279,2.696-2l4.026-2.815l0.971,0.821l-2.21,4.387c-0.519,1.024-1.048,2.04-1.582,2.888l0.021,0.018
		c0.817-0.663,1.696-1.292,2.678-1.998l4.015-2.824l0.949,0.803l-8.115,5.466l-0.97-0.82l2.258-4.51
		c0.552-1.107,0.998-1.937,1.515-2.744l-0.021-0.018c-0.722,0.616-1.487,1.175-2.539,1.878l-4.189,2.878L109.762,69.907z"/>
</g>
</svg>
