<?xml version="1.0" encoding="utf-8"?>
<!-- Generator: Adobe Illustrator 15.0.0, SVG Export Plug-In . SVG Version: 6.00 Build 0)  -->
<!DOCTYPE svg PUBLIC "-//W3C//DTD SVG 1.1//EN" "http://www.w3.org/Graphics/SVG/1.1/DTD/svg11.dtd">
<svg version="1.1" id="Layer_1" xmlns="http://www.w3.org/2000/svg" xmlns:xlink="http://www.w3.org/1999/xlink" x="0px" y="0px"
	 width="284.959px" height="284.792px" viewBox="0 0 284.959 284.792" enable-background="new 0 0 284.959 284.792"
	 xml:space="preserve">
<path fill="#0183CB" d="M172.29,26.089C107.913,9.488,42.242,48.236,25.64,112.622c-16.608,64.381,22.13,130.069,86.532,146.657
	c64.375,16.602,130.043-22.125,146.667-86.531C275.425,108.361,236.698,42.693,172.29,26.089z M131.274,165.762l-53.231,56.076
	c-3.05,3.195-8.113,3.314-11.31,0.263c-3.198-3.049-3.313-8.115-0.264-11.312l53.168-56.012c3.034-3.212,8.098-3.359,11.308-0.325
	C134.161,157.486,134.304,162.548,131.274,165.762z M131.369,130.012c-3.328,2.905-8.383,2.557-11.286-0.772L69.172,71.168
	c-2.922-3.315-2.605-8.372,0.71-11.292c3.315-2.924,8.37-2.604,11.291,0.709l50.972,58.137
	C135.046,122.054,134.702,127.107,131.369,130.012z M149.565,144.064c-0.761,4.045-4.658,6.711-8.706,5.949
	c-4.047-0.76-6.711-4.658-5.951-8.706c0.761-4.047,4.658-6.712,8.706-5.951C147.663,136.118,150.327,140.017,149.565,144.064z
	 M219.336,221.925c-3.221,3.021-8.286,2.854-11.307-0.369l-52.957-56.211c-3.038-3.209-2.902-8.273,0.306-11.309
	c3.209-3.041,8.271-2.902,11.312,0.303l53.018,56.278C222.727,213.841,222.563,218.903,219.336,221.925z M222.401,77.403
	L167.2,131.541c-3.164,3.082-8.229,3.021-11.314-0.145c-3.086-3.16-3.02-8.226,0.141-11.312l55.14-54.072
	c3.146-3.102,8.214-3.069,11.312,0.079C225.584,69.237,225.546,74.3,222.401,77.403z"/>
<g>
	<g>
		<path fill="#0183CB" d="M118.808,31.186c1.715-2.176,2.884-4.606,3.542-7.126c-1.128,0.182-2.252,0.383-3.371,0.62
			c-3.73-6.928-7.857-13.619-12.4-20.18c-4.056,1.044-8.084,2.219-12.027,3.645c-0.632,8.072-0.678,16.239-0.274,24.12
			c-1.167,0.534-2.334,1.067-3.497,1.606c0.216,0.185,0.414,0.382,0.641,0.56C99.88,41.095,112.142,39.644,118.808,31.186z"/>
	</g>
	<g>
		<path fill="#0183CB" d="M160.617,30.243c2.385-1.411,4.353-3.255,5.875-5.368c-1.117-0.238-2.239-0.457-3.367-0.639
			c-0.979-7.806-2.413-15.536-4.284-23.294C154.683,0.452,150.5,0.095,146.31,0c-3.501,7.301-6.491,14.902-8.959,22.397
			c-1.28,0.077-2.561,0.152-3.84,0.237c0.135,0.25,0.248,0.506,0.396,0.753C139.387,32.655,151.349,35.726,160.617,30.243z"/>
	</g>
	<g>
		<path fill="#0183CB" d="M199.946,44.449c2.734-0.457,5.234-1.467,7.416-2.887c-0.954-0.626-1.924-1.233-2.909-1.81
			c1.901-7.636,3.354-15.361,4.409-23.272c-3.7-1.958-7.473-3.799-11.348-5.4c-5.899,5.545-11.434,11.557-16.438,17.656
			c-1.223-0.391-2.443-0.782-3.666-1.165c0.035,0.281,0.048,0.561,0.097,0.844C179.276,39.039,189.324,46.217,199.946,44.449z"/>
	</g>
	<g>
		<path fill="#0183CB" d="M231.503,71.888c2.715,0.561,5.411,0.521,7.959-0.017c-0.666-0.928-1.352-1.844-2.062-2.738
			c4.531-6.435,8.67-13.116,12.511-20.114c-2.748-3.161-5.599-6.239-8.638-9.13c-7.502,3.044-14.83,6.654-21.698,10.536
			c-0.998-0.804-1.996-1.611-2.998-2.409c-0.068,0.275-0.157,0.542-0.218,0.824C214.179,59.385,220.959,69.705,231.503,71.888z"/>
	</g>
	<g>
		<path fill="#0183CB" d="M251.033,108.865c2.329,1.502,4.858,2.438,7.429,2.854c-0.286-1.105-0.593-2.206-0.934-3.297
			c6.546-4.367,12.816-9.104,18.923-14.246c-1.421-3.939-2.97-7.838-4.761-11.631c-8.096,0.133-16.231,0.855-24.039,1.998
			c-0.642-1.11-1.278-2.224-1.928-3.33c-0.162,0.232-0.342,0.45-0.496,0.692C239.388,90.952,241.987,103.024,251.033,108.865z"/>
	</g>
	<g>
		<path fill="#0183CB" d="M255.908,150.4c1.631,2.239,3.651,4.025,5.896,5.342c0.133-1.135,0.243-2.271,0.318-3.41
			c7.682-1.711,15.24-3.865,22.787-6.459c0.099-4.187,0.062-8.382-0.239-12.566c-7.599-2.796-15.448-5.059-23.144-6.811
			c-0.197-1.266-0.391-2.535-0.596-3.8c-0.234,0.156-0.48,0.296-0.715,0.465C251.509,129.489,249.578,141.686,255.908,150.4z"/>
	</g>
	<g>
		<path fill="#0183CB" d="M245.466,190.891c0.715,2.681,1.954,5.073,3.573,7.11c0.535-1.012,1.047-2.03,1.528-3.065
			c7.779,1.177,15.606,1.896,23.582,2.196c1.603-3.866,3.08-7.795,4.311-11.807c-6.077-5.348-12.583-10.291-19.128-14.699
			c0.274-1.254,0.554-2.506,0.815-3.76c-0.276,0.061-0.556,0.102-0.832,0.176C248.908,169.802,242.707,180.483,245.466,190.891z"/>
	</g>
	<g>
		<path fill="#0183CB" d="M221.117,224.891c-0.3,2.756-0.007,5.438,0.768,7.922c0.863-0.75,1.71-1.517,2.531-2.31
			c6.832,3.902,13.875,7.396,21.203,10.559c2.89-3.029,5.685-6.159,8.278-9.457c-3.739-7.182-8.022-14.139-12.535-20.609
			c0.707-1.07,1.419-2.14,2.117-3.213c-0.278-0.043-0.556-0.104-0.84-0.136C231.938,206.464,222.304,214.188,221.117,224.891z"/>
	</g>
	<g>
		<path fill="#0183CB" d="M186.146,247.814c-1.275,2.463-1.97,5.068-2.146,7.665c1.074-0.39,2.144-0.799,3.194-1.239
			c4.962,6.104,10.271,11.903,15.964,17.498c3.788-1.783,7.522-3.693,11.133-5.834c-0.896-8.046-2.379-16.078-4.252-23.746
			c1.046-0.74,2.096-1.479,3.135-2.229c-0.248-0.141-0.479-0.299-0.735-0.428C202.883,234.535,191.108,238.257,186.146,247.814z"/>
	</g>
	<g>
		<path fill="#0183CB" d="M145.255,256.574c-2.076,1.836-3.665,4.018-4.765,6.375c1.145,0.024,2.287,0.028,3.426-0.002
			c2.427,7.483,5.285,14.809,8.576,22.078c4.177-0.299,8.351-0.729,12.487-1.423c2.066-7.828,3.58-15.854,4.601-23.685
			c1.244-0.312,2.487-0.623,3.729-0.949c-0.181-0.221-0.342-0.45-0.533-0.665C165.658,250.228,153.332,249.455,145.255,256.574z"/>
	</g>
	<g>
		<path fill="#0183CB" d="M103.959,249.992c-2.6,0.965-4.867,2.426-6.746,4.227c1.059,0.438,2.123,0.853,3.198,1.232
			c-0.438,7.856-0.414,15.719,0.031,23.688c4.003,1.229,8.052,2.332,12.162,3.178c4.752-6.555,9.061-13.494,12.833-20.426
			c1.274,0.156,2.547,0.314,3.82,0.459c-0.087-0.27-0.154-0.543-0.255-0.811C125.277,251.434,114.062,246.266,103.959,249.992z"/>
	</g>
	<g>
		<path fill="#0183CB" d="M67.82,228.953c-2.773-0.039-5.414,0.506-7.815,1.508c0.83,0.791,1.672,1.561,2.537,2.305
			c-3.243,7.168-6.057,14.51-8.517,22.104c3.291,2.59,6.669,5.08,10.196,7.352c6.798-4.396,13.319-9.315,19.34-14.42
			c1.131,0.604,2.261,1.214,3.396,1.808c0.016-0.282,0.053-0.562,0.055-0.851C87.182,237.99,78.587,229.123,67.82,228.953z"/>
	</g>
	<g>
		<path fill="#0183CB" d="M41.706,196.291c-2.571-1.035-5.23-1.48-7.832-1.412c0.488,1.035,0.995,2.06,1.534,3.062
			c-5.611,5.519-10.884,11.349-15.917,17.542c2.133,3.604,4.387,7.145,6.856,10.534c7.928-1.649,15.783-3.882,23.24-6.47
			c0.836,0.972,1.671,1.945,2.515,2.91c0.118-0.26,0.253-0.508,0.358-0.771C56.503,211.705,51.687,200.333,41.706,196.291z"/>
	</g>
	<g>
		<path fill="#0183CB" d="M29.136,156.406c-2.023-1.894-4.343-3.269-6.794-4.144c0.082,1.144,0.186,2.278,0.325,3.411
			c-7.223,3.117-14.244,6.654-21.174,10.615c0.689,4.129,1.515,8.244,2.594,12.299c7.988,1.322,16.12,2.072,24.009,2.352
			c0.43,1.209,0.855,2.421,1.296,3.623c0.202-0.197,0.418-0.382,0.612-0.591C37.375,176.123,36.986,163.779,29.136,156.406z"/>
	</g>
	<g>
		<path fill="#0183CB" d="M31.803,114.674c-1.204-2.496-2.871-4.615-4.841-6.315c-0.337,1.095-0.65,2.191-0.929,3.3
			c-7.861,0.302-15.686,1.066-23.577,2.259c-0.847,4.102-1.563,8.237-2.02,12.409c6.974,4.115,14.286,7.749,21.544,10.853
			c-0.035,1.283-0.076,2.566-0.099,3.847c0.26-0.112,0.528-0.206,0.785-0.33C32.374,136.036,36.464,124.382,31.803,114.674z"/>
	</g>
	<g>
		<path fill="#0183CB" d="M49.348,76.715c-0.223-2.763-1.013-5.34-2.237-7.638c-0.709,0.9-1.396,1.81-2.057,2.745
			c-7.44-2.556-15.014-4.666-22.804-6.402c-2.27,3.52-4.43,7.119-6.36,10.845c5.019,6.354,10.527,12.381,16.177,17.896
			c-0.496,1.184-0.997,2.365-1.48,3.552c0.283-0.011,0.566-0.001,0.851-0.025C42.172,96.843,50.192,87.452,49.348,76.715z"/>
	</g>
	<g>
		<path fill="#0183CB" d="M79.407,47.643c0.789-2.656,0.982-5.344,0.669-7.929c-0.985,0.583-1.956,1.184-2.908,1.818
			c-6.017-5.069-12.319-9.769-18.958-14.199c-3.387,2.464-6.7,5.041-9.845,7.82c2.389,7.736,5.352,15.346,8.631,22.527
			c-0.891,0.925-1.784,1.846-2.663,2.779c0.269,0.092,0.528,0.203,0.803,0.284C65.453,63.827,76.32,57.962,79.407,47.643z"/>
	</g>
</g>
<g>
	<path fill="#FFFFFF" d="M53.014,139.413l-1.067,0.526c-0.074-0.052-0.073-0.139-0.073-0.158c0-0.04,0.007-0.08,0.007-0.12
		c0-0.075-0.023-0.116-0.055-0.171c-0.404-0.697-1.134-1.161-1.917-1.161c-1.414,0-2.672,1.488-2.672,4.145
		c0,2.703,1.294,4.238,2.766,4.238c0.785,0,1.58-0.455,2.042-1.219l0.831,0.54c-0.628,1.025-1.743,1.648-2.936,1.648
		c-1.647,0-3.797-1.244-3.797-5.109c0-4.004,2.249-5.142,3.805-5.142C51.276,137.432,52.476,138.207,53.014,139.413z"/>
	<path fill="#FFFFFF" d="M60.488,145.735c-0.659,1.333-1.81,1.935-2.89,1.935c-1.531,0-3.608-1.238-3.608-5.169
		s2.106-5.096,3.598-5.096c1.089,0,2.226,0.6,2.882,1.885c0.546,1.069,0.613,2.312,0.613,3.247
		C61.083,143.416,61.019,144.66,60.488,145.735z M55.097,142.354c0,3.181,1.381,4.221,2.506,4.221c0.673,0,1.448-0.381,1.911-1.354
		c0.41-0.862,0.448-1.883,0.448-2.538c0-0.846-0.051-1.804-0.389-2.645c-0.466-1.16-1.322-1.582-2.031-1.582
		C56.49,138.457,55.097,139.373,55.097,142.354z"/>
	<path fill="#FFFFFF" d="M62.35,137.515h1.094l4.197,7.411v-7.425h1.191c0.013,0.093-0.029,0.17-0.047,0.205
		c-0.038,0.073-0.064,0.113-0.064,0.225v9.6h-0.887l-4.405-7.882v7.869h-1.08V137.515z"/>
	<path fill="#FFFFFF" d="M76.998,137.501v1.011h-2.951v9.018h-1.136v-9.018h-2.84v-1.011H76.998z"/>
	<path fill="#FFFFFF" d="M83.972,137.515v0.942h-1.981v8.146h2.078v0.928h-5.167v-0.941h1.967v-8.132h-1.856v-0.942H83.972z"/>
	<path fill="#FFFFFF" d="M86.431,137.515h1.094l4.197,7.411v-7.425h1.191c0.013,0.093-0.029,0.17-0.047,0.205
		c-0.038,0.073-0.064,0.113-0.064,0.225v9.6h-0.887l-4.405-7.882v7.869h-1.08V137.515z"/>
	<path fill="#FFFFFF" d="M95.718,137.515c0.011,0.025,0.017,0.053,0.017,0.081c0,0.096-0.063,0.162-0.105,0.221
		c-0.059,0.083-0.063,0.137-0.063,0.21v6.054c0,0.497,0.01,0.981,0.24,1.475c0.36,0.769,1.115,1.187,1.908,1.187
		c0.78,0,1.534-0.408,1.903-1.173c0.246-0.509,0.257-1.013,0.257-1.53v-6.524h1.066v6.497c0,0.731-0.022,1.425-0.4,2.122
		c-0.569,1.049-1.692,1.563-2.849,1.563c-1.18,0-2.29-0.526-2.844-1.555c-0.37-0.688-0.39-1.368-0.39-2.075v-6.553H95.718z"/>
	<path fill="#FFFFFF" d="M108.65,145.735c-0.659,1.333-1.81,1.935-2.89,1.935c-1.531,0-3.608-1.238-3.608-5.169
		s2.106-5.096,3.598-5.096c1.089,0,2.226,0.6,2.882,1.885c0.546,1.069,0.613,2.312,0.613,3.247
		C109.245,143.416,109.181,144.66,108.65,145.735z M103.259,142.354c0,3.181,1.381,4.221,2.506,4.221
		c0.673,0,1.448-0.381,1.911-1.354c0.41-0.862,0.448-1.883,0.448-2.538c0-0.846-0.051-1.804-0.389-2.645
		c-0.466-1.16-1.322-1.582-2.031-1.582C104.652,138.457,103.259,139.373,103.259,142.354z"/>
	<path fill="#FFFFFF" d="M111.772,137.515c0.011,0.025,0.017,0.053,0.017,0.081c0,0.096-0.063,0.162-0.105,0.221
		c-0.059,0.083-0.063,0.137-0.063,0.21v6.054c0,0.497,0.01,0.981,0.24,1.475c0.36,0.769,1.115,1.187,1.908,1.187
		c0.78,0,1.534-0.408,1.903-1.173c0.246-0.509,0.257-1.013,0.257-1.53v-6.524h1.066v6.497c0,0.731-0.022,1.425-0.4,2.122
		c-0.569,1.049-1.692,1.563-2.849,1.563c-1.18,0-2.29-0.526-2.844-1.555c-0.37-0.688-0.39-1.368-0.39-2.075v-6.553H111.772z"/>
	<path fill="#FFFFFF" d="M124.01,139.663c-0.035-0.011-0.081-0.042-0.084-0.131c-0.002-0.059,0.006-0.093-0.037-0.155
		c-0.387-0.564-1.104-0.99-2.036-0.99c-1.145,0-1.806,0.699-1.806,1.466c0,0.409,0.185,1.002,1.022,1.492
		c0.915,0.535,2.324,0.819,3.194,1.639c0.626,0.589,0.777,1.288,0.777,1.812c0,1.259-0.899,2.89-3.334,2.89
		c-1.234,0-2.354-0.433-3.141-1.289l0.665-1.149c0.077,0.038,0.073,0.127,0.073,0.153c-0.001,0.066-0.005,0.106,0.045,0.171
		c0.447,0.566,1.292,1.103,2.391,1.103c1.452,0,2.184-0.943,2.184-1.814c0-0.447-0.183-0.97-0.839-1.381
		c-0.756-0.474-2.2-0.819-3.126-1.503c-0.834-0.616-1.063-1.368-1.063-1.951c0-1.368,1.241-2.563,3.047-2.563
		c1.09,0,2.097,0.442,2.774,1.247L124.01,139.663z"/>
	<path fill="#FFFFFF" d="M164.242,137.515v0.942h-1.98v8.146h2.078v0.928h-5.168v-0.941h1.968v-8.132h-1.856v-0.942H164.242z"/>
	<path fill="#FFFFFF" d="M166.701,137.515h1.094l4.198,7.411v-7.425h1.191c0.013,0.093-0.029,0.17-0.047,0.205
		c-0.039,0.073-0.064,0.113-0.064,0.225v9.6h-0.887l-4.405-7.882v7.869h-1.08V137.515z"/>
	<path fill="#FFFFFF" d="M181.349,137.501v1.011h-2.95v9.018h-1.136v-9.018h-2.84v-1.011H181.349z"/>
	<path fill="#FFFFFF" d="M189.03,137.501v0.997h-5.07v3.283h4.184v1.025h-4.184v3.713h5.028v0.997h-6.095v-10.016H189.03z"/>
	<path fill="#FFFFFF" d="M197.335,139.094l-0.79,0.804c-0.126-0.081-0.165-0.208-0.214-0.315c-0.306-0.67-1.017-1.182-1.909-1.182
		c-0.843,0-1.734,0.462-2.25,1.433c-0.392,0.736-0.503,1.634-0.503,2.565c0,1.057,0.117,2.46,0.952,3.411
		c0.544,0.62,1.255,0.876,1.902,0.876c0.596,0,1.238-0.21,1.8-0.609v-2.383h-1.814v-0.97h2.854v3.906
		c-0.943,0.694-2.012,1.04-2.938,1.04c-1.745,0-3.865-1.249-3.865-5.035c0-4.389,2.54-5.218,3.87-5.218
		C195.661,137.418,196.763,138.058,197.335,139.094z"/>
	<path fill="#FFFFFF" d="M201.856,137.515c0.646,0,1.277,0.015,1.911,0.336c0.921,0.468,1.415,1.402,1.415,2.407
		c0,1.324-0.826,2.467-2.038,2.798l2.313,4.461h-1.261l-2.217-4.419h-1.939v4.419h-1.136v-10.002H201.856z M200.041,142.114h1.939
		c0.395,0,0.776-0.009,1.161-0.205c0.58-0.293,0.89-0.889,0.89-1.527c0-0.651-0.324-1.287-0.947-1.6
		c-0.408-0.205-0.811-0.215-1.228-0.215h-1.815V142.114z"/>
	<path fill="#FFFFFF" d="M209.8,137.335h0.125l3.865,10.182h-1.164l-1.108-2.923h-3.172l-0.97,2.937h-1.108L209.8,137.335z
		 M209.855,139.912l-1.288,3.81h2.701L209.855,139.912z"/>
	<path fill="#FFFFFF" d="M221.484,137.501v1.011h-2.95v9.018h-1.136v-9.018h-2.84v-1.011H221.484z"/>
	<path fill="#FFFFFF" d="M228.458,137.515v0.942h-1.98v8.146h2.078v0.928h-5.168v-0.941h1.968v-8.132h-1.856v-0.942H228.458z"/>
	<path fill="#FFFFFF" d="M237.082,145.735c-0.658,1.333-1.81,1.935-2.89,1.935c-1.53,0-3.608-1.238-3.608-5.169
		s2.107-5.096,3.599-5.096c1.089,0,2.227,0.6,2.882,1.885c0.546,1.069,0.612,2.312,0.612,3.247
		C237.677,143.416,237.613,144.66,237.082,145.735z M231.692,142.354c0,3.181,1.38,4.221,2.505,4.221
		c0.674,0,1.448-0.381,1.911-1.354c0.41-0.862,0.447-1.883,0.447-2.538c0-0.846-0.051-1.804-0.389-2.645
		c-0.466-1.16-1.321-1.582-2.031-1.582C233.085,138.457,231.692,139.373,231.692,142.354z"/>
	<path fill="#FFFFFF" d="M238.944,137.515h1.094l4.198,7.411v-7.425h1.191c0.013,0.093-0.029,0.17-0.047,0.205
		c-0.039,0.073-0.064,0.113-0.064,0.225v9.6h-0.887l-4.405-7.882v7.869h-1.08V137.515z"/>
</g>
</svg>
