<?xml version="1.0" encoding="utf-8"?>
<!-- Generator: Adobe Illustrator 15.0.0, SVG Export Plug-In . SVG Version: 6.00 Build 0)  -->
<!DOCTYPE svg PUBLIC "-//W3C//DTD SVG 1.1//EN" "http://www.w3.org/Graphics/SVG/1.1/DTD/svg11.dtd">
<svg version="1.1" id="Layer_1" xmlns="http://www.w3.org/2000/svg" xmlns:xlink="http://www.w3.org/1999/xlink" x="0px" y="0px"
	 width="186.417px" height="185.75px" viewBox="0 0 186.417 185.75" enable-background="new 0 0 186.417 185.75"
	 xml:space="preserve">
<path fill="#F2661D" d="M94.208,21.562c-39.661,0-71.812,32.151-71.812,71.812c0,39.661,32.151,71.812,71.812,71.812
	c39.66,0,71.812-32.15,71.812-71.812C166.02,53.713,133.869,21.562,94.208,21.562z M94.208,100.542
	c-3.958,0-7.167-3.209-7.167-7.167s3.209-7.167,7.167-7.167c3.957,0,7.166,3.209,7.166,7.167S98.166,100.542,94.208,100.542z"/>
<g>
	<g>
		<path fill="#F2661D" d="M62.841,36.454c0.807-2.651,1.014-5.339,0.711-7.926c-0.985,0.579-1.96,1.175-2.916,1.801
			c-5.992-5.098-12.267-9.833-18.885-14.295c-3.399,2.447-6.725,5.005-9.881,7.766c2.344,7.75,5.27,15.375,8.509,22.571
			c-0.892,0.921-1.787,1.841-2.674,2.766c0.268,0.094,0.524,0.206,0.801,0.29C48.807,52.564,59.705,46.756,62.841,36.454z"/>
	</g>
	<g>
		<path fill="#F2661D" d="M98.636,28.535c2.113-1.792,3.742-3.94,4.889-6.28c-1.141-0.048-2.283-0.072-3.427-0.062
			c-2.278-7.532-4.992-14.91-8.144-22.243c-4.183,0.218-8.363,0.569-12.51,1.184c-2.223,7.785-3.89,15.779-5.062,23.583
			c-1.249,0.291-2.499,0.582-3.746,0.879c0.176,0.225,0.331,0.458,0.517,0.677C78.119,34.487,90.425,35.499,98.636,28.535z"/>
	</g>
	<g>
		<path fill="#F2661D" d="M133.025,41.25c2.747-0.363,5.277-1.288,7.51-2.636c-0.936-0.657-1.883-1.296-2.85-1.906
			c2.16-7.567,3.87-15.238,5.191-23.11c-3.635-2.08-7.342-4.048-11.162-5.777c-6.084,5.343-11.812,11.164-17.021,17.092
			c-1.208-0.432-2.415-0.862-3.625-1.286c0.028,0.282,0.031,0.562,0.069,0.848C112.548,35.149,122.35,42.66,133.025,41.25z"/>
	</g>
	<g>
		<path fill="#F2661D" d="M155.058,70.551c2.508,1.182,5.138,1.773,7.74,1.847c-0.43-1.057-0.879-2.108-1.361-3.145
			c5.911-5.193,11.501-10.719,16.87-16.625c-1.931-3.716-3.979-7.376-6.259-10.896c-8.008,1.198-15.975,2.993-23.562,5.158
			c-0.784-1.016-1.565-2.032-2.354-3.043c-0.131,0.252-0.277,0.49-0.4,0.75C141.144,54.339,145.319,65.959,155.058,70.551z"/>
	</g>
	<g>
		<path fill="#F2661D" d="M157.729,107.115c1.47,2.352,3.36,4.271,5.511,5.742c0.211-1.119,0.401-2.248,0.557-3.383
			c7.781-1.166,15.473-2.787,23.185-4.847c0.388-4.171,0.644-8.358,0.634-12.55c-7.383-3.327-15.053-6.129-22.605-8.413
			c-0.108-1.278-0.215-2.556-0.33-3.835c-0.245,0.141-0.499,0.263-0.743,0.416C154.802,85.953,152.023,97.984,157.729,107.115z"/>
	</g>
	<g>
		<path fill="#F2661D" d="M140.185,139.309c-0.036,2.771,0.514,5.41,1.527,7.812c0.783-0.83,1.554-1.673,2.295-2.545
			c7.177,3.229,14.521,6.028,22.121,8.472c2.582-3.297,5.064-6.678,7.324-10.212c-4.408-6.791-9.34-13.298-14.455-19.308
			c0.6-1.133,1.201-2.268,1.795-3.402c-0.283-0.014-0.562-0.049-0.849-0.053C149.177,119.93,140.33,128.54,140.185,139.309z"/>
	</g>
	<g>
		<path fill="#F2661D" d="M108.009,156.884c-1.53,2.31-2.496,4.827-2.942,7.394c1.104-0.273,2.213-0.564,3.308-0.896
			c4.285,6.6,8.947,12.932,14.017,19.098c3.954-1.375,7.872-2.873,11.683-4.623c-0.029-8.097-0.654-16.237-1.705-24.059
			c1.118-0.628,2.236-1.255,3.353-1.891c-0.231-0.164-0.447-0.346-0.685-0.504C126.06,145.453,113.958,147.905,108.009,156.884z"/>
	</g>
	<g>
		<path fill="#F2661D" d="M71.444,154.25c-2.538,1.111-4.713,2.706-6.477,4.623c1.079,0.37,2.167,0.722,3.267,1.036
			c0.032,7.87,0.525,15.716,1.451,23.644c4.069,0.983,8.177,1.844,12.328,2.437c4.358-6.824,8.235-14.011,11.586-21.153
			c1.281,0.077,2.561,0.156,3.841,0.225c-0.104-0.264-0.188-0.529-0.304-0.793C92.807,154.405,81.304,149.921,71.444,154.25z"/>
	</g>
	<g>
		<path fill="#F2661D" d="M42.12,132.245c-2.736-0.437-5.428-0.276-7.95,0.382c0.708,0.895,1.433,1.779,2.188,2.641
			c-4.231,6.633-8.065,13.498-11.576,20.666c2.888,3.029,5.877,5.975,9.048,8.719c7.357-3.379,14.505-7.321,21.19-11.517
			c1.035,0.759,2.068,1.517,3.109,2.27c0.055-0.278,0.128-0.55,0.173-0.832C59.999,143.938,52.754,133.939,42.12,132.245z"/>
	</g>
	<g>
		<path fill="#F2661D" d="M29.37,97.869c-2.063-1.848-4.415-3.169-6.891-3.98c0.11,1.135,0.241,2.271,0.411,3.403
			c-7.149,3.288-14.087,6.987-20.919,11.113c0.79,4.11,1.708,8.204,2.888,12.228c8.016,1.141,16.161,1.694,24.052,1.784
			c0.46,1.197,0.918,2.396,1.387,3.591c0.196-0.203,0.406-0.392,0.597-0.604C38.077,117.379,37.396,105.051,29.37,97.869z"/>
	</g>
	<g>
		<path fill="#F2661D" d="M37.255,62.064c-0.736-2.67-1.997-5.054-3.641-7.077c-0.52,1.014-1.027,2.042-1.496,3.085
			c-7.791-1.104-15.627-1.749-23.606-1.979c-1.562,3.884-3.003,7.824-4.188,11.845c6.122,5.298,12.672,10.172,19.259,14.519
			c-0.262,1.257-0.525,2.511-0.777,3.77c0.275-0.064,0.553-0.11,0.829-0.186C34.018,83.181,40.117,72.446,37.255,62.064z"/>
	</g>
</g>
<g>
	<g>
		<path fill="none" stroke="#F9F9F9" stroke-width="0.5" d="M33.617,67.697l-0.938,0.607c-0.04-0.039-0.052-0.089-0.032-0.149
			c0.02-0.064,0.025-0.112,0.016-0.146c-0.078-0.331-0.239-0.633-0.48-0.907c-0.244-0.275-0.588-0.498-1.036-0.671
			c-0.431-0.164-0.836-0.174-1.218-0.03c-0.381,0.143-0.637,0.386-0.769,0.733c-0.08,0.205-0.11,0.394-0.099,0.572
			c0.013,0.175,0.064,0.363,0.155,0.557c0.091,0.196,0.25,0.419,0.475,0.672c0.224,0.252,0.529,0.552,0.912,0.901
			c0.358,0.342,0.648,0.653,0.861,0.931c0.215,0.282,0.37,0.551,0.461,0.813c0.092,0.258,0.134,0.512,0.119,0.758
			c-0.015,0.248-0.072,0.504-0.175,0.776c-0.115,0.298-0.285,0.578-0.516,0.839c-0.228,0.261-0.506,0.464-0.836,0.61
			c-0.328,0.148-0.705,0.227-1.125,0.237c-0.423,0.01-0.891-0.083-1.403-0.278c-1.13-0.432-1.899-1.155-2.305-2.166l0.96-0.788
			c0.037,0.043,0.042,0.099,0.016,0.166c-0.023,0.064-0.033,0.122-0.015,0.17c0.109,0.352,0.312,0.69,0.608,1.011
			c0.294,0.322,0.698,0.58,1.211,0.779c0.262,0.098,0.519,0.146,0.773,0.14c0.253-0.001,0.488-0.048,0.702-0.133
			c0.212-0.083,0.406-0.208,0.577-0.373c0.17-0.165,0.297-0.359,0.382-0.583c0.069-0.179,0.1-0.349,0.095-0.518
			c-0.005-0.169-0.054-0.341-0.146-0.523c-0.09-0.179-0.242-0.381-0.452-0.607c-0.208-0.224-0.49-0.5-0.846-0.827
			c-0.39-0.354-0.702-0.679-0.936-0.979c-0.233-0.296-0.408-0.573-0.522-0.834c-0.116-0.258-0.172-0.51-0.17-0.754
			c0.004-0.245,0.053-0.494,0.15-0.747c0.121-0.315,0.302-0.59,0.544-0.818c0.244-0.23,0.524-0.403,0.842-0.522
			c0.318-0.119,0.664-0.175,1.035-0.166c0.372,0.007,0.745,0.083,1.119,0.226c0.476,0.182,0.889,0.449,1.234,0.801
			C33.192,66.833,33.45,67.239,33.617,67.697z"/>
		<path fill="none" stroke="#F9F9F9" stroke-width="0.5" d="M35.361,67.16l6.069,2.32l-0.338,0.883l-2.578-0.983l-3.006,7.857
			l-1.009-0.384l3.004-7.86l-2.478-0.948L35.361,67.16z"/>
		<path fill="none" stroke="#F9F9F9" stroke-width="0.5" d="M38.81,78.499l6.477-7.702l0.113,0.042l-0.034,10.169l-1.009-0.387
			l0.007-2.918l-2.772-1.06l-1.815,2.229L38.81,78.499z M44.429,76.859l0.041-3.807l-2.395,2.907L44.429,76.859z"/>
		<path fill="none" stroke="#F9F9F9" stroke-width="0.5" d="M46.298,81.363l3.337-8.729L50.587,73l1.194,7.875l2.482-6.487
			l1.034,0.397c-0.02,0.056-0.06,0.112-0.117,0.164c-0.058,0.053-0.099,0.113-0.125,0.176l-3.197,8.366l-0.771-0.295l-1.229-8.34
			l-2.625,6.865L46.298,81.363z"/>
		<path fill="none" stroke="#F9F9F9" stroke-width="0.5" d="M56.696,75.333l2.031,0.778c0.749,0.285,1.289,0.609,1.627,0.975
			c0.339,0.364,0.577,0.793,0.72,1.287c0.145,0.493,0.184,1.038,0.114,1.634c-0.066,0.594-0.229,1.232-0.49,1.915
			c-0.258,0.673-0.574,1.244-0.945,1.71c-0.371,0.468-0.777,0.834-1.215,1.1C58.1,85,57.609,85.14,57.067,85.159
			c-0.542,0.016-1.159-0.105-1.849-0.369l-1.863-0.713L56.696,75.333z M57.308,76.5l-2.737,7.161l0.89,0.341
			c0.994,0.379,1.835,0.354,2.524-0.073c0.689-0.427,1.25-1.209,1.683-2.34c0.428-1.146,0.558-2.12,0.394-2.924
			c-0.167-0.802-0.735-1.391-1.71-1.762L57.308,76.5z"/>
		<path fill="none" stroke="#F9F9F9" stroke-width="0.5" d="M62.465,81.958l5.045,1.928l-0.357,0.939l-5.045-1.928L62.465,81.958z"
			/>
		<path fill="none" stroke="#F9F9F9" stroke-width="0.5" d="M70.651,80.668l1.104,0.424c0.011,0.005,0.013,0.015,0.005,0.035
			c-0.016,0.038-0.054,0.083-0.124,0.137c-0.07,0.053-0.133,0.129-0.191,0.224l-2.023,5.292c-0.186,0.487-0.284,0.881-0.292,1.185
			c-0.008,0.302,0.04,0.571,0.142,0.81c0.101,0.237,0.249,0.442,0.446,0.614c0.199,0.172,0.424,0.316,0.676,0.435
			c0.27,0.08,0.533,0.129,0.79,0.138c0.261,0.013,0.509-0.036,0.751-0.152c0.24-0.116,0.464-0.292,0.665-0.526
			c0.204-0.233,0.4-0.603,0.594-1.109l2.18-5.699l0.938,0.36l-2.17,5.673c-0.217,0.569-0.464,1.027-0.739,1.375
			c-0.277,0.342-0.595,0.59-0.957,0.754c-0.363,0.164-0.741,0.242-1.135,0.241c-0.398,0-0.807-0.082-1.238-0.249
			c-0.42-0.16-0.778-0.372-1.074-0.635c-0.294-0.262-0.517-0.568-0.67-0.915c-0.149-0.345-0.224-0.728-0.22-1.144
			c0.004-0.415,0.124-0.932,0.359-1.548L70.651,80.668z"/>
		<path fill="none" stroke="#F9F9F9" stroke-width="0.5" d="M77.783,83.396l2.802,1.072c0.485,0.183,0.875,0.406,1.167,0.662
			c0.292,0.255,0.505,0.542,0.636,0.855c0.133,0.315,0.197,0.639,0.188,0.979c-0.009,0.341-0.065,0.683-0.174,1.024
			c-0.146,0.332-0.332,0.625-0.551,0.875c-0.22,0.253-0.474,0.45-0.768,0.581c-0.293,0.136-0.628,0.204-1.008,0.203
			c-0.381-0.001-0.807-0.092-1.283-0.277l-1.864-0.711l-1.472,3.851l-1.01-0.382L77.783,83.396z M78.437,84.707L77.26,87.79
			l1.752,0.669c0.635,0.245,1.137,0.28,1.509,0.105c0.372-0.175,0.66-0.484,0.861-0.931c0.064-0.222,0.097-0.442,0.099-0.66
			c0.005-0.218-0.039-0.425-0.125-0.618c-0.087-0.194-0.223-0.375-0.412-0.542c-0.184-0.169-0.435-0.311-0.74-0.429L78.437,84.707z"
			/>
	</g>
	<g>
		<path fill="#F9F8F7" d="M33.617,67.697l-0.938,0.607c-0.04-0.039-0.052-0.089-0.032-0.149c0.02-0.064,0.025-0.112,0.016-0.146
			c-0.078-0.331-0.239-0.633-0.48-0.907c-0.244-0.275-0.588-0.498-1.036-0.671c-0.431-0.164-0.836-0.174-1.218-0.03
			c-0.381,0.143-0.637,0.386-0.769,0.733c-0.08,0.205-0.11,0.394-0.099,0.572c0.013,0.175,0.064,0.363,0.155,0.557
			c0.091,0.196,0.25,0.419,0.475,0.672c0.224,0.252,0.529,0.552,0.912,0.901c0.358,0.342,0.648,0.653,0.861,0.931
			c0.215,0.282,0.37,0.551,0.461,0.813c0.092,0.258,0.134,0.512,0.119,0.758c-0.015,0.248-0.072,0.504-0.175,0.776
			c-0.115,0.298-0.285,0.578-0.516,0.839c-0.228,0.261-0.506,0.464-0.836,0.61c-0.328,0.148-0.705,0.227-1.125,0.237
			c-0.423,0.01-0.891-0.083-1.403-0.278c-1.13-0.432-1.899-1.155-2.305-2.166l0.96-0.788c0.037,0.043,0.042,0.099,0.016,0.166
			c-0.023,0.064-0.033,0.122-0.015,0.17c0.109,0.352,0.312,0.69,0.608,1.011c0.294,0.322,0.698,0.58,1.211,0.779
			c0.262,0.098,0.519,0.146,0.773,0.14c0.253-0.001,0.488-0.048,0.702-0.133c0.212-0.083,0.406-0.208,0.577-0.373
			c0.17-0.165,0.297-0.359,0.382-0.583c0.069-0.179,0.1-0.349,0.095-0.518c-0.005-0.169-0.054-0.341-0.146-0.523
			c-0.09-0.179-0.242-0.381-0.452-0.607c-0.208-0.224-0.49-0.5-0.846-0.827c-0.39-0.354-0.702-0.679-0.936-0.979
			c-0.233-0.296-0.408-0.573-0.522-0.834c-0.116-0.258-0.172-0.51-0.17-0.754c0.004-0.245,0.053-0.494,0.15-0.747
			c0.121-0.315,0.302-0.59,0.544-0.818c0.244-0.23,0.524-0.403,0.842-0.522c0.318-0.119,0.664-0.175,1.035-0.166
			c0.372,0.007,0.745,0.083,1.119,0.226c0.476,0.182,0.889,0.449,1.234,0.801C33.192,66.833,33.45,67.239,33.617,67.697z"/>
		<path fill="#F9F8F7" d="M35.361,67.16l6.069,2.32l-0.338,0.883l-2.578-0.983l-3.006,7.857l-1.009-0.384l3.004-7.86l-2.478-0.948
			L35.361,67.16z"/>
		<path fill="#F9F8F7" d="M38.81,78.499l6.477-7.702l0.113,0.042l-0.034,10.169l-1.009-0.387l0.007-2.918l-2.772-1.06l-1.815,2.229
			L38.81,78.499z M44.429,76.859l0.041-3.807l-2.395,2.907L44.429,76.859z"/>
		<path fill="#F9F8F7" d="M46.298,81.363l3.337-8.729L50.587,73l1.194,7.875l2.482-6.487l1.034,0.397
			c-0.02,0.056-0.06,0.112-0.117,0.164c-0.058,0.053-0.099,0.113-0.125,0.176l-3.197,8.366l-0.771-0.295l-1.229-8.34l-2.625,6.865
			L46.298,81.363z"/>
		<path fill="#F9F8F7" d="M56.696,75.333l2.031,0.778c0.749,0.285,1.289,0.609,1.627,0.975c0.339,0.364,0.577,0.793,0.72,1.287
			c0.145,0.493,0.184,1.038,0.114,1.634c-0.066,0.594-0.229,1.232-0.49,1.915c-0.258,0.673-0.574,1.244-0.945,1.71
			c-0.371,0.468-0.777,0.834-1.215,1.1C58.1,85,57.609,85.14,57.067,85.159c-0.542,0.016-1.159-0.105-1.849-0.369l-1.863-0.713
			L56.696,75.333z M57.308,76.5l-2.737,7.161l0.89,0.341c0.994,0.379,1.835,0.354,2.524-0.073c0.689-0.427,1.25-1.209,1.683-2.34
			c0.428-1.146,0.558-2.12,0.394-2.924c-0.167-0.802-0.735-1.391-1.71-1.762L57.308,76.5z"/>
		<path fill="#F9F8F7" d="M62.465,81.958l5.045,1.928l-0.357,0.939l-5.045-1.928L62.465,81.958z"/>
		<path fill="#F9F8F7" d="M70.651,80.668l1.104,0.424c0.011,0.005,0.013,0.015,0.005,0.035c-0.016,0.038-0.054,0.083-0.124,0.137
			c-0.07,0.053-0.133,0.129-0.191,0.224l-2.023,5.292c-0.186,0.487-0.284,0.881-0.292,1.185c-0.008,0.302,0.04,0.571,0.142,0.81
			c0.101,0.237,0.249,0.442,0.446,0.614c0.199,0.172,0.424,0.316,0.676,0.435c0.27,0.08,0.533,0.129,0.79,0.138
			c0.261,0.013,0.509-0.036,0.751-0.152c0.24-0.116,0.464-0.292,0.665-0.526c0.204-0.233,0.4-0.603,0.594-1.109l2.18-5.699
			l0.938,0.36l-2.17,5.673c-0.217,0.569-0.464,1.027-0.739,1.375c-0.277,0.342-0.595,0.59-0.957,0.754
			c-0.363,0.164-0.741,0.242-1.135,0.241c-0.398,0-0.807-0.082-1.238-0.249c-0.42-0.16-0.778-0.372-1.074-0.635
			c-0.294-0.262-0.517-0.568-0.67-0.915c-0.149-0.345-0.224-0.728-0.22-1.144c0.004-0.415,0.124-0.932,0.359-1.548L70.651,80.668z"
			/>
		<path fill="#F9F8F7" d="M77.783,83.396l2.802,1.072c0.485,0.183,0.875,0.406,1.167,0.662c0.292,0.255,0.505,0.542,0.636,0.855
			c0.133,0.315,0.197,0.639,0.188,0.979c-0.009,0.341-0.065,0.683-0.174,1.024c-0.146,0.332-0.332,0.625-0.551,0.875
			c-0.22,0.253-0.474,0.45-0.768,0.581c-0.293,0.136-0.628,0.204-1.008,0.203c-0.381-0.001-0.807-0.092-1.283-0.277l-1.864-0.711
			l-1.472,3.851l-1.01-0.382L77.783,83.396z M78.437,84.707L77.26,87.79l1.752,0.669c0.635,0.245,1.137,0.28,1.509,0.105
			c0.372-0.175,0.66-0.484,0.861-0.931c0.064-0.222,0.097-0.442,0.099-0.66c0.005-0.218-0.039-0.425-0.125-0.618
			c-0.087-0.194-0.223-0.375-0.412-0.542c-0.184-0.169-0.435-0.311-0.74-0.429L78.437,84.707z"/>
	</g>
</g>
</svg>
