<?xml version="1.0" encoding="utf-8"?>
<!-- Generator: Adobe Illustrator 15.0.0, SVG Export Plug-In . SVG Version: 6.00 Build 0)  -->
<!DOCTYPE svg PUBLIC "-//W3C//DTD SVG 1.1//EN" "http://www.w3.org/Graphics/SVG/1.1/DTD/svg11.dtd">
<svg version="1.1" id="Layer_1" xmlns="http://www.w3.org/2000/svg" xmlns:xlink="http://www.w3.org/1999/xlink" x="0px" y="0px"
	 width="117.719px" height="110.25px" viewBox="0 0 117.719 110.25" enable-background="new 0 0 117.719 110.25"
	 xml:space="preserve">
<g>
	<g>
		<g>
			<path fill="#515151" d="M88.061,31.35c2.809-7.351,5.177-14.849,7.17-22.578c-3.439-2.385-6.961-4.666-10.619-6.713
				C78.087,6.852,71.88,12.156,66.179,17.614C65.013,17.081,88.975,32.039,88.061,31.35z"/>
		</g>
		<g>
			<path fill="#515151" d="M93.361,69.242c7.763-1.293,15.324-2.43,22.999-4.617c0.318-4.174,0.613-8.973,0.53-13.164
				c-7.434-3.208-15.146-5.883-22.737-8.043C94.024,42.143,93.229,70.38,93.361,69.242z"/>
		</g>
		<g>
			<path fill="#515151" d="M63.346,92.968c6.014,9.407,10.42,11.778,16.188,17.297c3.762-1.836,8.501-3.701,12.075-5.89
				C90.62,96.34,88.001,88.24,86.028,80.6C87.062,79.843,62.297,93.428,63.346,92.968z"/>
		</g>
		<g>
			<path fill="#515151" d="M27.702,79.061c-2.669,7.402-5.997,16.05-7.843,23.814c3.485,2.318,8.804,5.398,12.5,7.375
				c6.433-4.914,11.883-12.307,17.479-17.869C51.014,92.892,26.774,78.389,27.702,79.061z"/>
		</g>
		<g>
			<path fill="#515151" d="M21.685,41.277c-7.735,1.438-15.371,3.329-23.003,5.661c-0.238,4.179-0.348,8.372-0.186,12.561
				c7.491,3.065,15.256,5.595,22.885,7.61C21.534,68.384,21.796,40.137,21.685,41.277z"/>
		</g>
		<g>
			<path fill="#515151" d="M51.247,16.987C46.095,11.039,40.605,5.407,34.735,0c-3.727,1.907-7.399,3.933-10.932,6.188
				c1.141,8.016,2.884,15.992,5,23.594C27.781,30.558,52.286,16.507,51.247,16.987z"/>
		</g>
	</g>
	<g>
		<path fill="#515151" d="M89.89,32.945C77.755,15.144,53.484,10.552,35.685,22.688c-17.803,12.137-22.394,36.405-10.26,54.207
			C37.562,94.695,61.831,99.289,79.633,87.15C97.434,75.014,102.026,50.746,89.89,32.945z M63.654,63.796
			c-4.886,3.332-11.546,2.071-14.876-2.813c-3.329-4.886-2.07-11.544,2.815-14.875c4.885-3.332,11.544-2.07,14.876,2.815
			C69.798,53.806,68.54,60.466,63.654,63.796z"/>
	</g>
	<g>
		<path fill="#FFFFFF" d="M81.837,26.689l-0.666,0.998l-5.043-0.604l2.603,4.261l-0.599,0.898l-3.23-5.347l-3.069-2.048l0.635-0.949
			l3.068,2.048L81.837,26.689z"/>
		<path fill="#FFFFFF" d="M67.894,30.476c0.283-0.424,0.637-0.744,1.062-0.958c0.424-0.214,0.896-0.327,1.414-0.337
			c0.518-0.009,1.067,0.085,1.65,0.282c0.584,0.197,1.175,0.495,1.774,0.895c0.598,0.4,1.097,0.833,1.496,1.297
			c0.397,0.465,0.687,0.936,0.859,1.413c0.174,0.477,0.239,0.953,0.192,1.427s-0.207,0.919-0.485,1.335
			c-0.245,0.366-0.55,0.654-0.92,0.865c-0.368,0.211-0.802,0.34-1.296,0.388c-0.495,0.049-1.037-0.027-1.624-0.227
			c-0.589-0.201-1.229-0.53-1.918-0.991c-0.748-0.5-1.326-1-1.73-1.499c-0.406-0.5-0.682-0.984-0.826-1.453
			c-0.144-0.469-0.177-0.909-0.102-1.321C67.522,31.181,67.671,30.809,67.894,30.476z M70.321,30.215
			c-0.725,0.077-1.244,0.351-1.561,0.823c-0.147,0.223-0.246,0.474-0.293,0.752c-0.049,0.278-0.01,0.587,0.111,0.926
			c0.122,0.339,0.354,0.696,0.691,1.071c0.338,0.376,0.823,0.774,1.456,1.196c0.613,0.411,1.158,0.689,1.632,0.838
			c0.473,0.147,0.885,0.21,1.235,0.188c0.351-0.023,0.644-0.096,0.877-0.22c0.232-0.124,0.425-0.299,0.574-0.522
			c0.179-0.25,0.289-0.516,0.334-0.798c0.043-0.281,0.018-0.592-0.082-0.932c-0.1-0.339-0.301-0.7-0.612-1.08
			c-0.312-0.381-0.772-0.777-1.39-1.188c-0.574-0.383-1.121-0.662-1.644-0.836C71.134,30.258,70.689,30.186,70.321,30.215z"/>
		<path fill="#FFFFFF" d="M73.327,39.44l-0.658,0.986c-0.006,0.008-0.019,0.007-0.033-0.004c-0.032-0.022-0.069-0.073-0.106-0.152
			c-0.036-0.079-0.097-0.158-0.177-0.235L67.64,36.89c-0.434-0.289-0.797-0.472-1.09-0.547c-0.291-0.074-0.565-0.089-0.82-0.041
			c-0.253,0.046-0.484,0.146-0.695,0.3c-0.211,0.154-0.401,0.342-0.573,0.564c-0.142,0.244-0.244,0.49-0.312,0.738
			s-0.073,0.503-0.016,0.767c0.061,0.262,0.183,0.517,0.365,0.766c0.184,0.249,0.5,0.522,0.948,0.823l5.075,3.386l-0.558,0.836
			l-5.055-3.372c-0.509-0.339-0.896-0.681-1.174-1.026c-0.273-0.345-0.449-0.712-0.527-1.1c-0.076-0.388-0.07-0.775,0.02-1.161
			s0.26-0.77,0.518-1.152c0.248-0.374,0.534-0.676,0.854-0.906c0.323-0.23,0.67-0.381,1.042-0.451
			c0.371-0.071,0.759-0.058,1.162,0.038c0.406,0.096,0.885,0.327,1.434,0.693L73.327,39.44z"/>
	</g>
</g>
</svg>
