<?xml version="1.0" encoding="utf-8"?>
<!-- Generator: Adobe Illustrator 16.0.0, SVG Export Plug-In . SVG Version: 6.00 Build 0)  -->
<!DOCTYPE svg PUBLIC "-//W3C//DTD SVG 1.1//EN" "http://www.w3.org/Graphics/SVG/1.1/DTD/svg11.dtd">
<svg version="1.1" id="Layer_1" xmlns="http://www.w3.org/2000/svg" xmlns:xlink="http://www.w3.org/1999/xlink" x="0px" y="0px"
	 width="292px" height="294px" viewBox="0 0 292 294" style="enable-background:new 0 0 292 294;" xml:space="preserve">
<style type="text/css">
<![CDATA[
	.st0{fill:#F2661D;}
	.st1{fill:#FCFCFC;}
]]>
</style>
<g>
	<path class="st0" d="M27.223,141.89c-0.215,3.09-0.158,6.195-0.117,9.29c-7.347,2.548-14.772,5.546-21.907,8.962
		c0.33,4.182,0.932,8.333,1.623,12.463c7.973,1.907,15.83,3.318,23.797,4.174c0.681,3.025,1.663,5.965,2.544,8.935
		c1.061,2.907,2.03,5.853,3.288,8.686c-6.031,5.065-11.748,10.462-17.24,16.237c1.832,3.764,3.806,7.472,6.005,11.039
		c8.05-1.026,16.009-2.614,23.685-4.633c1.81,2.512,3.615,5.036,5.633,7.387c1.938,2.42,4.058,4.682,6.164,6.956
		c-3.703,6.826-7.144,14.015-10.147,21.376c3.075,2.847,6.298,5.521,9.583,8.118c7.202-3.992,13.937-8.208,20.413-12.95
		c2.551,1.759,5.235,3.308,7.904,4.882c2.728,1.465,5.453,2.938,8.28,4.211c-1.048,7.825-1.597,15.595-1.787,23.624
		c3.901,1.512,7.845,2.916,11.865,4.091c5.247-6.184,10.072-12.739,14.376-19.377c3.029,0.653,6.071,1.245,9.142,1.67
		c3.062,0.441,6.149,0.779,9.239,0.965c1.854,7.597,4.146,15.209,6.884,22.649c4.194,0.074,8.391-0.135,12.567-0.466
		c2.65-7.699,4.771-15.473,6.367-23.293c3.067-0.422,6.104-1.076,9.124-1.743c3.018-0.711,6.01-1.504,8.958-2.456
		c4.503,6.497,9.323,12.585,14.59,18.661c3.888-1.521,7.767-3.11,11.52-4.97c-0.271-8.079-1.143-16.216-2.411-23.995
		c2.653-1.597,5.338-3.148,7.868-4.935c2.597-1.693,5.034-3.614,7.496-5.495c6.441,4.306,13.32,8.445,20.343,12.083
		c3.132-2.792,6.089-5.761,8.972-8.797c-3.288-7.523-6.892-14.642-11.004-21.517c1.993-2.376,3.778-4.913,5.583-7.427
		c1.732-2.565,3.425-5.162,4.963-7.852c7.693,1.758,15.374,3.018,23.363,3.945c1.854-3.749,3.612-7.545,5.157-11.439
		c-5.713-5.804-11.733-11.184-17.982-16.1c0.958-2.945,1.798-5.928,2.516-8.942c0.68-3.017,1.382-6.042,1.807-9.111
		c7.773-1.135,15.515-2.716,23.199-4.749c0.434-4.167,0.677-8.364,0.694-12.555c-7.395-3.355-14.992-6.188-22.584-8.504
		c-0.222-3.089-0.436-6.184-0.91-9.245c-0.383-3.075-0.982-6.118-1.596-9.152c6.789-3.871,13.407-8.147,19.902-12.836
		c-1.164-4.015-2.411-7.999-3.896-11.908c-8.102-0.443-16.236-0.347-24.123,0.213c-1.323-2.805-2.652-5.599-4.182-8.299
		c-1.443-2.737-3.12-5.357-4.784-7.962c4.913-6.031,9.656-12.481,13.929-19.138c-2.479-3.385-5.168-6.608-7.937-9.753
		c-7.771,2.549-15.221,5.509-22.438,8.957c-2.168-2.209-4.538-4.217-6.886-6.237c-2.374-1.989-4.825-3.881-7.353-5.676
		c2.439-7.469,4.419-15.041,6.074-22.905c-3.565-2.187-7.19-4.28-10.916-6.185c-6.322,5.194-12.203,10.632-17.687,16.443
		c-2.84-1.242-5.743-2.319-8.668-3.34c-2.949-0.947-5.896-1.917-8.911-2.633c-0.409-7.858-1.276-15.671-2.578-23.544
		c-4.112-0.791-8.256-1.453-12.428-1.851c-4.023,7.029-7.558,14.387-10.566,21.686c-3.097-0.042-6.197-0.13-9.289,0.061
		c-3.101,0.073-6.182,0.434-9.266,0.733c-3.213-7.052-6.887-14.173-10.947-20.977c-4.128,0.731-8.199,1.701-12.245,2.758
		c-1.146,8.15-1.843,16.061-1.971,24.085c-2.935,0.993-5.811,2.141-8.654,3.37c-2.825,1.265-5.649,2.556-8.364,4.046
		c-5.572-5.498-11.521-10.767-17.762-15.657c-3.604,2.141-7.064,4.529-10.444,7.003c1.79,7.94,4.07,15.671,6.823,23.16
		c-2.37,1.994-4.645,4.103-6.84,6.287c-2.212,2.171-4.299,4.461-6.341,6.794c-7.177-3.09-14.59-5.8-22.235-8.148
		c-2.535,3.336-4.926,6.77-7.179,10.298c4.624,6.793,9.442,13.114,14.756,19.129c-1.508,2.708-2.817,5.513-4.132,8.316
		c-1.201,2.855-2.433,5.701-3.431,8.636c-7.877-0.322-15.701-0.168-23.685,0.392c-1.156,4.023-2.195,8.084-2.985,12.199
		c6.61,4.65,13.64,8.854,20.607,12.527C27.688,135.713,27.336,138.792,27.223,141.89z"/>
	<path class="st1" d="M136.481,149.152c-0.485-5.894,3.897-11.065,9.79-11.555c5.892-0.481,11.066,3.9,11.55,9.79
		c0.486,5.894-3.896,11.067-9.789,11.552C142.139,159.426,136.967,155.043,136.481,149.152z"/>
</g>
</svg>
