<?xml version="1.0" encoding="utf-8"?>
<!-- Generator: Adobe Illustrator 15.0.0, SVG Export Plug-In . SVG Version: 6.00 Build 0)  -->
<!DOCTYPE svg PUBLIC "-//W3C//DTD SVG 1.1//EN" "http://www.w3.org/Graphics/SVG/1.1/DTD/svg11.dtd">
<svg version="1.1" id="Layer_1" xmlns="http://www.w3.org/2000/svg" xmlns:xlink="http://www.w3.org/1999/xlink" x="0px" y="0px"
	 width="175px" height="178px" viewBox="0 0 175 178" enable-background="new 0 0 175 178" xml:space="preserve">
<path fill="#F2661D" d="M110.094,111.047c3.361-3.63,5.723-7.827,7.102-12.255l33.727-3.11l-3.207-25.208l-33.146,3.058
	c-1.604-2.87-3.674-5.543-6.217-7.898c-0.801-0.741-1.629-1.432-2.479-2.077l8.421-35.259l-24.717-5.711l-8.343,34.936
	c-4.213,0.7-8.307,2.232-12.011,4.601L50.003,49.148L35.794,69.391L55.108,82.43c-1.022,4.758-0.952,9.691,0.197,14.41
	l-27.046,22.454l16.218,19.524l26.13-21.692c5.109,2.918,10.825,4.312,16.51,4.205l8.996,26.177l23.297-7.673l-9.744-28.351
	C109.809,111.338,109.954,111.197,110.094,111.047z M86.518,103.286c-7.773,0-14.074-6.302-14.074-14.074
	c0-7.773,6.301-14.074,14.074-14.074s14.074,6.301,14.074,14.074C100.592,96.984,94.291,103.286,86.518,103.286z"/>
<path fill="#F2661D" d="M88.85,21.821c-37.24-1.152-68.363,28.101-69.515,65.341c-1.152,37.238,28.102,68.361,65.342,69.514
	c37.24,1.153,68.362-28.102,69.515-65.341C155.344,54.096,126.089,22.973,88.85,21.821z M85.83,139.609
	c-27.583,0-49.944-22.361-49.944-49.944s22.36-49.944,49.944-49.944c27.583,0,49.943,22.36,49.943,49.944
	C135.773,117.248,113.413,139.609,85.83,139.609z"/>
<g>
	<path fill="#F2661D" d="M114.04,28.823c0.299-7.863,0.138-15.727-0.452-23.685c-4.029-1.154-8.09-2.183-12.213-2.949
		c-4.643,6.632-8.818,13.648-12.466,20.646C87.633,22.706,115.127,29.182,114.04,28.823z"/>
	<path fill="#F2661D" d="M144.218,56.428c4.853-6.195,9.333-12.66,13.521-19.452c-2.586-3.298-5.272-6.512-8.163-9.551
		c-7.647,2.653-15.146,5.885-22.204,9.416C126.413,35.988,144.887,57.355,144.218,56.428z"/>
	<path fill="#F2661D" d="M152.479,96.48c7.562-2.172,14.984-4.782,22.358-7.831c-0.162-4.187-0.454-8.368-1.017-12.523
		c-7.748-2.336-15.719-4.112-23.506-5.392C150.04,69.487,152.479,97.629,152.479,96.48z"/>
	<path fill="#F2661D" d="M135.688,133.773c7.399,2.675,14.941,4.91,22.703,6.768c2.322-3.488,4.536-7.046,6.521-10.741
		c-4.909-6.436-10.322-12.547-15.883-18.149C149.539,110.477,135.014,134.702,135.688,133.773z"/>
	<path fill="#F2661D" d="M100.223,154.139c4.424,6.508,9.223,12.739,14.422,18.793c3.931-1.464,7.81-3.046,11.58-4.877
		c-0.203-8.093-1.006-16.218-2.225-24.016C125.104,143.387,99.131,154.496,100.223,154.139z"/>
	<path fill="#F2661D" d="M59.55,149.842c-0.23,7.865,0.003,15.729,0.665,23.682c4.04,1.115,8.111,2.106,12.242,2.836
		c4.58-6.672,8.692-13.727,12.278-20.758C86.009,155.72,58.458,149.492,59.55,149.842z"/>
	<path fill="#F2661D" d="M29.122,122.514c-4.798,6.238-9.219,12.743-13.346,19.574c2.617,3.273,5.334,6.464,8.253,9.477
		c7.622-2.722,15.089-6.021,22.117-9.615C47.109,142.79,28.442,121.591,29.122,122.514z"/>
	<path fill="#F2661D" d="M20.494,82.537c-7.544,2.24-14.939,4.917-22.287,8.033c0.201,4.187,0.531,8.363,1.13,12.515
		c7.77,2.265,15.755,3.97,23.555,5.177C23.178,109.509,20.485,81.39,20.494,82.537z"/>
	<path fill="#F2661D" d="M36.945,45.093c-7.424-2.609-14.986-4.776-22.765-6.56c-2.291,3.509-4.473,7.087-6.422,10.801
		c4.967,6.389,10.437,12.452,16.046,18.005C23.305,68.515,37.609,44.159,36.945,45.093z"/>
	<path fill="#F2661D" d="M72.225,24.406c-4.484-6.467-9.339-12.656-14.596-18.661c-3.913,1.499-7.777,3.118-11.534,4.983
		c0.276,8.088,1.153,16.206,2.441,23.994C47.442,35.383,73.31,24.039,72.225,24.406z"/>
</g>
<path fill="none" d="M26.334,95.333c0,30.928,25.272,52.492,56,56C113,154.834,140,130.428,140,99.5"/>
<g>
	<path fill="#FFFFFF" d="M31.707,95.501c0.357-0.596,0.617-1.444,0.59-2.345c-0.041-1.335-0.77-2.094-1.79-2.062
		c-0.93,0.028-1.469,0.586-1.937,1.966c-0.55,1.668-1.389,2.715-2.799,2.758c-1.574,0.048-2.784-1.221-2.845-3.186
		c-0.03-1.021,0.186-1.793,0.428-2.235l1.076,0.327c-0.186,0.321-0.45,1.005-0.422,1.92c0.042,1.38,0.883,1.88,1.572,1.858
		c0.945-0.028,1.392-0.658,1.889-2.069c0.608-1.729,1.407-2.61,2.892-2.655c1.561-0.048,2.96,1.051,3.033,3.436
		c0.029,0.975-0.238,2.049-0.582,2.6L31.707,95.501z"/>
	<path fill="#FFFFFF" d="M23.204,87.125c-0.058-0.636-0.085-1.465-0.006-2.512c0.097-1.286,0.467-2.205,1.051-2.763
		c0.519-0.503,1.277-0.791,2.175-0.724c0.912,0.069,1.609,0.393,2.095,0.94c0.68,0.758,0.97,1.893,0.874,3.164
		c-0.029,0.389-0.071,0.746-0.169,1.04l4.037,0.305l-0.098,1.301L23.204,87.125z M28.162,86.191
		c0.096-0.278,0.153-0.636,0.186-1.069c0.119-1.569-0.587-2.586-1.947-2.688c-1.346-0.102-2.062,0.807-2.168,2.228
		c-0.043,0.568-0.031,1.006,0.012,1.234L28.162,86.191z"/>
	<path fill="#FFFFFF" d="M24.117,77.943c0.015-0.67,0.119-1.629,0.296-2.495c0.279-1.367,0.728-2.209,1.395-2.701
		c0.54-0.395,1.276-0.55,2.055-0.391c1.293,0.264,1.992,1.264,2.134,2.366l0.044,0.009c0.418-0.695,1.217-1.007,2.293-1.031
		c1.448-0.041,2.451-0.081,2.875-0.208l-0.271,1.322c-0.327,0.102-1.209,0.15-2.498,0.163c-1.427,0.014-2.052,0.452-2.334,1.604
		l-0.246,1.205l4.291,0.877l-0.262,1.278L24.117,77.943z M28.889,77.588l0.268-1.308c0.279-1.366-0.293-2.387-1.424-2.618
		c-1.278-0.262-2.026,0.55-2.303,1.902c-0.126,0.617-0.17,1.052-0.156,1.284L28.889,77.588z"/>
	<path fill="#FFFFFF" d="M26.501,67.763l9.636,3.054l-0.398,1.258l-9.637-3.055L26.501,67.763z"/>
	<path fill="#FFFFFF" d="M36.754,68.657l-9.163-4.278l0.609-1.305l6.001-0.759c1.385-0.165,2.604-0.258,3.738-0.241l0.006-0.047
		c-1.274-0.463-2.402-0.956-3.829-1.623l-3.834-1.79l0.521-1.115l9.163,4.278l-0.559,1.196L33.4,63.713
		c-1.318,0.163-2.65,0.286-3.853,0.271l-0.006,0.047c1.188,0.472,2.295,0.972,3.818,1.683l3.915,1.828L36.754,68.657z"/>
	<path fill="#FFFFFF" d="M34.898,53.217l-1.777,2.509l-0.905-0.641l4.325-6.107l0.905,0.642l-1.785,2.521l7.342,5.2l-0.762,1.077
		L34.898,53.217z"/>
	<path fill="#FFFFFF" d="M41.165,44.178c0.404-0.495,0.966-1.106,1.755-1.798c0.97-0.851,1.878-1.248,2.685-1.237
		c0.723,0.005,1.467,0.33,2.06,1.006c0.604,0.688,0.875,1.407,0.838,2.138c-0.046,1.017-0.633,2.031-1.592,2.871
		c-0.293,0.257-0.573,0.483-0.849,0.625l2.67,3.044l-0.98,0.86L41.165,44.178z M45.36,46.982c0.264-0.131,0.554-0.346,0.881-0.633
		c1.184-1.038,1.392-2.257,0.491-3.284c-0.89-1.015-2.036-0.867-3.107,0.073c-0.429,0.375-0.727,0.696-0.855,0.89L45.36,46.982z"/>
	<path fill="#FFFFFF" d="M48.37,38.125l1.114-0.708l4.833,7.611l3.647-2.316l0.587,0.925l-4.762,3.023L48.37,38.125z"/>
	<path fill="#FFFFFF" d="M59.981,39.417l0.309,3.334l-1.237,0.54l-0.88-10.646l1.43-0.624l7.204,7.887l-1.278,0.558l-2.262-2.482
		L59.981,39.417z M62.625,37.151l-2.084-2.266c-0.47-0.515-0.848-1.005-1.219-1.481l-0.027,0.012
		c0.096,0.596,0.211,1.233,0.264,1.881l0.262,3.077L62.625,37.151z"/>
	<path fill="#FFFFFF" d="M68.113,39.514l-2.499-9.801l1.396-0.356l4.391,4.162c1.006,0.967,1.851,1.851,2.558,2.74l0.04-0.026
		c-0.45-1.279-0.783-2.464-1.173-3.991l-1.046-4.101l1.192-0.304l2.499,9.801l-1.279,0.327l-4.38-4.18
		c-0.962-0.917-1.901-1.87-2.652-2.809l-0.04,0.026c0.389,1.217,0.703,2.392,1.118,4.02l1.068,4.188L68.113,39.514z"/>
	<path fill="#FFFFFF" d="M77.667,37.265l-1.028-10.059l1.433-0.146L81.8,31.82c0.852,1.104,1.557,2.103,2.124,3.085l0.044-0.019
		c-0.257-1.331-0.412-2.552-0.572-4.119l-0.431-4.208l1.225-0.125l1.028,10.058l-1.313,0.134l-3.716-4.777
		c-0.815-1.048-1.604-2.128-2.208-3.167l-0.044,0.02c0.205,1.261,0.343,2.468,0.514,4.139l0.439,4.298L77.667,37.265z"/>
	<path fill="#FFFFFF" d="M88.732,26.388l0.134,10.11l-1.321,0.018l-0.134-10.11L88.732,26.388z"/>
	<path fill="#FFFFFF" d="M91.183,36.424l0.978-10.059l1.433,0.14l2.714,5.4c0.617,1.25,1.111,2.367,1.474,3.442l0.046-0.011
		c0.011-1.354,0.101-2.581,0.253-4.148l0.408-4.208l1.224,0.119l-0.977,10.058l-1.313-0.127l-2.698-5.414
		c-0.592-1.188-1.152-2.402-1.539-3.539l-0.046,0.011c-0.049,1.276-0.151,2.486-0.313,4.157l-0.418,4.298L91.183,36.424z"/>
	<path fill="#FFFFFF" d="M108.443,39.074c-0.623,0.069-1.839,0.09-3.159-0.257c-1.48-0.389-2.6-1.086-3.317-2.252
		c-0.628-1.034-0.807-2.478-0.406-4.001c0.767-2.917,3.345-4.52,6.624-3.658c1.132,0.298,1.967,0.781,2.334,1.095l-0.59,0.946
		c-0.458-0.384-1.065-0.73-2.052-0.989c-2.38-0.625-4.321,0.446-4.967,2.899c-0.652,2.481,0.443,4.336,2.735,4.939
		c0.827,0.217,1.424,0.25,1.752,0.181l0.768-2.917l-1.974-0.519l0.267-1.016l3.222,0.847L108.443,39.074z"/>
</g>
</svg>
