<?xml version="1.0" encoding="utf-8"?>
<!-- Generator: Adobe Illustrator 15.0.0, SVG Export Plug-In . SVG Version: 6.00 Build 0)  -->
<!DOCTYPE svg PUBLIC "-//W3C//DTD SVG 1.1//EN" "http://www.w3.org/Graphics/SVG/1.1/DTD/svg11.dtd">
<svg version="1.1" id="Layer_1" xmlns="http://www.w3.org/2000/svg" xmlns:xlink="http://www.w3.org/1999/xlink" x="0px" y="0px"
	 width="468.085px" height="465.085px" viewBox="0 0 468.085 465.085" enable-background="new 0 0 468.085 465.085"
	 xml:space="preserve">
<path fill="#F2661D" d="M234.053,22.095c-115.983,0-210.007,94.023-210.007,210.007c0,115.983,94.023,210.007,210.007,210.007
	S444.06,348.085,444.06,232.102C444.06,116.118,350.037,22.095,234.053,22.095z M233.23,381.417c-82.291,0-149-66.711-149-149
	c0-82.291,66.709-149,149-149c82.289,0,149,66.709,149,149C382.23,314.707,315.519,381.417,233.23,381.417z"/>
<g>
	<g>
		<path fill="#F2661D" d="M198.126,232.125c0-4.406,0.795-8.625,2.244-12.527L52.013,208.036
			c-5.443-0.424-10.199,3.646-10.623,9.088c-0.425,5.444,3.644,10.2,9.086,10.624l148.369,11.563
			C198.375,236.99,198.126,234.585,198.126,232.125z"/>
		<path fill="#F2661D" d="M234.125,196.126c4.457,0,8.72,0.815,12.66,2.295l11.598-148.827c0.426-5.442-3.646-10.199-9.09-10.623
			c-5.439-0.424-10.199,3.645-10.623,9.087L227.077,196.82C229.357,196.368,231.712,196.126,234.125,196.126z"/>
		<path fill="#F2661D" d="M209.612,205.254c3.275-3.022,6.961-5.315,10.859-6.9L128.057,81.121
			c-3.379-4.287-9.596-5.022-13.885-1.642c-4.285,3.378-5.022,9.596-1.643,13.883l92.373,117.182
			C206.272,208.666,207.838,206.891,209.612,205.254z"/>
		<path fill="#F2661D" d="M207.19,256.455c-3.081-3.222-5.44-6.865-7.095-10.733L84.549,340.236
			c-4.226,3.455-4.849,9.684-1.391,13.912c3.456,4.223,9.686,4.848,13.911,1.391l115.496-94.473
			C210.662,259.732,208.859,258.197,207.19,256.455z"/>
		<path fill="#F2661D" d="M258.386,257.987c-3.17,3.134-6.773,5.554-10.615,7.271l96.414,113.969
			c3.525,4.168,9.764,4.688,13.934,1.16c4.166-3.523,4.688-9.766,1.162-13.932L262.91,252.537
			C261.607,254.462,260.101,256.291,258.386,257.987z"/>
		<path fill="#F2661D" d="M260.279,208.053c3.029,3.271,5.331,6.951,6.924,10.846l117.037-92.666c4.278-3.389,5-9.607,1.609-13.889
			c-3.387-4.277-9.607-5.001-13.887-1.612L254.98,203.356C256.861,204.72,258.639,206.284,260.279,208.053z"/>
		<path fill="#F2661D" d="M418.361,236.585l-148.947-11.607c0.465,2.31,0.711,4.7,0.711,7.147c0,4.419-0.801,8.653-2.258,12.565
			l148.957,11.608c5.443,0.424,10.199-3.646,10.623-9.088C427.871,241.768,423.802,237.009,418.361,236.585z"/>
		<path fill="#F2661D" d="M234.125,268.125c-4.37,0-8.557-0.778-12.432-2.205l-11.571,148.488
			c-0.425,5.441,3.644,10.199,9.087,10.623s10.2-3.645,10.624-9.086l11.577-148.559
			C239.057,267.871,236.621,268.125,234.125,268.125z"/>
	</g>
	<path fill="#F2661D" d="M234.125,277.625c-25.088,0-45.499-20.41-45.499-45.5c0-25.089,20.411-45.499,45.499-45.499
		c25.087,0,45.5,20.411,45.5,45.499C279.625,257.212,259.212,277.625,234.125,277.625z M234.125,205.626
		c-14.612,0-26.499,11.887-26.499,26.499s11.887,26.5,26.499,26.5s26.5-11.888,26.5-26.5S248.737,205.626,234.125,205.626z"/>
</g>
<circle fill="#F2661D" cx="234.068" cy="232.115" r="13.416"/>
<g>
	<path fill="#FFFFFF" d="M81.256,215.343l-0.304,4.113l-1.795-0.131l-1.76-4.266l-1.166-0.086l1.846,4.317
		c-0.294,0.049-0.565,0.15-0.812,0.301c-0.246,0.151-0.46,0.337-0.643,0.554c-0.182,0.216-0.327,0.454-0.436,0.711
		c-0.11,0.259-0.173,0.523-0.194,0.792c-0.059,0.798,0.135,1.46,0.583,1.983c0.448,0.525,1.221,0.827,2.317,0.91l2.752,0.202
		l0.69-9.32L81.256,215.343z M80.642,223.676l-1.803-0.136c-0.338-0.025-0.623-0.091-0.854-0.198
		c-0.233-0.107-0.414-0.242-0.547-0.401c-0.133-0.159-0.232-0.341-0.297-0.547s-0.09-0.429-0.071-0.667
		c0.036-0.489,0.214-0.869,0.534-1.141c0.32-0.273,0.812-0.384,1.478-0.335l1.803,0.134L80.642,223.676z"/>
	<polygon fill="#FFFFFF" points="69.068,215.376 73.751,215.723 73.499,219.147 69.595,218.858 69.521,219.846 73.427,220.135 
		73.2,223.202 68.473,222.852 68.405,223.779 74.119,224.202 74.807,214.868 69.137,214.45 	"/>
	<path fill="#FFFFFF" d="M61.579,214.806l4.502,0.333l-0.584,7.898c-0.006,0.09-0.034,0.178-0.087,0.264
		c-0.051,0.087-0.08,0.166-0.085,0.235l1.211,0.089l0.689-9.319l-5.579-0.413L61.579,214.806z"/>
	<polygon fill="#FFFFFF" points="54.113,214.27 58.793,214.617 58.542,218.042 54.639,217.754 54.564,218.741 58.469,219.03 
		58.242,222.096 53.515,221.746 53.445,222.672 59.161,223.095 59.852,213.761 54.181,213.343 	"/>
	<path fill="#FFFFFF" d="M50.89,215.833l-2.961-0.217l-0.83-2.8l-1.078-0.08l2.888,9.75l0.12,0.009l3.993-9.241l-1.032-0.077
		L50.89,215.833z M49.16,220.1l-1.052-3.659l2.514,0.186L49.16,220.1z"/>
	<path fill="#FFFFFF" d="M42.087,212.295c-0.548-0.039-1.024,0.006-1.424,0.135c-0.4,0.132-0.739,0.314-1.01,0.55
		c-0.274,0.235-0.482,0.51-0.625,0.826c-0.145,0.315-0.228,0.632-0.252,0.951c-0.022,0.289-0.002,0.554,0.054,0.794
		c0.057,0.24,0.168,0.472,0.332,0.694c0.165,0.223,0.39,0.437,0.676,0.644c0.284,0.208,0.651,0.422,1.094,0.646
		c0.465,0.226,0.842,0.426,1.131,0.602c0.287,0.178,0.503,0.346,0.646,0.507c0.143,0.162,0.247,0.324,0.31,0.489
		s0.086,0.358,0.07,0.577c-0.027,0.369-0.203,0.675-0.526,0.923c-0.323,0.247-0.716,0.354-1.175,0.319
		c-0.479-0.034-0.874-0.15-1.186-0.343c-0.31-0.193-0.552-0.437-0.72-0.73c-0.018-0.031-0.027-0.081-0.027-0.145
		c0.001-0.065-0.024-0.11-0.073-0.133l-0.724,0.849c0.293,0.392,0.655,0.709,1.087,0.943c0.434,0.238,0.906,0.376,1.413,0.413
		c0.401,0.028,0.779-0.005,1.137-0.104c0.358-0.1,0.672-0.251,0.943-0.457s0.49-0.452,0.657-0.741s0.263-0.603,0.288-0.941
		c0.019-0.27-0.005-0.522-0.072-0.756c-0.069-0.236-0.195-0.461-0.379-0.676c-0.186-0.214-0.433-0.43-0.742-0.647
		c-0.311-0.22-0.703-0.442-1.177-0.667c-0.438-0.213-0.786-0.397-1.051-0.551c-0.264-0.157-0.466-0.307-0.605-0.452
		c-0.138-0.145-0.236-0.299-0.29-0.457c-0.052-0.16-0.072-0.335-0.058-0.523c0.018-0.239,0.084-0.464,0.199-0.67
		c0.116-0.207,0.265-0.382,0.446-0.523c0.181-0.142,0.391-0.251,0.633-0.329c0.242-0.077,0.502-0.105,0.781-0.085
		c0.549,0.041,1.01,0.172,1.385,0.396c0.375,0.223,0.665,0.486,0.873,0.793c0.029,0.043,0.038,0.097,0.033,0.168
		c-0.005,0.071,0.015,0.122,0.064,0.156l0.693-1.033C44.238,212.855,43.294,212.386,42.087,212.295z"/>
	<polygon fill="#FFFFFF" points="31.671,212.611 36.354,212.957 36.102,216.381 32.198,216.093 32.124,217.08 36.028,217.369 
		35.802,220.437 31.075,220.084 31.006,221.014 36.722,221.436 37.409,212.104 31.739,211.684 	"/>
</g>
<g>
	<path fill="#FFFFFF" d="M388.904,248.197l0.344-4.111l1.793,0.149l1.719,4.283l1.166,0.097l-1.807-4.335
		c0.297-0.045,0.568-0.144,0.816-0.29c0.246-0.152,0.463-0.336,0.646-0.55c0.187-0.215,0.332-0.45,0.444-0.708
		c0.11-0.259,0.179-0.521,0.201-0.79c0.065-0.797-0.121-1.461-0.562-1.989c-0.447-0.527-1.213-0.838-2.311-0.932l-2.751-0.229
		l-0.776,9.313L388.904,248.197z M389.599,239.869l1.801,0.155c0.338,0.026,0.623,0.095,0.852,0.204
		c0.233,0.109,0.412,0.247,0.543,0.406c0.131,0.162,0.229,0.344,0.291,0.552c0.062,0.206,0.086,0.431,0.065,0.666
		c-0.042,0.487-0.222,0.868-0.545,1.137c-0.321,0.271-0.815,0.378-1.481,0.322l-1.801-0.153L389.599,239.869z"/>
	<polygon fill="#FFFFFF" points="401.091,248.28 396.412,247.889 396.699,244.464 400.597,244.792 400.679,243.807 396.781,243.481 
		397.037,240.417 401.757,240.811 401.835,239.884 396.126,239.408 395.347,248.735 401.013,249.207 	"/>
	<path fill="#FFFFFF" d="M408.574,248.923l-4.498-0.377l0.66-7.893c0.008-0.09,0.035-0.178,0.09-0.263
		c0.053-0.087,0.082-0.164,0.088-0.233l-1.209-0.103l-0.781,9.312l5.578,0.469L408.574,248.923z"/>
	<polygon fill="#FFFFFF" points="416.037,249.533 411.359,249.14 411.64,245.716 415.542,246.042 415.626,245.058 411.724,244.73 
		411.982,241.667 416.707,242.063 416.783,241.136 411.072,240.66 410.292,249.984 415.958,250.458 	"/>
	<path fill="#FFFFFF" d="M419.273,248l2.959,0.244l0.805,2.811l1.076,0.09l-2.795-9.777l-0.119-0.011l-4.084,9.203l1.033,0.087
		L419.273,248z M421.044,243.75l1.016,3.67l-2.512-0.211L421.044,243.75z"/>
	<path fill="#FFFFFF" d="M428.041,251.625c0.547,0.043,1.025,0.004,1.426-0.123s0.742-0.306,1.018-0.541
		c0.273-0.229,0.482-0.504,0.633-0.819c0.146-0.312,0.232-0.629,0.26-0.947c0.025-0.289,0.008-0.554-0.045-0.795
		c-0.055-0.239-0.164-0.474-0.326-0.696c-0.162-0.224-0.387-0.441-0.67-0.65c-0.281-0.211-0.646-0.428-1.088-0.655
		c-0.461-0.231-0.838-0.435-1.125-0.614c-0.285-0.181-0.5-0.351-0.643-0.515c-0.141-0.161-0.242-0.324-0.305-0.49
		c-0.061-0.165-0.082-0.358-0.062-0.579c0.027-0.367,0.207-0.672,0.533-0.916s0.719-0.35,1.178-0.309
		c0.479,0.039,0.875,0.158,1.184,0.354c0.309,0.196,0.547,0.441,0.713,0.738c0.02,0.029,0.027,0.08,0.025,0.145
		c0,0.064,0.02,0.11,0.068,0.135l0.734-0.844c-0.289-0.395-0.646-0.715-1.078-0.953c-0.432-0.24-0.9-0.385-1.41-0.426
		c-0.396-0.031-0.777-0.002-1.135,0.094c-0.357,0.097-0.676,0.244-0.949,0.447c-0.271,0.203-0.496,0.447-0.662,0.733
		c-0.174,0.288-0.271,0.601-0.299,0.938c-0.021,0.271-0.002,0.522,0.062,0.758c0.068,0.234,0.191,0.461,0.375,0.678
		c0.182,0.217,0.43,0.436,0.734,0.654c0.311,0.223,0.699,0.447,1.172,0.68c0.436,0.219,0.781,0.404,1.045,0.561
		c0.264,0.16,0.465,0.312,0.6,0.459c0.137,0.146,0.236,0.301,0.287,0.459c0.051,0.16,0.068,0.336,0.053,0.524
		c-0.02,0.237-0.088,0.462-0.205,0.667c-0.117,0.206-0.27,0.378-0.451,0.518c-0.182,0.142-0.395,0.248-0.637,0.326
		c-0.242,0.071-0.502,0.098-0.783,0.074c-0.547-0.045-1.006-0.18-1.379-0.408c-0.373-0.227-0.662-0.492-0.865-0.801
		c-0.027-0.044-0.037-0.098-0.031-0.167c0.006-0.073-0.016-0.125-0.062-0.157l-0.701,1.025
		C425.896,251.042,426.833,251.52,428.041,251.625z"/>
	<polygon fill="#FFFFFF" points="438.458,251.408 433.781,251.017 434.066,247.595 437.966,247.921 438.052,246.935 
		434.148,246.608 434.406,243.542 439.128,243.941 439.207,243.012 433.496,242.535 432.716,251.86 438.382,252.333 	"/>
</g>
<g>
	<path fill="#FFFFFF" d="M217.852,389.283l4.112,0.305l-0.131,1.795l-4.267,1.758l-0.086,1.166l4.317-1.844
		c0.049,0.293,0.15,0.564,0.301,0.812c0.151,0.244,0.337,0.461,0.554,0.643c0.216,0.184,0.454,0.328,0.711,0.438
		c0.259,0.109,0.523,0.172,0.792,0.193c0.798,0.061,1.46-0.135,1.983-0.582c0.525-0.449,0.827-1.221,0.911-2.316l0.203-2.752
		l-9.32-0.691L217.852,389.283z M226.184,389.898l-0.136,1.803c-0.025,0.338-0.091,0.623-0.198,0.854
		c-0.107,0.234-0.242,0.414-0.401,0.547c-0.159,0.135-0.341,0.232-0.547,0.299c-0.206,0.064-0.429,0.09-0.667,0.07
		c-0.489-0.037-0.869-0.215-1.141-0.535c-0.273-0.318-0.384-0.812-0.334-1.479l0.134-1.803L226.184,389.898z"/>
	<polygon fill="#FFFFFF" points="217.883,401.47 218.23,396.787 221.655,397.041 221.365,400.945 222.352,401.017 222.642,397.113 
		225.709,397.339 225.358,402.068 226.285,402.134 226.709,396.421 217.375,395.732 216.956,401.402 	"/>
	<path fill="#FFFFFF" d="M217.311,408.958l0.334-4.502l7.898,0.586c0.09,0.006,0.178,0.035,0.264,0.088
		c0.087,0.051,0.166,0.08,0.235,0.084l0.089-1.211l-9.319-0.689l-0.414,5.578L217.311,408.958z"/>
	<polygon fill="#FFFFFF" points="216.773,416.425 217.121,411.746 220.547,411.996 220.258,415.9 221.245,415.974 221.534,412.07 
		224.6,412.298 224.249,417.025 225.176,417.093 225.599,411.378 216.266,410.687 215.847,416.357 	"/>
	<path fill="#FFFFFF" d="M218.336,419.648l-0.217,2.961l-2.8,0.83l-0.08,1.078l9.75-2.887l0.009-0.119l-9.241-3.996l-0.077,1.033
		L218.336,419.648z M222.603,421.378l-3.66,1.053l0.187-2.514L222.603,421.378z"/>
	<path fill="#FFFFFF" d="M214.797,428.451c-0.039,0.547,0.006,1.023,0.135,1.424c0.132,0.4,0.313,0.738,0.549,1.01
		c0.235,0.273,0.51,0.482,0.826,0.625c0.315,0.146,0.632,0.23,0.951,0.252c0.289,0.023,0.554,0.002,0.794-0.053
		c0.24-0.059,0.472-0.168,0.694-0.332c0.223-0.166,0.437-0.391,0.644-0.676c0.208-0.285,0.422-0.652,0.646-1.094
		c0.226-0.467,0.426-0.844,0.602-1.133c0.178-0.285,0.346-0.502,0.507-0.645c0.162-0.145,0.324-0.248,0.49-0.312
		c0.165-0.061,0.358-0.086,0.577-0.068c0.369,0.025,0.675,0.203,0.923,0.525c0.247,0.322,0.354,0.717,0.319,1.176
		c-0.034,0.479-0.15,0.875-0.343,1.186c-0.193,0.311-0.437,0.553-0.73,0.721c-0.031,0.02-0.081,0.027-0.145,0.027
		c-0.065-0.002-0.11,0.023-0.133,0.072l0.849,0.725c0.392-0.293,0.709-0.654,0.943-1.088c0.238-0.434,0.376-0.904,0.414-1.412
		c0.028-0.4-0.005-0.779-0.104-1.137c-0.1-0.357-0.25-0.672-0.457-0.943s-0.452-0.49-0.741-0.656
		c-0.289-0.168-0.603-0.264-0.941-0.289c-0.27-0.02-0.522,0.006-0.756,0.072c-0.236,0.068-0.461,0.195-0.676,0.379
		c-0.214,0.186-0.43,0.434-0.647,0.742c-0.22,0.311-0.442,0.703-0.667,1.176c-0.213,0.439-0.397,0.787-0.551,1.051
		c-0.157,0.266-0.307,0.467-0.453,0.605c-0.145,0.139-0.299,0.236-0.457,0.289c-0.16,0.053-0.335,0.072-0.523,0.059
		c-0.239-0.018-0.464-0.084-0.67-0.199c-0.207-0.115-0.381-0.264-0.522-0.445c-0.142-0.182-0.251-0.391-0.329-0.633
		c-0.077-0.242-0.105-0.502-0.085-0.781c0.041-0.549,0.172-1.01,0.396-1.385c0.223-0.375,0.486-0.664,0.793-0.873
		c0.043-0.029,0.097-0.037,0.168-0.033c0.071,0.006,0.122-0.014,0.156-0.062l-1.033-0.693
		C215.357,426.3,214.888,427.244,214.797,428.451z"/>
	<polygon fill="#FFFFFF" points="215.11,438.867 215.457,434.183 218.882,434.437 218.593,438.339 219.58,438.416 219.869,434.509 
		222.937,434.738 222.584,439.464 223.513,439.533 223.936,433.818 214.605,433.128 214.183,438.798 	"/>
</g>
<g>
	<path fill="#FFFFFF" d="M250.679,76.844l-4.111-0.344l0.15-1.793l4.283-1.719l0.098-1.166l-4.336,1.806
		c-0.045-0.297-0.143-0.568-0.291-0.816c-0.15-0.246-0.334-0.463-0.549-0.646c-0.215-0.187-0.451-0.332-0.707-0.445
		c-0.26-0.111-0.523-0.178-0.791-0.201c-0.797-0.067-1.461,0.12-1.988,0.562c-0.529,0.446-0.84,1.213-0.934,2.31l-0.228,2.751
		l9.312,0.779L250.679,76.844z M242.351,76.147l0.156-1.801c0.025-0.338,0.094-0.623,0.203-0.852
		c0.11-0.233,0.248-0.412,0.408-0.543c0.162-0.131,0.344-0.229,0.551-0.291s0.43-0.084,0.666-0.064
		c0.488,0.042,0.869,0.222,1.137,0.545c0.27,0.322,0.377,0.815,0.322,1.481l-0.154,1.801L242.351,76.147z"/>
	<polygon fill="#FFFFFF" points="250.765,64.657 250.373,69.337 246.949,69.049 247.277,65.149 246.292,65.067 245.964,68.966 
		242.9,68.709 243.296,63.988 242.369,63.911 241.892,69.62 251.218,70.401 251.691,64.734 	"/>
	<path fill="#FFFFFF" d="M251.41,57.174l-0.377,4.498l-7.893-0.662c-0.09-0.007-0.178-0.035-0.262-0.089
		c-0.088-0.054-0.164-0.083-0.234-0.088l-0.102,1.209l9.311,0.782l0.469-5.577L251.41,57.174z"/>
	<polygon fill="#FFFFFF" points="252.019,49.712 251.626,54.389 248.203,54.106 248.531,50.205 247.546,50.121 247.216,54.022 
		244.154,53.765 244.55,49.042 243.625,48.963 243.146,54.674 252.47,55.457 252.947,49.789 	"/>
	<path fill="#FFFFFF" d="M250.486,46.475l0.246-2.959l2.811-0.805l0.09-1.076l-9.776,2.793l-0.013,0.119l9.203,4.086l0.086-1.033
		L250.486,46.475z M246.24,44.702l3.668-1.014l-0.211,2.512L246.24,44.702z"/>
	<path fill="#FFFFFF" d="M254.113,37.708c0.045-0.548,0.004-1.026-0.121-1.427c-0.129-0.4-0.307-0.742-0.541-1.016
		c-0.229-0.275-0.504-0.484-0.82-0.633c-0.311-0.148-0.629-0.233-0.946-0.261c-0.289-0.024-0.554-0.007-0.795,0.046
		c-0.24,0.055-0.474,0.164-0.697,0.326s-0.44,0.387-0.649,0.67c-0.211,0.28-0.428,0.646-0.656,1.086
		c-0.23,0.462-0.434,0.839-0.615,1.125c-0.18,0.285-0.35,0.501-0.514,0.642c-0.16,0.141-0.324,0.243-0.49,0.306
		c-0.164,0.06-0.357,0.081-0.578,0.062c-0.369-0.028-0.672-0.207-0.918-0.534c-0.244-0.325-0.348-0.718-0.307-1.176
		c0.039-0.479,0.158-0.875,0.354-1.185c0.197-0.308,0.441-0.546,0.738-0.712c0.029-0.019,0.08-0.027,0.145-0.025
		c0.064,0,0.111-0.021,0.135-0.07l-0.842-0.734c-0.395,0.289-0.717,0.648-0.955,1.078c-0.24,0.432-0.385,0.901-0.426,1.41
		c-0.031,0.398-0.002,0.779,0.094,1.136c0.096,0.358,0.244,0.675,0.447,0.948s0.447,0.496,0.734,0.663
		c0.287,0.173,0.6,0.271,0.938,0.299c0.271,0.021,0.523,0.001,0.758-0.063c0.236-0.068,0.461-0.191,0.678-0.374
		c0.218-0.183,0.437-0.431,0.654-0.735c0.224-0.31,0.449-0.699,0.68-1.171c0.22-0.435,0.406-0.781,0.562-1.045
		c0.159-0.263,0.311-0.464,0.459-0.6c0.145-0.137,0.301-0.235,0.459-0.287c0.159-0.051,0.336-0.068,0.524-0.053
		c0.235,0.021,0.461,0.088,0.666,0.205c0.207,0.118,0.379,0.27,0.519,0.451c0.141,0.183,0.248,0.395,0.325,0.637
		c0.072,0.243,0.099,0.503,0.074,0.783c-0.045,0.547-0.181,1.006-0.408,1.379s-0.491,0.662-0.801,0.866
		c-0.043,0.028-0.099,0.038-0.166,0.032c-0.074-0.006-0.125,0.014-0.158,0.062l1.024,0.701
		C253.531,39.852,254.009,38.914,254.113,37.708z"/>
	<polygon fill="#FFFFFF" points="253.9,27.29 253.507,31.967 250.085,31.682 250.414,27.782 249.427,27.695 249.099,31.599 
		246.035,31.341 246.433,26.619 245.503,26.542 245.025,32.251 254.351,33.032 254.826,27.366 	"/>
</g>
<path fill="#F2661D" d="M264.498,25.465c-1.08-7.794-2.613-15.507-4.586-23.241c-4.166-0.433-8.348-0.734-12.541-0.768
	c-3.41,7.341-6.297,14.978-8.664,22.505C237.427,24.058,265.632,25.628,264.498,25.465z"/>
<path fill="#F2661D" d="M306.726,36.282c0.562-7.849,0.662-15.713,0.34-23.688c-3.986-1.287-8.016-2.45-12.109-3.353
	c-4.857,6.473-9.27,13.345-13.146,20.216C280.539,29.287,307.802,36.676,306.726,36.282z"/>
<path fill="#F2661D" d="M345.792,55.627c2.178-7.562,3.908-15.233,5.246-23.102c-3.633-2.087-7.33-4.06-11.148-5.793
	c-6.098,5.323-11.838,11.131-17.057,17.048C321.625,43.349,346.761,56.237,345.792,55.627z"/>
<path fill="#F2661D" d="M379.99,82.661c3.699-6.945,6.986-14.091,9.928-21.51c-3.121-2.796-6.328-5.493-9.703-7.981
	c-7.069,3.942-13.891,8.432-20.225,13.137C358.898,65.633,380.812,83.458,379.99,82.661z"/>
<path fill="#F2661D" d="M407.833,116.203c5.059-6.026,9.758-12.334,14.176-18.98c-2.473-3.383-5.051-6.688-7.836-9.822
	c-7.732,2.39-15.338,5.365-22.51,8.653C390.734,95.168,408.47,117.153,407.833,116.203z"/>
<path fill="#F2661D" d="M428.107,154.793c6.199-4.845,12.107-10.04,17.807-15.625c-1.717-3.822-3.551-7.59-5.625-11.234
	c-8.062,0.732-16.117,2.064-23.816,3.792C415.748,130.668,428.535,155.855,428.107,154.793z"/>
<path fill="#F2661D" d="M439.929,196.751c7.072-3.452,13.93-7.308,20.662-11.588c-0.887-4.096-1.896-8.162-3.17-12.158
	c-8.039-0.957-16.195-1.325-24.086-1.233C432.845,170.586,440.128,197.879,439.929,196.751z"/>
<path fill="#F2661D" d="M442.787,240.25c7.635-1.908,15.143-4.258,22.619-7.047c-0.02-4.189-0.164-8.376-0.58-12.552
	c-7.664-2.605-15.566-4.658-23.305-6.206C441.289,213.185,442.748,241.394,442.787,240.25z"/>
<path fill="#F2661D" d="M436.552,283.395c7.865-0.283,15.697-1.022,23.588-2.2c0.854-4.104,1.58-8.229,2.039-12.396
	c-6.957-4.141-14.26-7.789-21.508-10.906C440.705,256.608,436.279,284.505,436.552,283.395z"/>
<path fill="#F2661D" d="M421.5,324.306c7.752,1.355,15.568,2.256,23.531,2.742c1.686-3.836,3.252-7.723,4.566-11.703
	c-5.945-5.494-12.334-10.578-18.775-15.135C431.121,298.962,421,325.335,421.5,324.306z"/>
<path fill="#F2661D" d="M398.285,361.203c7.301,2.936,14.76,5.438,22.449,7.566c2.445-3.402,4.783-6.879,6.896-10.502
	c-4.678-6.607-9.869-12.906-15.227-18.701C412.955,338.408,397.582,362.105,398.285,361.203z"/>
<path fill="#F2661D" d="M367.916,392.474c6.533,4.387,13.31,8.385,20.392,12.062c3.103-2.822,6.106-5.736,8.931-8.84
	c-3.205-7.438-6.98-14.678-11.02-21.455C386.998,373.222,367.041,393.212,367.916,392.474z"/>
<path fill="#F2661D" d="M331.716,416.763c5.48,5.646,11.279,10.965,17.441,16.033c3.616-2.119,7.166-4.346,10.563-6.797
	c-1.593-7.939-3.772-15.803-6.315-23.273C354.38,401.89,330.708,417.304,331.716,416.763z"/>
<path fill="#F2661D" d="M291.265,433.011c4.189,6.66,8.758,13.066,13.734,19.303c3.979-1.32,7.91-2.764,11.748-4.453
	c0.09-8.098-0.416-16.244-1.355-24.08C316.523,423.166,290.167,433.332,291.265,433.011z"/>
<path fill="#F2661D" d="M248.322,440.507c2.717,7.387,5.855,14.602,9.43,21.734c4.166-0.469,8.312-1.062,12.416-1.92
	c1.771-7.9,2.969-15.98,3.679-23.834C275.074,436.121,247.182,440.593,248.322,440.507z"/>
<path fill="#F2661D" d="M204.758,438.929c1.124,7.787,2.698,15.496,4.714,23.217c4.172,0.406,8.352,0.686,12.543,0.699
	c3.371-7.359,6.217-15.012,8.543-22.553C231.837,440.187,203.625,438.775,204.758,438.929z"/>
<path fill="#F2661D" d="M162.47,428.341c-0.517,7.854-0.577,15.719-0.207,23.691c3.997,1.262,8.028,2.398,12.125,3.287
	c4.825-6.502,9.197-13.396,13.038-20.289C188.699,435.195,161.395,427.957,162.47,428.341z"/>
<path fill="#F2661D" d="M123.301,409.208c-2.136,7.572-3.827,15.256-5.12,23.131c3.647,2.064,7.354,4.018,11.179,5.732
	c6.07-5.357,11.777-11.193,16.965-17.145C147.537,421.355,122.33,408.609,123.301,409.208z"/>
<path fill="#F2661D" d="M88.957,382.363c-3.661,6.965-6.91,14.131-9.809,21.564c3.139,2.775,6.361,5.455,9.746,7.928
	c7.049-3.98,13.844-8.506,20.152-13.246C110.144,399.275,88.131,381.574,88.957,382.363z"/>
<path fill="#F2661D" d="M60.932,348.97c-5.027,6.055-9.693,12.391-14.071,19.062c2.495,3.367,5.09,6.656,7.888,9.775
	c7.722-2.432,15.308-5.445,22.463-8.773C78.147,369.914,60.288,348.029,60.932,348.97z"/>
<path fill="#F2661D" d="M40.449,310.492c-6.174,4.879-12.054,10.105-17.721,15.725c1.741,3.812,3.597,7.568,5.687,11.201
	c8.058-0.773,16.105-2.148,23.795-3.92C52.942,334.55,40.014,309.435,40.449,310.492z"/>
<path fill="#F2661D" d="M28.397,268.598c-7.052,3.489-13.889,7.385-20.599,11.704c0.912,4.09,1.948,8.15,3.238,12.138
	c8.043,0.914,16.201,1.238,24.09,1.104C35.625,294.726,28.192,267.474,28.397,268.598z"/>
<path fill="#F2661D" d="M25.304,225.116c-7.623,1.95-15.119,4.341-22.579,7.174c0.043,4.19,0.214,8.377,0.647,12.545
	c7.679,2.562,15.591,4.574,23.337,6.08C26.952,252.175,25.336,223.973,25.304,225.116z"/>
<path fill="#F2661D" d="M31.303,181.938c-7.861,0.326-15.691,1.108-23.576,2.331c-0.828,4.108-1.53,8.239-1.971,12.407
	c6.98,4.101,14.303,7.71,21.567,10.79C27.299,208.75,31.572,180.827,31.303,181.938z"/>
<path fill="#F2661D" d="M46.133,140.946c-7.757-1.312-15.579-2.173-23.546-2.613c-1.663,3.848-3.207,7.742-4.503,11.729
	c5.977,5.46,12.391,10.511,18.857,15.031C36.651,166.343,46.627,139.915,46.133,140.946z"/>
<path fill="#F2661D" d="M69.149,103.924c-7.316-2.894-14.789-5.359-22.491-7.443c-2.425,3.419-4.744,6.908-6.839,10.538
	c4.713,6.582,9.939,12.854,15.327,18.618C54.602,126.8,69.846,103.018,69.149,103.924z"/>
<path fill="#F2661D" d="M99.347,72.486c-6.556-4.349-13.354-8.312-20.456-11.949c-3.082,2.841-6.075,5.773-8.877,8.89
	c3.244,7.416,7.055,14.636,11.129,21.394C80.369,91.844,100.217,71.745,99.347,72.486z"/>
<path fill="#F2661D" d="M135.414,48c-5.511-5.614-11.338-10.902-17.53-15.935c-3.604,2.139-7.141,4.387-10.529,6.853
	c1.634,7.928,3.863,15.781,6.446,23.238C112.831,62.998,136.418,47.456,135.414,48z"/>
<path fill="#F2661D" d="M175.776,31.534c-4.225-6.636-8.829-13.019-13.841-19.226c-3.97,1.344-7.896,2.809-11.722,4.518
	c-0.047,8.094,0.503,16.239,1.482,24.07C150.572,41.517,176.873,31.209,175.776,31.534z"/>
<path fill="#F2661D" d="M218.678,23.803c-2.756-7.368-5.935-14.567-9.55-21.68c-4.162,0.49-8.307,1.108-12.404,1.986
	c-1.727,7.907-2.878,15.99-3.546,23.854C191.951,28.338,219.818,23.713,218.678,23.803z"/>
</svg>
