<?xml version="1.0" encoding="utf-8"?>
<!-- Generator: Adobe Illustrator 15.0.0, SVG Export Plug-In . SVG Version: 6.00 Build 0)  -->
<!DOCTYPE svg PUBLIC "-//W3C//DTD SVG 1.1//EN" "http://www.w3.org/Graphics/SVG/1.1/DTD/svg11.dtd">
<svg version="1.1" id="Layer_1" xmlns="http://www.w3.org/2000/svg" xmlns:xlink="http://www.w3.org/1999/xlink" x="0px" y="0px"
	 width="287px" height="285.5px" viewBox="0 0 287 285.5" enable-background="new 0 0 287 285.5" xml:space="preserve">
<path fill="#4CA0D3" d="M260.509,168.521c0.033-0.146,0.062-0.291,0.095-0.438c0.103-0.453,0.198-0.899,0.291-1.354
	c0.361-1.666,0.699-3.336,0.953-5.02c7.793-1.079,15.502-2.609,23.237-4.579c0.435-4.162,0.741-8.351,0.78-12.539
	c-7.346-3.409-14.979-6.302-22.508-8.677c-0.164-2.231-0.303-4.468-0.537-6.693c-0.027,0.013-0.057,0.029-0.084,0.042
	c-0.178-1.677-0.383-3.344-0.629-4.999c0.002,0,0.004,0,0.006,0.001c-0.272-1.837-0.581-3.669-0.948-5.49
	c-0.017-0.077-0.031-0.154-0.047-0.232c-0.074-0.37-0.136-0.742-0.218-1.11c6.877-3.821,13.514-8.034,20.016-12.663
	c-1.096-4.042-2.323-8.055-3.801-11.978c-8.082-0.524-16.244-0.466-24.121,0.041c-0.961-2.023-1.896-4.058-2.921-6.049
	c-0.019,0.02-0.033,0.041-0.052,0.058c-0.771-1.491-1.569-2.967-2.403-4.422c0,0,0.002,0,0.004,0
	c-1.144-2.012-2.31-4.013-3.597-5.934c5.031-6.047,9.699-12.372,14.089-19.039c-2.48-3.372-5.077-6.671-7.868-9.795
	c-7.729,2.429-15.316,5.433-22.48,8.751c-1.623-1.541-3.229-3.099-4.906-4.586c-0.012,0.03-0.021,0.062-0.033,0.092
	c-1.26-1.116-2.541-2.203-3.848-3.266c0.006-0.003,0.017-0.007,0.021-0.011c-1.792-1.464-3.604-2.908-5.5-4.234
	c2.51-7.457,4.579-15.041,6.264-22.842c-3.531-2.248-7.145-4.388-10.875-6.292c-6.326,5.057-12.32,10.599-17.803,16.28
	c-2.068-0.852-4.135-1.723-6.229-2.506c-0.002,0.021,0,0.042-0.002,0.063c-2.354-0.874-4.744-1.672-7.166-2.401
	c-0.908-0.281-1.822-0.537-2.739-0.789c-0.425-0.115-0.849-0.236-1.272-0.349c-0.076-0.02-0.15-0.044-0.229-0.062
	c-0.352-7.861-1.162-15.68-2.409-23.562c-4.106-0.82-8.247-1.512-12.416-1.939c-4.072,7-7.661,14.333-10.72,21.61
	c-2.238-0.046-4.479-0.114-6.715-0.086c0.011,0.033,0.024,0.062,0.036,0.093c-1.727,0.024-3.442,0.088-5.15,0.184
	c0.002-0.008,0.005-0.016,0.007-0.024c-2.31,0.129-4.619,0.283-6.917,0.584c-3.173-7.2-6.76-14.194-10.776-21.092
	c-4.124,0.721-8.232,1.577-12.275,2.687c-1.264,7.996-1.953,16.135-2.171,24.024c-2.099,0.77-4.214,1.517-6.286,2.351
	c0.015,0.018,0.031,0.033,0.045,0.051c-2.313,0.938-4.591,1.943-6.831,3.017c-0.629,0.296-1.252,0.605-1.875,0.915
	c-0.233,0.118-0.463,0.238-0.695,0.355c-0.485,0.249-0.978,0.483-1.457,0.745c-5.561-5.566-11.431-10.795-17.666-15.777
	c-3.584,2.162-7.106,4.443-10.476,6.94c1.709,7.914,4.007,15.751,6.652,23.186c-1.68,1.477-3.382,2.937-5.012,4.463
	c0.027,0.015,0.055,0.026,0.084,0.042c-1.227,1.152-2.424,2.333-3.6,3.535c-0.005-0.007-0.009-0.015-0.013-0.021
	c-1.62,1.649-3.222,3.321-4.719,5.091c-7.195-3.183-14.558-5.937-22.171-8.331c-2.562,3.312-5.023,6.711-7.262,10.256
	c4.452,6.762,9.427,13.24,14.579,19.217c-1.035,1.984-2.093,3.96-3.063,5.973c0.023,0.002,0.047,0.003,0.071,0.006
	c-1.161,2.417-2.247,4.876-3.248,7.38c-0.186,0.453-0.355,0.913-0.531,1.369c-0.265,0.683-0.522,1.368-0.773,2.056
	c-0.028,0.078-0.06,0.153-0.087,0.229c-7.858-0.369-15.719-0.279-23.684,0.239c-1.192,4.014-2.26,8.072-3.067,12.187
	c6.594,4.697,13.572,8.941,20.536,12.653c-0.248,2.225-0.521,4.449-0.699,6.677c0.032-0.008,0.061-0.019,0.094-0.026
	c-0.128,1.669-0.226,3.349-0.285,5.037c-0.008-0.002-0.015-0.004-0.021-0.007c-0.086,2.311-0.144,4.625-0.059,6.94
	c-7.461,2.491-14.758,5.416-22,8.773c0.337,4.177,0.808,8.348,1.542,12.475c7.845,2,15.884,3.438,23.719,4.383
	c0.572,2.164,1.12,4.341,1.759,6.479c0.018-0.014,0.035-0.025,0.052-0.039c0.739,2.457,1.558,4.88,2.447,7.271
	c0.149,0.41,0.302,0.82,0.457,1.229c0.357,0.932,0.726,1.857,1.106,2.775c-6.057,5.021-11.804,10.382-17.342,16.132
	c1.823,3.771,3.766,7.485,5.942,11.069c8.039-0.969,16.054-2.53,23.701-4.479c1.316,1.812,2.611,3.644,3.982,5.407
	c0.018-0.027,0.033-0.057,0.05-0.08c1.034,1.326,2.096,2.631,3.184,3.914c-0.006,0.002-0.013,0.004-0.019,0.006
	c1.491,1.768,3.007,3.518,4.631,5.17c-3.835,6.872-7.258,13.945-10.345,21.311c3.06,2.854,6.217,5.619,9.54,8.18
	c7.144-3.811,14.055-8.162,20.482-12.741c1.88,1.213,3.75,2.453,5.666,3.604c0.005-0.029,0.009-0.059,0.017-0.084
	c2.152,1.293,4.345,2.521,6.582,3.682c0.651,0.344,1.311,0.672,1.972,0.999c0.371,0.183,0.744,0.362,1.118,0.541
	c0.296,0.142,0.584,0.293,0.883,0.428c-1.095,7.794-1.729,15.627-1.951,23.606c3.886,1.56,7.829,2.996,11.85,4.182
	c5.287-6.133,10.158-12.688,14.498-19.277c2.192,0.453,4.383,0.934,6.586,1.314c-0.004-0.027-0.012-0.059-0.016-0.087
	c1.649,0.282,3.31,0.53,4.983,0.745c-0.002,0.006-0.005,0.01-0.007,0.015c2.292,0.3,4.591,0.57,6.904,0.7
	c1.794,7.661,4.032,15.195,6.708,22.716c4.186,0.052,8.385-0.034,12.561-0.381c2.714-7.627,4.891-15.498,6.559-23.214
	c2.207-0.369,4.422-0.715,6.614-1.152c-0.012-0.023-0.026-0.043-0.04-0.062c2.418-0.485,4.812-1.051,7.176-1.682
	c0.877-0.224,1.75-0.472,2.621-0.729c0.562-0.163,1.127-0.326,1.689-0.497c0.035-0.015,0.076-0.021,0.115-0.034
	c4.438,6.497,9.246,12.713,14.459,18.76c3.924-1.466,7.806-3.059,11.574-4.895c-0.226-8.094-1.039-16.217-2.271-24.014
	c1.925-1.143,3.865-2.265,5.751-3.463c-0.022-0.021-0.046-0.037-0.067-0.059c1.412-0.906,2.812-1.839,4.188-2.801
	c0,0.004,0.002,0.008,0.002,0.01c1.897-1.321,3.78-2.671,5.576-4.133c6.487,4.455,13.215,8.517,20.263,12.271
	c3.125-2.784,6.17-5.671,9.021-8.741c-3.133-7.47-6.825-14.748-10.789-21.572c1.383-1.762,2.785-3.508,4.111-5.309
	c-0.029-0.014-0.062-0.021-0.094-0.025c0.993-1.354,1.961-2.73,2.896-4.129c0.002,0.007,0.008,0.011,0.011,0.015
	c1.289-1.92,2.562-3.854,3.705-5.87c7.657,1.812,15.397,3.17,23.325,4.125c1.91-3.723,3.705-7.518,5.256-11.408
	c-5.615-5.832-11.689-11.287-17.854-16.222c0.652-2.142,1.332-4.272,1.916-6.437c-0.021-0.002-0.045,0.004-0.066,0.006
	c0.435-1.613,0.826-3.243,1.192-4.887C260.507,168.521,260.509,168.521,260.509,168.521z M142.5,238.75c-53.486,0-97-43.514-97-97
	c0-17.002,4.402-32.993,12.119-46.902l7.325,5.355c-6.66,12.382-10.444,26.53-10.444,41.546c0,48.522,39.477,88,88,88
	c48.523,0,88-39.478,88-88c0-48.523-39.477-88-88-88c-26.659,0-50.584,11.918-66.735,30.703l-7.28-5.323
	c17.807-21.015,44.377-34.38,74.015-34.38c53.486,0,97,43.514,97,97C239.5,195.236,195.986,238.75,142.5,238.75z M122.773,142.081
	c0-11.121,9.047-20.168,20.168-20.168c11.122,0,20.168,9.047,20.168,20.168s-9.049,20.168-20.168,20.168
	C131.821,162.249,122.773,153.202,122.773,142.081z"/>
<path fill="#4CA0D3" d="M142.941,123.913c-10.018,0-18.168,8.15-18.168,18.168c0,10.019,8.15,18.168,18.168,18.168
	s18.168-8.149,18.168-18.168C161.109,132.063,152.959,123.913,142.941,123.913z M142.941,153.396
	c-6.249,0-11.315-5.066-11.315-11.315s5.066-11.315,11.315-11.315c6.249,0,11.315,5.066,11.315,11.315
	S149.189,153.396,142.941,153.396z"/>
<g>
	<g>
		<path fill="none" stroke="#FFFFFF" stroke-width="0.5" d="M49.76,72.447l0.966,0.687c0.008,0.005,0.006,0.018-0.004,0.034
			c-0.023,0.032-0.077,0.066-0.157,0.102c-0.08,0.034-0.161,0.092-0.239,0.169l-3.281,4.619c-0.302,0.425-0.496,0.782-0.579,1.073
			c-0.084,0.291-0.107,0.563-0.068,0.819c0.04,0.255,0.134,0.49,0.28,0.706c0.146,0.215,0.331,0.412,0.546,0.59
			c0.239,0.146,0.482,0.257,0.728,0.333c0.246,0.078,0.501,0.089,0.766,0.037c0.264-0.052,0.522-0.165,0.776-0.341
			c0.255-0.176,0.538-0.484,0.853-0.926l3.533-4.972l0.819,0.582l-3.518,4.952c-0.355,0.497-0.707,0.878-1.06,1.143
			c-0.354,0.264-0.727,0.429-1.117,0.495c-0.389,0.066-0.775,0.049-1.159-0.051c-0.383-0.1-0.763-0.284-1.138-0.55
			c-0.367-0.26-0.66-0.556-0.88-0.883c-0.221-0.328-0.36-0.679-0.42-1.053c-0.059-0.374-0.037-0.762,0.071-1.164
			c0.107-0.402,0.353-0.872,0.736-1.41L49.76,72.447z"/>
		<path fill="none" stroke="#FFFFFF" stroke-width="0.5" d="M50.461,84.41l5.412-7.618l0.833,0.591l-0.811,7.926l4.022-5.661
			l0.904,0.643c-0.034,0.048-0.087,0.092-0.154,0.127c-0.069,0.038-0.125,0.084-0.165,0.141l-5.188,7.299l-0.672-0.477L55.538,79
			l-4.257,5.992L50.461,84.41z"/>
		<path fill="none" stroke="#FFFFFF" stroke-width="0.5" d="M62.454,81.467l3.801,2.702l-0.503,0.709l-1.504-1.069l-4.424,6.224
			l1.579,1.121l-0.494,0.698l-3.961-2.815l0.503-0.709l1.504,1.069l4.413-6.212l-1.419-1.007L62.454,81.467z"/>
		<path fill="none" stroke="#FFFFFF" stroke-width="0.5" d="M67.877,85.304l5.293,3.762l-0.546,0.771l-2.25-1.6l-4.873,6.86
			l-0.881-0.626l4.873-6.86l-2.164-1.537L67.877,85.304z"/>
		<path fill="none" stroke="#FFFFFF" stroke-width="0.5" d="M72.083,93.37l4.402,3.128l-0.582,0.819l-4.402-3.128L72.083,93.37z"/>
		<path fill="none" stroke="#FFFFFF" stroke-width="0.5" d="M80.105,93.992l5.293,3.763l-0.548,0.77l-2.249-1.599l-4.875,6.859
			l-0.881-0.625l4.875-6.86l-2.165-1.537L80.105,93.992z"/>
		<path fill="none" stroke="#FFFFFF" stroke-width="0.5" d="M86.561,98.58l4.672,3.319l-0.54,0.758l-3.864-2.746l-1.781,2.507
			l3.192,2.268l-0.573,0.807l-3.193-2.268l-1.989,2.799l3.828,2.72l-0.539,0.758l-4.634-3.292L86.561,98.58z"/>
		<path fill="none" stroke="#FFFFFF" stroke-width="0.5" d="M96.621,107.109l-1.06,0.35c-0.028-0.045-0.026-0.096,0.007-0.151
			c0.032-0.056,0.05-0.103,0.052-0.138c0.006-0.338-0.073-0.672-0.239-0.998c-0.168-0.328-0.446-0.631-0.838-0.909
			c-0.373-0.266-0.765-0.377-1.17-0.333c-0.403,0.042-0.714,0.215-0.929,0.517c-0.125,0.178-0.207,0.354-0.237,0.529
			c-0.032,0.174-0.028,0.367,0.011,0.579c0.04,0.212,0.137,0.467,0.291,0.768c0.156,0.3,0.373,0.668,0.655,1.1
			c0.265,0.422,0.465,0.795,0.604,1.119c0.138,0.326,0.218,0.625,0.243,0.9c0.024,0.275,0,0.531-0.074,0.767
			c-0.075,0.234-0.196,0.471-0.364,0.707c-0.188,0.26-0.422,0.488-0.708,0.683c-0.287,0.197-0.606,0.324-0.962,0.384
			c-0.355,0.06-0.738,0.043-1.148-0.053c-0.411-0.096-0.841-0.303-1.287-0.621c-0.986-0.7-1.55-1.592-1.69-2.672l1.126-0.524
			c0.025,0.052,0.015,0.109-0.025,0.166c-0.041,0.058-0.061,0.111-0.059,0.161c0.021,0.371,0.132,0.747,0.337,1.133
			c0.205,0.384,0.53,0.734,0.979,1.054c0.229,0.162,0.466,0.272,0.712,0.332c0.247,0.059,0.485,0.074,0.713,0.046
			c0.229-0.028,0.445-0.101,0.65-0.219c0.208-0.116,0.379-0.273,0.519-0.47c0.109-0.153,0.183-0.313,0.22-0.478
			c0.038-0.165,0.033-0.344-0.01-0.541c-0.045-0.197-0.142-0.429-0.286-0.699c-0.146-0.27-0.35-0.608-0.614-1.017
			c-0.289-0.438-0.51-0.831-0.661-1.178c-0.152-0.348-0.252-0.661-0.299-0.939c-0.047-0.28-0.039-0.538,0.025-0.772
			c0.064-0.237,0.174-0.465,0.331-0.686c0.195-0.278,0.441-0.497,0.733-0.657c0.292-0.161,0.607-0.258,0.944-0.294
			c0.339-0.036,0.687-0.003,1.045,0.097c0.357,0.102,0.7,0.268,1.024,0.499c0.416,0.296,0.747,0.657,0.996,1.085
			C96.427,106.166,96.574,106.622,96.621,107.109z"/>
		<path fill="none" stroke="#FFFFFF" stroke-width="0.5" d="M98.445,107.025l5.296,3.762l-0.547,0.77l-2.25-1.598l-4.875,6.859
			l-0.88-0.626l4.873-6.859l-2.163-1.537L98.445,107.025z"/>
		<path fill="none" stroke="#FFFFFF" stroke-width="0.5" d="M105.249,111.876l3.802,2.702l-0.504,0.71l-1.505-1.069l-4.421,6.223
			l1.577,1.121l-0.495,0.697l-3.961-2.815l0.504-0.709l1.504,1.067l4.414-6.21l-1.418-1.008L105.249,111.876z"/>
		<path fill="none" stroke="#FFFFFF" stroke-width="0.5" d="M105.484,123.508l5.414-7.618l0.83,0.59l-0.811,7.926l4.022-5.659
			l0.905,0.642c-0.036,0.049-0.087,0.092-0.154,0.131c-0.069,0.037-0.124,0.083-0.165,0.141l-5.188,7.299l-0.673-0.479l0.895-8.38
			l-4.257,5.992L105.484,123.508z"/>
		<path fill="none" stroke="#FFFFFF" stroke-width="0.5" d="M121.148,124.978l-1.034,0.186c-0.025-0.066-0.023-0.183,0.006-0.345
			c0.067-0.355,0.034-0.708-0.104-1.059c-0.137-0.35-0.378-0.646-0.72-0.89c-0.237-0.168-0.514-0.291-0.831-0.37
			c-0.318-0.08-0.664-0.072-1.036,0.018c-0.372,0.09-0.758,0.287-1.16,0.584c-0.401,0.298-0.811,0.74-1.229,1.326
			c-0.376,0.53-0.655,1.037-0.84,1.518c-0.184,0.483-0.278,0.928-0.285,1.334c-0.006,0.407,0.068,0.771,0.224,1.097
			c0.154,0.326,0.384,0.594,0.684,0.81c0.529,0.376,1.121,0.562,1.772,0.559l1.286-1.809l-1.382-0.981l0.531-0.747l2.177,1.545
			l-2.121,2.983c-1.104,0.015-2.038-0.25-2.803-0.793c-0.457-0.326-0.802-0.708-1.035-1.15c-0.232-0.442-0.358-0.92-0.376-1.436
			c-0.02-0.519,0.07-1.061,0.273-1.628c0.2-0.567,0.508-1.143,0.917-1.722c0.568-0.799,1.144-1.396,1.724-1.792
			c0.583-0.396,1.132-0.621,1.652-0.677c0.517-0.057,0.979-0.019,1.385,0.111c0.402,0.127,0.741,0.287,1.012,0.48
			c0.462,0.329,0.813,0.753,1.048,1.269C121.12,123.919,121.209,124.445,121.148,124.978z"/>
	</g>
	<g>
		<path fill="#F9F8F7" d="M49.76,72.447l0.966,0.687c0.008,0.005,0.006,0.018-0.004,0.034c-0.023,0.032-0.077,0.066-0.157,0.102
			c-0.08,0.034-0.161,0.092-0.239,0.169l-3.281,4.619c-0.302,0.425-0.496,0.782-0.579,1.073c-0.084,0.291-0.107,0.563-0.068,0.819
			c0.04,0.255,0.134,0.49,0.28,0.706c0.146,0.215,0.331,0.412,0.546,0.59c0.239,0.146,0.482,0.257,0.728,0.333
			c0.246,0.078,0.501,0.089,0.766,0.037c0.264-0.052,0.522-0.165,0.776-0.341c0.255-0.176,0.538-0.484,0.853-0.926l3.533-4.972
			l0.819,0.582l-3.518,4.952c-0.355,0.497-0.707,0.878-1.06,1.143c-0.354,0.264-0.727,0.429-1.117,0.495
			c-0.389,0.066-0.775,0.049-1.159-0.051c-0.383-0.1-0.763-0.284-1.138-0.55c-0.367-0.26-0.66-0.556-0.88-0.883
			c-0.221-0.328-0.36-0.679-0.42-1.053c-0.059-0.374-0.037-0.762,0.071-1.164c0.107-0.402,0.353-0.872,0.736-1.41L49.76,72.447z"/>
		<path fill="#F9F8F7" d="M50.461,84.41l5.412-7.618l0.833,0.591l-0.811,7.926l4.022-5.661l0.904,0.643
			c-0.034,0.048-0.087,0.092-0.154,0.127c-0.069,0.038-0.125,0.084-0.165,0.141l-5.188,7.299l-0.672-0.477L55.538,79l-4.257,5.992
			L50.461,84.41z"/>
		<path fill="#F9F8F7" d="M62.454,81.467l3.801,2.702l-0.503,0.709l-1.504-1.069l-4.424,6.224l1.579,1.121l-0.494,0.698
			l-3.961-2.815l0.503-0.709l1.504,1.069l4.413-6.212l-1.419-1.007L62.454,81.467z"/>
		<path fill="#F9F8F7" d="M67.877,85.304l5.293,3.762l-0.546,0.771l-2.25-1.6l-4.873,6.86l-0.881-0.626l4.873-6.86l-2.164-1.537
			L67.877,85.304z"/>
		<path fill="#F9F8F7" d="M72.083,93.37l4.402,3.128l-0.582,0.819l-4.402-3.128L72.083,93.37z"/>
		<path fill="#F9F8F7" d="M80.105,93.992l5.293,3.763l-0.548,0.77l-2.249-1.599l-4.875,6.859l-0.881-0.625l4.875-6.86l-2.165-1.537
			L80.105,93.992z"/>
		<path fill="#F9F8F7" d="M86.561,98.58l4.672,3.319l-0.54,0.758l-3.864-2.746l-1.781,2.507l3.192,2.268l-0.573,0.807l-3.193-2.268
			l-1.989,2.799l3.828,2.72l-0.539,0.758l-4.634-3.292L86.561,98.58z"/>
		<path fill="#F9F8F7" d="M96.621,107.109l-1.06,0.35c-0.028-0.045-0.026-0.096,0.007-0.151c0.032-0.056,0.05-0.103,0.052-0.138
			c0.006-0.338-0.073-0.672-0.239-0.998c-0.168-0.328-0.446-0.631-0.838-0.909c-0.373-0.266-0.765-0.377-1.17-0.333
			c-0.403,0.042-0.714,0.215-0.929,0.517c-0.125,0.178-0.207,0.354-0.237,0.529c-0.032,0.174-0.028,0.367,0.011,0.579
			c0.04,0.212,0.137,0.467,0.291,0.768c0.156,0.3,0.373,0.668,0.655,1.1c0.265,0.422,0.465,0.795,0.604,1.119
			c0.138,0.326,0.218,0.625,0.243,0.9c0.024,0.275,0,0.531-0.074,0.767c-0.075,0.234-0.196,0.471-0.364,0.707
			c-0.188,0.26-0.422,0.488-0.708,0.683c-0.287,0.197-0.606,0.324-0.962,0.384c-0.355,0.06-0.738,0.043-1.148-0.053
			c-0.411-0.096-0.841-0.303-1.287-0.621c-0.986-0.7-1.55-1.592-1.69-2.672l1.126-0.524c0.025,0.052,0.015,0.109-0.025,0.166
			c-0.041,0.058-0.061,0.111-0.059,0.161c0.021,0.371,0.132,0.747,0.337,1.133c0.205,0.384,0.53,0.734,0.979,1.054
			c0.229,0.162,0.466,0.272,0.712,0.332c0.247,0.059,0.485,0.074,0.713,0.046c0.229-0.028,0.445-0.101,0.65-0.219
			c0.208-0.116,0.379-0.273,0.519-0.47c0.109-0.153,0.183-0.313,0.22-0.478c0.038-0.165,0.033-0.344-0.01-0.541
			c-0.045-0.197-0.142-0.429-0.286-0.699c-0.146-0.27-0.35-0.608-0.614-1.017c-0.289-0.438-0.51-0.831-0.661-1.178
			c-0.152-0.348-0.252-0.661-0.299-0.939c-0.047-0.28-0.039-0.538,0.025-0.772c0.064-0.237,0.174-0.465,0.331-0.686
			c0.195-0.278,0.441-0.497,0.733-0.657c0.292-0.161,0.607-0.258,0.944-0.294c0.339-0.036,0.687-0.003,1.045,0.097
			c0.357,0.102,0.7,0.268,1.024,0.499c0.416,0.296,0.747,0.657,0.996,1.085C96.427,106.166,96.574,106.622,96.621,107.109z"/>
		<path fill="#F9F8F7" d="M98.445,107.025l5.296,3.762l-0.547,0.77l-2.25-1.598l-4.875,6.859l-0.88-0.626l4.873-6.859l-2.163-1.537
			L98.445,107.025z"/>
		<path fill="#F9F8F7" d="M105.249,111.876l3.802,2.702l-0.504,0.71l-1.505-1.069l-4.421,6.223l1.577,1.121l-0.495,0.697
			l-3.961-2.815l0.504-0.709l1.504,1.067l4.414-6.21l-1.418-1.008L105.249,111.876z"/>
		<path fill="#F9F8F7" d="M105.484,123.508l5.414-7.618l0.83,0.59l-0.811,7.926l4.022-5.659l0.905,0.642
			c-0.036,0.049-0.087,0.092-0.154,0.131c-0.069,0.037-0.124,0.083-0.165,0.141l-5.188,7.299l-0.673-0.479l0.895-8.38l-4.257,5.992
			L105.484,123.508z"/>
		<path fill="#F9F8F7" d="M121.148,124.978l-1.034,0.186c-0.025-0.066-0.023-0.183,0.006-0.345c0.067-0.355,0.034-0.708-0.104-1.059
			c-0.137-0.35-0.378-0.646-0.72-0.89c-0.237-0.168-0.514-0.291-0.831-0.37c-0.318-0.08-0.664-0.072-1.036,0.018
			c-0.372,0.09-0.758,0.287-1.16,0.584c-0.401,0.298-0.811,0.74-1.229,1.326c-0.376,0.53-0.655,1.037-0.84,1.518
			c-0.184,0.483-0.278,0.928-0.285,1.334c-0.006,0.407,0.068,0.771,0.224,1.097c0.154,0.326,0.384,0.594,0.684,0.81
			c0.529,0.376,1.121,0.562,1.772,0.559l1.286-1.809l-1.382-0.981l0.531-0.747l2.177,1.545l-2.121,2.983
			c-1.104,0.015-2.038-0.25-2.803-0.793c-0.457-0.326-0.802-0.708-1.035-1.15c-0.232-0.442-0.358-0.92-0.376-1.436
			c-0.02-0.519,0.07-1.061,0.273-1.628c0.2-0.567,0.508-1.143,0.917-1.722c0.568-0.799,1.144-1.396,1.724-1.792
			c0.583-0.396,1.132-0.621,1.652-0.677c0.517-0.057,0.979-0.019,1.385,0.111c0.402,0.127,0.741,0.287,1.012,0.48
			c0.462,0.329,0.813,0.753,1.048,1.269C121.12,123.919,121.209,124.445,121.148,124.978z"/>
	</g>
</g>
</svg>
