<?xml version="1.0" encoding="UTF-8" standalone="no"?>
<!-- Created with Inkscape (http://www.inkscape.org/) -->

<svg
   xmlns:dc="http://purl.org/dc/elements/1.1/"
   xmlns:cc="http://creativecommons.org/ns#"
   xmlns:rdf="http://www.w3.org/1999/02/22-rdf-syntax-ns#"
   xmlns:svg="http://www.w3.org/2000/svg"
   xmlns="http://www.w3.org/2000/svg"
   xmlns:sodipodi="http://sodipodi.sourceforge.net/DTD/sodipodi-0.dtd"
   xmlns:inkscape="http://www.inkscape.org/namespaces/inkscape"
   width="30.541"
   height="30.540001"
   id="svg3212"
   version="1.1"
   inkscape:version="0.48.5 r10040"
   sodipodi:docname="New document 8">
  <defs
     id="defs3214" />
  <sodipodi:namedview
     id="base"
     pagecolor="#ffffff"
     bordercolor="#666666"
     borderopacity="1.0"
     inkscape:pageopacity="0.0"
     inkscape:pageshadow="2"
     inkscape:zoom="0.35"
     inkscape:cx="15.2705"
     inkscape:cy="15.269997"
     inkscape:document-units="px"
     inkscape:current-layer="layer1"
     showgrid="false"
     fit-margin-top="0"
     fit-margin-left="0"
     fit-margin-right="0"
     fit-margin-bottom="0"
     inkscape:window-width="463"
     inkscape:window-height="453"
     inkscape:window-x="75"
     inkscape:window-y="75"
     inkscape:window-maximized="0" />
  <metadata
     id="metadata3217">
    <rdf:RDF>
      <cc:Work
         rdf:about="">
        <dc:format>image/svg+xml</dc:format>
        <dc:type
           rdf:resource="http://purl.org/dc/dcmitype/StillImage" />
        <dc:title></dc:title>
      </cc:Work>
    </rdf:RDF>
  </metadata>
  <g
     inkscape:label="Layer 1"
     inkscape:groupmode="layer"
     id="layer1"
     transform="translate(-359.7295,-517.09218)">
    <g
       transform="translate(335.8865,466.51518)"
       id="g3">
      <path
         style="fill:#ec6314"
         inkscape:connector-curvature="0"
         d="m 40.306,63.461 h -0.238 v -1.909 h 0.085 c 0.114,-0.249 0.393,-0.423 0.667,-0.407 0.508,0.003 1.019,0 1.526,10e-4 0,-0.023 0,-0.047 0,-0.071 h 0.107 V 58.69 h -0.106 -0.371 -2.398 c -0.615,0.069 -1.227,0.267 -1.681,0.699 -0.375,0.347 -0.598,0.826 -0.693,1.325 v 2.748 h -1.432 v 2.371 l 1.37,-0.003 c 0,0.006 0,0.012 0,0.018 h 0.062 v 7.159 h 2.864 v -7.159 h 0.026 c 0,-0.004 0,-0.009 0,-0.015 h 1.956 l 0.021,-0.072 c 0.112,-0.763 0.208,-1.529 0.263,-2.299 h -2.028 z"
         id="path5" />
      <path
         style="fill:#ec6314"
         inkscape:connector-curvature="0"
         d="m 39.114,50.577 c -8.434,0 -15.271,6.836 -15.271,15.27 0,8.434 6.837,15.27 15.271,15.27 8.434,0 15.27,-6.836 15.27,-15.27 0,-8.434 -6.836,-15.27 -15.27,-15.27 z m 0,28.553 c -7.292,0 -13.203,-5.91 -13.203,-13.202 0,-7.291 5.912,-13.202 13.203,-13.202 7.292,0 13.202,5.911 13.202,13.202 0,7.292 -5.91,13.202 -13.202,13.202 z"
         id="path7" />
    </g>
  </g>
</svg>
