<?xml version="1.0" encoding="UTF-8" standalone="no"?>
<!-- Created with Inkscape (http://www.inkscape.org/) -->

<svg
   xmlns:dc="http://purl.org/dc/elements/1.1/"
   xmlns:cc="http://creativecommons.org/ns#"
   xmlns:rdf="http://www.w3.org/1999/02/22-rdf-syntax-ns#"
   xmlns:svg="http://www.w3.org/2000/svg"
   xmlns="http://www.w3.org/2000/svg"
   xmlns:sodipodi="http://sodipodi.sourceforge.net/DTD/sodipodi-0.dtd"
   xmlns:inkscape="http://www.inkscape.org/namespaces/inkscape"
   width="30.541"
   height="30.541"
   id="svg3101"
   version="1.1"
   inkscape:version="0.48.5 r10040"
   sodipodi:docname="New document 2">
  <defs
     id="defs3103" />
  <sodipodi:namedview
     id="base"
     pagecolor="#ffffff"
     bordercolor="#666666"
     borderopacity="1.0"
     inkscape:pageopacity="0.0"
     inkscape:pageshadow="2"
     inkscape:zoom="0.35"
     inkscape:cx="15.2705"
     inkscape:cy="15.270497"
     inkscape:document-units="px"
     inkscape:current-layer="layer1"
     showgrid="false"
     fit-margin-top="0"
     fit-margin-left="0"
     fit-margin-right="0"
     fit-margin-bottom="0"
     inkscape:window-width="463"
     inkscape:window-height="453"
     inkscape:window-x="125"
     inkscape:window-y="125"
     inkscape:window-maximized="0" />
  <metadata
     id="metadata3106">
    <rdf:RDF>
      <cc:Work
         rdf:about="">
        <dc:format>image/svg+xml</dc:format>
        <dc:type
           rdf:resource="http://purl.org/dc/dcmitype/StillImage" />
        <dc:title></dc:title>
      </cc:Work>
    </rdf:RDF>
  </metadata>
  <g
     inkscape:label="Layer 1"
     inkscape:groupmode="layer"
     id="layer1"
     transform="translate(-359.7295,-517.09168)">
    <g
       transform="translate(266.1745,465.84568)"
       id="g27">
      <path
         style="fill:#f6f6f6"
         inkscape:connector-curvature="0"
         d="m 110.018,64.13 h -0.239 v -1.91 h 0.086 c 0.114,-0.25 0.394,-0.424 0.667,-0.407 0.509,0.002 1.018,0 1.527,10e-4 0,-0.024 -10e-4,-0.048 0,-0.071 h 0.105 v -2.386 h -0.105 -0.372 -2.397 c -0.614,0.07 -1.226,0.267 -1.68,0.7 -0.376,0.347 -0.599,0.826 -0.694,1.324 v 2.75 h -1.431 v 2.37 l 1.37,-0.003 c 0,0.007 0,0.013 0,0.019 h 0.062 v 7.158 h 2.863 v -7.158 h 0.028 c 0,-0.005 0,-0.011 0,-0.016 h 1.955 l 0.022,-0.072 c 0.112,-0.763 0.207,-1.529 0.263,-2.298 h -2.03 z"
         id="path29" />
      <path
         style="fill:#f6f6f6"
         inkscape:connector-curvature="0"
         d="m 108.825,51.246 c -8.434,0 -15.27,6.837 -15.27,15.271 0,8.433 6.836,15.27 15.27,15.27 8.434,0 15.271,-6.836 15.271,-15.27 0,-8.434 -6.837,-15.271 -15.271,-15.271 z m 10e-4,28.553 c -7.291,0 -13.203,-5.911 -13.203,-13.203 0,-7.292 5.912,-13.202 13.203,-13.202 7.291,0 13.202,5.911 13.202,13.202 0,7.292 -5.911,13.203 -13.202,13.203 z"
         id="path31" />
    </g>
  </g>
</svg>
