<?xml version="1.0" encoding="UTF-8" standalone="no"?>
<!-- Created with Inkscape (http://www.inkscape.org/) -->

<svg
   xmlns:dc="http://purl.org/dc/elements/1.1/"
   xmlns:cc="http://creativecommons.org/ns#"
   xmlns:rdf="http://www.w3.org/1999/02/22-rdf-syntax-ns#"
   xmlns:svg="http://www.w3.org/2000/svg"
   xmlns="http://www.w3.org/2000/svg"
   xmlns:sodipodi="http://sodipodi.sourceforge.net/DTD/sodipodi-0.dtd"
   xmlns:inkscape="http://www.inkscape.org/namespaces/inkscape"
   width="30.541"
   height="30.541"
   id="svg3422"
   version="1.1"
   inkscape:version="0.48.5 r10040"
   sodipodi:docname="New document 20">
  <defs
     id="defs3424" />
  <sodipodi:namedview
     id="base"
     pagecolor="#ffffff"
     bordercolor="#666666"
     borderopacity="1.0"
     inkscape:pageopacity="0.0"
     inkscape:pageshadow="2"
     inkscape:zoom="0.35"
     inkscape:cx="-318.30093"
     inkscape:cy="-287.58664"
     inkscape:document-units="px"
     inkscape:current-layer="layer1"
     showgrid="false"
     fit-margin-top="0"
     fit-margin-left="0"
     fit-margin-right="0"
     fit-margin-bottom="0"
     inkscape:window-width="463"
     inkscape:window-height="453"
     inkscape:window-x="150"
     inkscape:window-y="150"
     inkscape:window-maximized="0" />
  <metadata
     id="metadata3427">
    <rdf:RDF>
      <cc:Work
         rdf:about="">
        <dc:format>image/svg+xml</dc:format>
        <dc:type
           rdf:resource="http://purl.org/dc/dcmitype/StillImage" />
        <dc:title></dc:title>
      </cc:Work>
    </rdf:RDF>
  </metadata>
  <g
     inkscape:label="Layer 1"
     inkscape:groupmode="layer"
     id="layer1"
     transform="translate(-693.30093,-214.23454)">
    <g
       transform="translate(599.74593,127.99254)"
       id="g33">
      <g
         id="g35">
        <path
           style="fill:#f6f6f6"
           inkscape:connector-curvature="0"
           d="m 105.389,102.12 c -0.744,0 -1.348,0.868 -1.348,1.94 0,1.073 0.604,1.941 1.348,1.941 0.745,0 1.348,-0.869 1.348,-1.941 -10e-4,-1.072 -0.604,-1.94 -1.348,-1.94 z"
           id="path37" />
        <path
           style="fill:#f6f6f6"
           inkscape:connector-curvature="0"
           d="m 112.622,102.12 c -0.745,0 -1.348,0.868 -1.348,1.94 0,1.073 0.603,1.941 1.348,1.941 0.744,0 1.347,-0.869 1.347,-1.941 0,-1.072 -0.603,-1.94 -1.347,-1.94 z"
           id="path39" />
        <path
           style="fill:#f6f6f6"
           inkscape:connector-curvature="0"
           d="m 115.869,97.803 c 0.172,-0.556 0.402,-1.788 -0.229,-3.368 0,0 -1.114,-0.354 -3.634,1.333 -0.987,-0.247 -2.037,-0.369 -3.087,-0.369 -1.158,0 -2.327,0.147 -3.418,0.447 -2.599,-1.774 -3.746,-1.411 -3.746,-1.411 -0.75,1.874 -0.286,3.26 -0.146,3.604 -0.881,0.951 -1.418,2.165 -1.418,3.651 0,1.123 0.128,2.13 0.44,3.006 l 0.328,0.743 c 0.876,1.635 2.609,2.692 5.686,3.023 0,0 2.009,0.347 4.655,0.006 3.283,-0.324 4.858,-1.386 5.585,-3.032 l 0.259,-0.734 c 0.243,-0.878 0.316,-1.888 0.316,-3.013 0,-1.613 -0.606,-2.904 -1.591,-3.886 z m -6.978,10.056 c -3.578,0 -6.479,-0.539 -6.479,-3.997 0,-0.828 0.407,-1.597 1.105,-2.235 1.166,-1.062 3.137,-0.499 5.374,-0.499 2.226,-0.001 4.192,-0.569 5.358,0.486 h 0 c 0.707,0.642 1.121,1.415 1.121,2.248 10e-4,3.893 -2.901,3.997 -6.479,3.997 z"
           id="path41" />
      </g>
      <path
         style="fill:#f6f6f6"
         inkscape:connector-curvature="0"
         d="m 108.825,86.242 c -8.434,0 -15.27,6.836 -15.27,15.27 0,8.433 6.836,15.271 15.27,15.271 8.434,0 15.271,-6.837 15.271,-15.271 0,-8.433 -6.837,-15.27 -15.271,-15.27 z m 10e-4,28.553 c -7.291,0 -13.203,-5.911 -13.203,-13.202 0,-7.291 5.912,-13.202 13.203,-13.202 7.291,0 13.202,5.911 13.202,13.202 0,7.291 -5.911,13.202 -13.202,13.202 z"
         id="path43" />
    </g>
  </g>
</svg>
