<?xml version="1.0" encoding="UTF-8" standalone="no"?>
<!-- Created with Inkscape (http://www.inkscape.org/) -->

<svg
   xmlns:dc="http://purl.org/dc/elements/1.1/"
   xmlns:cc="http://creativecommons.org/ns#"
   xmlns:rdf="http://www.w3.org/1999/02/22-rdf-syntax-ns#"
   xmlns:svg="http://www.w3.org/2000/svg"
   xmlns="http://www.w3.org/2000/svg"
   xmlns:sodipodi="http://sodipodi.sourceforge.net/DTD/sodipodi-0.dtd"
   xmlns:inkscape="http://www.inkscape.org/namespaces/inkscape"
   width="30.541"
   height="30.540001"
   id="svg3174"
   version="1.1"
   inkscape:version="0.48.5 r10040"
   sodipodi:docname="New document 6">
  <defs
     id="defs3176" />
  <sodipodi:namedview
     id="base"
     pagecolor="#ffffff"
     bordercolor="#666666"
     borderopacity="1.0"
     inkscape:pageopacity="0.0"
     inkscape:pageshadow="2"
     inkscape:zoom="0.35"
     inkscape:cx="15.2705"
     inkscape:cy="15.269997"
     inkscape:document-units="px"
     inkscape:current-layer="layer1"
     showgrid="false"
     fit-margin-top="0"
     fit-margin-left="0"
     fit-margin-right="0"
     fit-margin-bottom="0"
     inkscape:window-width="463"
     inkscape:window-height="453"
     inkscape:window-x="25"
     inkscape:window-y="25"
     inkscape:window-maximized="0" />
  <metadata
     id="metadata3179">
    <rdf:RDF>
      <cc:Work
         rdf:about="">
        <dc:format>image/svg+xml</dc:format>
        <dc:type
           rdf:resource="http://purl.org/dc/dcmitype/StillImage" />
        <dc:title></dc:title>
      </cc:Work>
    </rdf:RDF>
  </metadata>
  <g
     inkscape:label="Layer 1"
     inkscape:groupmode="layer"
     id="layer1"
     transform="translate(-359.7295,-517.09218)">
    <g
       transform="translate(300.7265,501.15418)"
       id="g59">
      <g
         id="g61">
        <path
           style="fill:#ec6314"
           inkscape:connector-curvature="0"
           d="m 76.151,24.157 c 0,0 -3.377,0 -4.458,0 -1.081,0 -1.933,0.686 -1.933,0.686 -1.401,0.865 -1.7,2.833 -1.371,3.937 0.328,1.103 1.968,1.968 2.565,1.968 0.597,0 0.507,0.299 0.507,0.299 -0.119,0.387 0.232,0.705 0.232,0.705 0.322,0.597 -1.038,0.438 -1.038,0.438 -2.188,0.08 -3.419,2.227 -3.419,2.894 0,0.667 0.437,3.469 4.851,3.151 4.415,-0.319 4.057,-3.46 4.057,-3.46 -0.089,-1.76 -1.67,-3.102 -2.207,-3.566 -0.538,-0.465 0.179,-1.057 0.179,-1.057 0,0 0.984,-0.417 1.372,-1.67 0.388,-1.252 0.03,-1.938 -0.299,-2.475 -0.328,-0.537 0.15,-0.478 0.15,-0.478 0.447,-0.031 0.812,-0.536 0.812,-0.536 0.693,-0.597 0,-0.836 0,-0.836 z m -5.718,3.847 c -0.344,-1.269 0.089,-2.312 0.753,-2.446 0.664,-0.134 1.305,0.164 1.872,1.044 0.243,0.378 0.365,0.782 0.403,1.16 h 0 c 0.183,0.736 -0.15,1.465 -0.15,1.465 -0.478,0.88 -1.372,0.507 -1.372,0.507 0,0 -1.163,-0.463 -1.506,-1.73 z m 3.742,6.311 0,0 c 0.001,0 0.238,0.351 0.254,0.932 0.029,0.39 -0.08,1.366 -1.825,1.648 v -0.001 c -0.37,0.07 -0.804,0.073 -1.306,-0.037 0,0 -0.668,-0.118 -0.968,-0.288 l 0.003,-0.004 c -1.267,-0.559 -0.967,-2.126 -0.632,-2.427 0.31,-0.279 1.556,-1.137 2.789,-0.863 0.006,0.001 1.174,0.143 1.685,1.04 z"
           id="path63" />
        <g
           id="g65">
          <path
             style="fill:#ec6314"
             inkscape:connector-curvature="0"
             d="m 82.909,29.97 c 0,-0.123 -0.101,-0.223 -0.223,-0.223 h -2.447 c -0.123,0 -0.223,-0.101 -0.223,-0.223 v -2.447 c 0,-0.123 -0.101,-0.223 -0.223,-0.223 h -0.688 c -0.123,0 -0.223,0.101 -0.223,0.223 v 2.447 c 0,0.123 -0.101,0.223 -0.223,0.223 h -2.446 c -0.123,0 -0.223,0.101 -0.223,0.223 v 0.687 c 0,0.123 0.101,0.223 0.223,0.223 h 2.446 c 0.123,0 0.223,0.101 0.223,0.223 v 2.447 c 0,0.123 0.101,0.223 0.223,0.223 h 0.688 c 0.123,0 0.223,-0.101 0.223,-0.223 v -2.447 c 0,-0.123 0.101,-0.223 0.223,-0.223 h 2.447 c 0.123,0 0.223,-0.101 0.223,-0.223 V 29.97 z"
             id="path67" />
        </g>
      </g>
      <path
         style="fill:#ec6314"
         inkscape:connector-curvature="0"
         d="m 74.273,15.938 c -8.434,0 -15.27,6.836 -15.27,15.27 0,8.433 6.836,15.27 15.27,15.27 8.434,0 15.271,-6.837 15.271,-15.27 0,-8.434 -6.836,-15.27 -15.271,-15.27 z m 0.002,28.553 c -7.292,0 -13.203,-5.911 -13.203,-13.203 0,-7.292 5.911,-13.203 13.203,-13.203 7.291,0 13.202,5.912 13.202,13.203 0,7.293 -5.912,13.203 -13.202,13.203 z"
         id="path69" />
    </g>
  </g>
</svg>
