<?xml version="1.0" encoding="utf-8"?>
<!-- Generator: Adobe Illustrator 15.0.0, SVG Export Plug-In . SVG Version: 6.00 Build 0)  -->
<!DOCTYPE svg PUBLIC "-//W3C//DTD SVG 1.1//EN" "http://www.w3.org/Graphics/SVG/1.1/DTD/svg11.dtd">
<svg version="1.1" id="Layer_1" xmlns="http://www.w3.org/2000/svg" xmlns:xlink="http://www.w3.org/1999/xlink" x="0px" y="0px"
	 width="70px" height="70px" viewBox="0 0 70 70" enable-background="new 0 0 70 70" xml:space="preserve">
<circle fill="#FFFFFF" cx="35" cy="34.667" r="32.667"/>
<path fill="#F97B3D" d="M34.965,37.717l-0.483-3.174c0,0-0.162-1.397-2.474-3.656c-2.312-2.258-5.324-6.13-5.324-6.13
	s4.248,2.527,8.281,2.527c4.033,0,7.583-2.043,8.282-2.527c0,0-3.926,5.163-5.271,6.023c0,0-2.205,2.581-2.366,3.657
	C35.45,35.512,34.965,37.717,34.965,37.717z"/>
<path fill="#F97B3D" d="M25.125,52.666c0,0,0.86-2.527,6.185-4.678c0,0,3.441-1.237,3.656-3.389c0,0,0.915,2.366,3.765,3.389
	c0,0,5.646,2.42,6.184,4.678C44.914,52.666,35.396,57.022,25.125,52.666z"/>
<path fill="#F97B3D" d="M44.914,42.664c0,0-3.441-3.603-5.324-5.378c-1.882-1.774,0-3.388,0-3.388l4.84-5.055
	c2.635-2.474,3.119-5.539,3.119-5.539s0,0,0.27-3.926c0.269-3.926-2.904-4.518-2.904-4.518c-5.324-2.42-14.466-1.505-18.768-0.483
	c-4.302,1.021-3.979,4.894-3.979,4.894s0,0,0.107,3.388c0.107,3.388,3.119,5.969,3.818,6.668c0.699,0.699,4.786,5.163,4.786,5.163
	c1.338,1.458-0.752,2.796-0.752,2.796l-5.001,5.378c-2.474,3.011-3.012,4.947-2.963,9.142c0.048,4.195,4.522,5.217,4.522,5.217
	c8.013,1.936,14.142,0.538,17.423-0.322c3.28-0.86,3.549-2.42,3.727-6.454C48.012,46.213,44.914,42.664,44.914,42.664z
	 M34.966,14.861c5.97,0,10.81,1.144,10.81,2.554c0,1.411-4.84,2.554-10.81,2.554s-10.809-1.143-10.809-2.554
	C24.157,16.005,28.996,14.861,34.966,14.861z M43.247,55.517c-3.818,0.914-11.239,1.613-16.025,0c0,0-4.033-0.161-3.442-4.625
	l-0.06-2.151c0,0,0.113-2.635,2.963-5.377c2.85-2.743,6.561-6.238,6.238-7.852c0,0-0.699-1.99-2.634-3.926
	c-1.937-1.936-4.679-5.055-4.679-5.055s-1.721-1.344-1.828-4.679v-2.796c0,0,3.979,2.582,11.239,2.582c0,0,8.551,0.054,11.239-2.582
	c0,0,0.86,5.378-1.989,7.636l-4.841,5.485c0,0-3.28,2.85-1.774,4.787c1.506,1.936,4.84,5.592,4.84,5.592s4.331,3.013,3.887,8.443
	C46.381,50.999,47.064,54.602,43.247,55.517z"/>
</svg>
