<?xml version="1.0" encoding="UTF-8" standalone="no"?>
<!-- Created with Inkscape (http://www.inkscape.org/) -->

<svg
   xmlns:dc="http://purl.org/dc/elements/1.1/"
   xmlns:cc="http://creativecommons.org/ns#"
   xmlns:rdf="http://www.w3.org/1999/02/22-rdf-syntax-ns#"
   xmlns:svg="http://www.w3.org/2000/svg"
   xmlns="http://www.w3.org/2000/svg"
   xmlns:sodipodi="http://sodipodi.sourceforge.net/DTD/sodipodi-0.dtd"
   xmlns:inkscape="http://www.inkscape.org/namespaces/inkscape"
   width="30.541"
   height="30.542"
   id="svg3323"
   version="1.1"
   inkscape:version="0.48.5 r10040"
   sodipodi:docname="New document 14">
  <defs
     id="defs3325" />
  <sodipodi:namedview
     id="base"
     pagecolor="#ffffff"
     bordercolor="#666666"
     borderopacity="1.0"
     inkscape:pageopacity="0.0"
     inkscape:pageshadow="2"
     inkscape:zoom="0.35"
     inkscape:cx="15.2705"
     inkscape:cy="15.270997"
     inkscape:document-units="px"
     inkscape:current-layer="layer1"
     showgrid="false"
     fit-margin-top="0"
     fit-margin-left="0"
     fit-margin-right="0"
     fit-margin-bottom="0"
     inkscape:window-width="463"
     inkscape:window-height="453"
     inkscape:window-x="25"
     inkscape:window-y="25"
     inkscape:window-maximized="0" />
  <metadata
     id="metadata3328">
    <rdf:RDF>
      <cc:Work
         rdf:about="">
        <dc:format>image/svg+xml</dc:format>
        <dc:type
           rdf:resource="http://purl.org/dc/dcmitype/StillImage" />
        <dc:title></dc:title>
      </cc:Work>
    </rdf:RDF>
  </metadata>
  <g
     inkscape:label="Layer 1"
     inkscape:groupmode="layer"
     id="layer1"
     transform="translate(-359.7295,-517.09118)">
    <g
       transform="translate(300.7265,430.95318)"
       id="g53">
      <path
         style="fill:#ec6314;fill-rule:evenodd"
         inkscape:connector-curvature="0"
         clip-rule="evenodd"
         d="m 78.59,94.4 c 1.185,4.543 2.181,9.277 3.438,13.749 -0.651,0.496 -1.601,0.692 -2.865,0.574 -0.839,-2.694 -1.915,-5.151 -2.292,-8.307 -0.968,1.609 -0.75,4.407 -0.859,6.874 -0.84,0.498 -1.999,0.676 -3.438,0.574 -0.674,-1.427 -1.869,-2.333 -2.292,-4.01 -0.726,0.745 0.402,2.066 0,3.437 -0.672,0.571 -1.823,0.661 -3.151,0.574 -0.286,-3.533 -0.751,-6.889 -0.573,-10.885 4.041,-2.292 4.883,2.721 6.303,4.87 1.281,-2.964 0.559,-9.318 5.729,-7.45 z"
         id="path55" />
      <path
         style="fill:#ec6314"
         inkscape:connector-curvature="0"
         d="m 74.273,86.138 c -8.434,0 -15.27,6.837 -15.27,15.271 0,8.434 6.836,15.271 15.27,15.271 8.434,0 15.271,-6.837 15.271,-15.271 0,-8.434 -6.836,-15.271 -15.271,-15.271 z m 0.002,28.554 c -7.292,0 -13.203,-5.911 -13.203,-13.203 0,-7.292 5.911,-13.203 13.203,-13.203 7.291,0 13.202,5.911 13.202,13.203 0,7.293 -5.912,13.203 -13.202,13.203 z"
         id="path57" />
    </g>
  </g>
</svg>
