<?xml version="1.0" encoding="utf-8"?>
<!-- Generator: Adobe Illustrator 15.0.0, SVG Export Plug-In . SVG Version: 6.00 Build 0)  -->
<!DOCTYPE svg PUBLIC "-//W3C//DTD SVG 1.1//EN" "http://www.w3.org/Graphics/SVG/1.1/DTD/svg11.dtd">
<svg version="1.1" id="Layer_1" xmlns="http://www.w3.org/2000/svg" xmlns:xlink="http://www.w3.org/1999/xlink" x="0px" y="0px"
	 width="792px" height="612px" viewBox="0 0 792 612" enable-background="new 0 0 792 612" xml:space="preserve">
<g>
	<g>
		<path fill="#F9A15F" d="M35.677,101.452c-0.744,0-1.348,0.868-1.348,1.94c0,1.071,0.604,1.941,1.348,1.941
			c0.745,0,1.348-0.87,1.348-1.941C37.025,102.319,36.421,101.452,35.677,101.452z"/>
		<path fill="#F9A15F" d="M42.909,101.452c-0.745,0-1.347,0.868-1.347,1.94c0,1.071,0.603,1.941,1.347,1.941
			c0.745,0,1.348-0.87,1.348-1.941C44.257,102.319,43.654,101.452,42.909,101.452z"/>
		<path fill="#F9A15F" d="M46.158,97.134c0.172-0.556,0.401-1.789-0.23-3.368c0,0-1.113-0.354-3.632,1.333
			c-0.987-0.247-2.037-0.369-3.089-0.369c-1.157,0-2.327,0.147-3.418,0.446c-2.599-1.773-3.747-1.411-3.747-1.411
			c-0.75,1.874-0.287,3.26-0.146,3.605c-0.88,0.951-1.417,2.163-1.417,3.651c0,1.122,0.127,2.13,0.44,3.004l0.328,0.745
			c0.877,1.635,2.608,2.692,5.686,3.025c0,0,2.008,0.346,4.655,0.005c3.283-0.325,4.858-1.386,5.584-3.033l0.259-0.734
			c0.244-0.877,0.317-1.886,0.317-3.013C47.749,99.407,47.142,98.115,46.158,97.134z M39.18,107.189
			c-3.579,0-6.479-0.537-6.479-3.997c0-0.827,0.408-1.596,1.107-2.234c1.164-1.063,3.136-0.5,5.373-0.5
			c2.226-0.001,4.191-0.568,5.358,0.487l0,0c0.707,0.641,1.121,1.414,1.121,2.247C45.659,107.085,42.758,107.189,39.18,107.189z"/>
	</g>
	<path fill="#F9A15F" d="M39.114,85.573c-8.434,0-15.271,6.836-15.271,15.27c0,8.433,6.837,15.271,15.271,15.271
		c8.434,0,15.27-6.838,15.27-15.271C54.384,92.41,47.548,85.573,39.114,85.573z M39.114,114.126c-7.292,0-13.203-5.91-13.203-13.202
		s5.912-13.203,13.203-13.203c7.292,0,13.202,5.911,13.202,13.203S46.406,114.126,39.114,114.126z"/>
</g>
<g>
	<path fill="#F9A15F" d="M45.847,26.905c0.144-0.412,1.131,0.019,1.193-0.478c0.562,0.578-0.786,1.271-1.193,1.67
		c0.204,7.974-7.864,12.369-14.793,8.828c1.597-0.391,3.548-0.428,4.533-1.432c-1.238-0.511-2.312-1.188-2.863-2.386
		c-0.041-0.517,0.846-0.107,1.192-0.238c-1.247-0.662-2.267-1.55-2.385-3.34c0.427-0.031,0.503,0.292,0.954,0.238
		c-0.138-0.503-1.785-3-0.477-4.295c1.741,1.6,3.451,3.23,6.681,3.34c-0.037-3.217,3.695-5.28,6.204-3.102
		c0.859,0.063,1.149-0.44,1.909-0.477C46.797,26.107,46.123,26.307,45.847,26.905z"/>
	<path fill="#F9A15F" d="M39.114,15.741c-8.434,0-15.271,6.837-15.271,15.271c0,8.434,6.837,15.271,15.271,15.271
		c8.434,0,15.27-6.837,15.27-15.271C54.384,22.578,47.548,15.741,39.114,15.741z M39.115,44.294c-7.292,0-13.203-5.91-13.203-13.203
		c0-7.291,5.911-13.202,13.203-13.202S52.318,23.8,52.318,31.091C52.317,38.384,46.406,44.294,39.115,44.294z"/>
</g>
<g>
	<g>
		<path fill="#F6F6F6" d="M105.389,102.12c-0.744,0-1.348,0.868-1.348,1.94c0,1.073,0.604,1.941,1.348,1.941
			c0.745,0,1.348-0.869,1.348-1.941C106.736,102.988,106.133,102.12,105.389,102.12z"/>
		<path fill="#F6F6F6" d="M112.622,102.12c-0.745,0-1.348,0.868-1.348,1.94c0,1.073,0.603,1.941,1.348,1.941
			c0.744,0,1.347-0.869,1.347-1.941C113.969,102.988,113.366,102.12,112.622,102.12z"/>
		<path fill="#F6F6F6" d="M115.869,97.803c0.172-0.556,0.402-1.788-0.229-3.368c0,0-1.114-0.354-3.634,1.333
			c-0.987-0.247-2.037-0.369-3.087-0.369c-1.158,0-2.327,0.147-3.418,0.447c-2.599-1.774-3.746-1.411-3.746-1.411
			c-0.75,1.874-0.286,3.26-0.146,3.604c-0.881,0.951-1.418,2.165-1.418,3.651c0,1.123,0.128,2.13,0.44,3.006l0.328,0.743
			c0.876,1.635,2.609,2.692,5.686,3.023c0,0,2.009,0.347,4.655,0.006c3.283-0.324,4.858-1.386,5.585-3.032l0.259-0.734
			c0.243-0.878,0.316-1.888,0.316-3.013C117.46,100.076,116.854,98.785,115.869,97.803z M108.891,107.859
			c-3.578,0-6.479-0.539-6.479-3.997c0-0.828,0.407-1.597,1.105-2.235c1.166-1.062,3.137-0.499,5.374-0.499
			c2.226-0.001,4.192-0.569,5.358,0.486l0,0c0.707,0.642,1.121,1.415,1.121,2.248C115.371,107.755,112.469,107.859,108.891,107.859z
			"/>
	</g>
	<path fill="#F6F6F6" d="M108.825,86.242c-8.434,0-15.27,6.836-15.27,15.27c0,8.433,6.836,15.271,15.27,15.271
		c8.434,0,15.271-6.837,15.271-15.271C124.096,93.079,117.259,86.242,108.825,86.242z M108.826,114.795
		c-7.291,0-13.203-5.911-13.203-13.202s5.912-13.202,13.203-13.202s13.202,5.911,13.202,13.202S116.117,114.795,108.826,114.795z"/>
</g>
<g>
	<path fill="#F6F6F6" d="M115.557,27.574c0.145-0.411,1.132,0.019,1.193-0.477c0.563,0.578-0.786,1.27-1.193,1.67
		c0.205,7.974-7.863,12.369-14.793,8.828c1.598-0.39,3.548-0.427,4.534-1.431c-1.237-0.511-2.312-1.188-2.863-2.386
		c-0.04-0.518,0.846-0.108,1.193-0.238c-1.247-0.663-2.267-1.551-2.387-3.34c0.429-0.03,0.504,0.292,0.954,0.238
		c-0.138-0.503-1.785-2.999-0.477-4.294c1.741,1.6,3.452,3.229,6.681,3.34c-0.037-3.217,3.695-5.281,6.204-3.102
		c0.859,0.064,1.149-0.441,1.909-0.478C116.508,26.775,115.834,26.976,115.557,27.574z"/>
	<path fill="#F6F6F6" d="M108.825,16.41c-8.434,0-15.271,6.837-15.271,15.271s6.836,15.271,15.271,15.271
		c8.434,0,15.271-6.837,15.271-15.271S117.259,16.41,108.825,16.41z M108.826,44.963c-7.291,0-13.202-5.911-13.202-13.203
		c0-7.291,5.911-13.203,13.202-13.203c7.292,0,13.203,5.912,13.203,13.203C122.029,39.053,116.118,44.963,108.826,44.963z"/>
</g>
<rect fill="none" stroke="#000000" stroke-width="0.4257" stroke-miterlimit="10" width="232.627" height="170.957"/>
<g>
	<path fill="#F9A15F" d="M74.045,50.577c-8.434,0-15.27,6.836-15.27,15.27s6.836,15.27,15.27,15.27s15.27-6.836,15.27-15.27
		S82.479,50.577,74.045,50.577z M74.046,79.13c-7.292,0-13.203-5.91-13.203-13.202s5.911-13.203,13.203-13.203
		c7.291,0,13.203,5.911,13.203,13.203S81.337,79.13,74.046,79.13z"/>
	<rect x="66.523" y="63.269" fill="#F9A15F" width="3.309" height="9.955"/>
	<ellipse fill="#F9A15F" cx="68.189" cy="60.188" rx="1.861" ry="1.719"/>
	<path fill="#F9A15F" d="M79.368,63.269c-3.132-0.981-4.396,1.41-4.396,1.41v-1.41h-3.308v9.955h3.308v-5.693
		c0.222-2.062,2.066-1.865,2.066-1.865c1.663,0.167,1.417,2.463,1.417,2.463v5.094h3.309V68.13
		C81.764,63.791,79.368,63.269,79.368,63.269z"/>
</g>
<g>
	<path fill="#F6F6F6" d="M143.894,51.246c-8.434,0-15.27,6.836-15.27,15.27s6.836,15.27,15.27,15.27s15.27-6.836,15.27-15.27
		S152.328,51.246,143.894,51.246z M143.895,79.799c-7.292,0-13.203-5.91-13.203-13.202s5.911-13.203,13.203-13.203
		c7.291,0,13.203,5.911,13.203,13.203S151.186,79.799,143.895,79.799z"/>
	<rect x="136.372" y="63.938" fill="#F6F6F6" width="3.309" height="9.955"/>
	<ellipse fill="#F6F6F6" cx="138.037" cy="60.856" rx="1.861" ry="1.719"/>
	<path fill="#F6F6F6" d="M149.216,63.938c-3.132-0.981-4.396,1.41-4.396,1.41v-1.41h-3.308v9.955h3.308V68.2
		c0.222-2.062,2.066-1.865,2.066-1.865c1.663,0.167,1.417,2.463,1.417,2.463v5.094h3.309v-5.094
		C151.612,64.46,149.216,63.938,149.216,63.938z"/>
</g>
</svg>
