<?xml version="1.0" encoding="utf-8"?>
<!-- Generator: Adobe Illustrator 15.0.0, SVG Export Plug-In . SVG Version: 6.00 Build 0)  -->
<!DOCTYPE svg PUBLIC "-//W3C//DTD SVG 1.1//EN" "http://www.w3.org/Graphics/SVG/1.1/DTD/svg11.dtd">
<svg version="1.1" id="Layer_1" xmlns="http://www.w3.org/2000/svg" xmlns:xlink="http://www.w3.org/1999/xlink" x="0px" y="0px"
	 width="792px" height="612px" viewBox="0 0 792 612" enable-background="new 0 0 792 612" xml:space="preserve">
<g>
	<path fill="#EC6314" d="M40.306,63.461h-0.238v-1.909h0.085c0.114-0.249,0.393-0.423,0.667-0.407c0.508,0.003,1.019,0,1.526,0.001
		c0-0.023,0-0.047,0-0.071h0.107v-2.385h-0.106h-0.371h-2.398c-0.615,0.069-1.227,0.267-1.681,0.699
		c-0.375,0.347-0.598,0.826-0.693,1.325v2.748h-1.432v2.371l1.37-0.003c0,0.006,0,0.012,0,0.018h0.062v7.159h2.864v-7.159h0.026
		c0-0.004,0-0.009,0-0.015h1.956l0.021-0.072c0.112-0.763,0.208-1.529,0.263-2.299H40.306z"/>
	<path fill="#EC6314" d="M39.114,50.577c-8.434,0-15.271,6.836-15.271,15.27s6.837,15.27,15.271,15.27
		c8.434,0,15.27-6.836,15.27-15.27S47.548,50.577,39.114,50.577z M39.114,79.13c-7.292,0-13.203-5.91-13.203-13.202
		c0-7.291,5.912-13.202,13.203-13.202c7.292,0,13.202,5.911,13.202,13.202C52.316,73.22,46.406,79.13,39.114,79.13z"/>
</g>
<g>
	<g>
		<path fill="#EC6314" d="M35.677,101.452c-0.744,0-1.348,0.868-1.348,1.94c0,1.071,0.604,1.941,1.348,1.941
			c0.745,0,1.348-0.87,1.348-1.941C37.025,102.319,36.421,101.452,35.677,101.452z"/>
		<path fill="#EC6314" d="M42.909,101.452c-0.745,0-1.347,0.868-1.347,1.94c0,1.071,0.603,1.941,1.347,1.941
			c0.745,0,1.348-0.87,1.348-1.941C44.257,102.319,43.654,101.452,42.909,101.452z"/>
		<path fill="#EC6314" d="M46.158,97.134c0.172-0.556,0.401-1.789-0.23-3.368c0,0-1.113-0.354-3.632,1.333
			c-0.987-0.247-2.037-0.369-3.089-0.369c-1.157,0-2.327,0.147-3.418,0.446c-2.599-1.773-3.747-1.411-3.747-1.411
			c-0.75,1.874-0.287,3.26-0.146,3.605c-0.88,0.951-1.417,2.163-1.417,3.651c0,1.122,0.127,2.13,0.44,3.004l0.328,0.745
			c0.877,1.635,2.608,2.692,5.686,3.025c0,0,2.008,0.346,4.655,0.005c3.283-0.325,4.858-1.386,5.584-3.033l0.259-0.734
			c0.244-0.877,0.317-1.886,0.317-3.013C47.749,99.407,47.142,98.115,46.158,97.134z M39.18,107.189
			c-3.579,0-6.479-0.537-6.479-3.997c0-0.827,0.408-1.596,1.107-2.234c1.164-1.063,3.136-0.5,5.373-0.5
			c2.226-0.001,4.191-0.568,5.358,0.487l0,0c0.707,0.641,1.121,1.414,1.121,2.247C45.659,107.085,42.758,107.189,39.18,107.189z"/>
	</g>
	<path fill="#EC6314" d="M39.114,85.573c-8.434,0-15.271,6.836-15.271,15.27c0,8.433,6.837,15.271,15.271,15.271
		c8.434,0,15.27-6.838,15.27-15.271C54.384,92.41,47.548,85.573,39.114,85.573z M39.114,114.126c-7.292,0-13.203-5.91-13.203-13.202
		c0-7.292,5.912-13.203,13.203-13.203c7.292,0,13.202,5.911,13.202,13.203C52.316,108.216,46.406,114.126,39.114,114.126z"/>
</g>
<g>
	<path fill-rule="evenodd" clip-rule="evenodd" fill="#EC6314" d="M45.847,26.905c0.144-0.412,1.131,0.019,1.193-0.477
		c0.562,0.578-0.786,1.271-1.193,1.67c0.204,7.974-7.864,12.369-14.793,8.828c1.597-0.391,3.548-0.428,4.533-1.432
		c-1.238-0.511-2.312-1.188-2.863-2.386c-0.041-0.517,0.846-0.107,1.192-0.238c-1.247-0.662-2.267-1.55-2.385-3.34
		c0.427-0.031,0.503,0.292,0.954,0.238c-0.138-0.503-1.785-3-0.477-4.295c1.741,1.6,3.451,3.23,6.681,3.34
		c-0.037-3.217,3.695-5.28,6.204-3.102c0.859,0.063,1.149-0.44,1.909-0.477C46.797,26.107,46.123,26.307,45.847,26.905z"/>
	<path fill="#EC6314" d="M39.114,15.741c-8.434,0-15.271,6.837-15.271,15.271s6.837,15.271,15.271,15.271s15.27-6.837,15.27-15.271
		S47.548,15.741,39.114,15.741z M39.115,44.294c-7.292,0-13.203-5.91-13.203-13.203c0-7.291,5.911-13.202,13.203-13.202
		c7.292,0,13.203,5.911,13.203,13.202C52.317,38.384,46.406,44.294,39.115,44.294z"/>
</g>
<g>
	<path fill="#F6F6F6" d="M110.018,64.13h-0.239v-1.91h0.086c0.114-0.25,0.394-0.424,0.667-0.407c0.509,0.002,1.018,0,1.527,0.001
		c0-0.024-0.001-0.048,0-0.071h0.105v-2.386h-0.105h-0.372h-2.397c-0.614,0.07-1.226,0.267-1.68,0.7
		c-0.376,0.347-0.599,0.826-0.694,1.324v2.75h-1.431v2.37l1.37-0.003c0,0.007,0,0.013,0,0.019h0.062v7.158h2.863v-7.158h0.028
		c0-0.005,0-0.011,0-0.016h1.955l0.022-0.072c0.112-0.763,0.207-1.529,0.263-2.298H110.018z"/>
	<path fill="#F6F6F6" d="M108.825,51.246c-8.434,0-15.27,6.837-15.27,15.271c0,8.433,6.836,15.27,15.27,15.27
		c8.434,0,15.271-6.836,15.271-15.27C124.096,58.083,117.259,51.246,108.825,51.246z M108.826,79.799
		c-7.291,0-13.203-5.911-13.203-13.203c0-7.292,5.912-13.202,13.203-13.202c7.291,0,13.202,5.911,13.202,13.202
		C122.028,73.888,116.117,79.799,108.826,79.799z"/>
</g>
<g>
	<g>
		<path fill="#F6F6F6" d="M105.389,102.12c-0.744,0-1.348,0.868-1.348,1.94c0,1.073,0.604,1.941,1.348,1.941
			c0.745,0,1.348-0.869,1.348-1.941C106.736,102.988,106.133,102.12,105.389,102.12z"/>
		<path fill="#F6F6F6" d="M112.622,102.12c-0.745,0-1.348,0.868-1.348,1.94c0,1.073,0.603,1.941,1.348,1.941
			c0.744,0,1.347-0.869,1.347-1.941C113.969,102.988,113.366,102.12,112.622,102.12z"/>
		<path fill="#F6F6F6" d="M115.869,97.803c0.172-0.556,0.402-1.788-0.229-3.368c0,0-1.114-0.354-3.634,1.333
			c-0.987-0.247-2.037-0.369-3.087-0.369c-1.158,0-2.327,0.147-3.418,0.447c-2.599-1.774-3.746-1.411-3.746-1.411
			c-0.75,1.874-0.286,3.26-0.146,3.604c-0.881,0.951-1.418,2.165-1.418,3.651c0,1.123,0.128,2.13,0.44,3.006l0.328,0.743
			c0.876,1.635,2.609,2.692,5.686,3.023c0,0,2.009,0.347,4.655,0.006c3.283-0.324,4.858-1.386,5.585-3.032l0.259-0.734
			c0.243-0.878,0.316-1.888,0.316-3.013C117.46,100.076,116.854,98.785,115.869,97.803z M108.891,107.859
			c-3.578,0-6.479-0.539-6.479-3.997c0-0.828,0.407-1.597,1.105-2.235c1.166-1.062,3.137-0.499,5.374-0.499
			c2.226-0.001,4.192-0.569,5.358,0.486h0c0.707,0.642,1.121,1.415,1.121,2.248C115.371,107.755,112.469,107.859,108.891,107.859z"
			/>
	</g>
	<path fill="#F6F6F6" d="M108.825,86.242c-8.434,0-15.27,6.836-15.27,15.27c0,8.433,6.836,15.271,15.27,15.271
		c8.434,0,15.271-6.837,15.271-15.271C124.096,93.079,117.259,86.242,108.825,86.242z M108.826,114.795
		c-7.291,0-13.203-5.911-13.203-13.202c0-7.291,5.912-13.202,13.203-13.202c7.291,0,13.202,5.911,13.202,13.202
		C122.028,108.884,116.117,114.795,108.826,114.795z"/>
</g>
<g>
	<path fill="#F6F6F6" d="M115.557,27.574c0.145-0.411,1.132,0.019,1.193-0.477c0.563,0.578-0.786,1.27-1.193,1.67
		c0.205,7.974-7.863,12.369-14.793,8.828c1.598-0.39,3.548-0.427,4.534-1.431c-1.237-0.511-2.312-1.188-2.863-2.386
		c-0.04-0.518,0.846-0.108,1.193-0.238c-1.247-0.663-2.267-1.551-2.387-3.34c0.429-0.03,0.504,0.292,0.954,0.238
		c-0.138-0.503-1.785-2.999-0.477-4.294c1.741,1.6,3.452,3.229,6.681,3.34c-0.037-3.217,3.695-5.281,6.204-3.102
		c0.859,0.064,1.149-0.441,1.909-0.478C116.508,26.775,115.834,26.976,115.557,27.574z"/>
	<path fill="#F6F6F6" d="M108.825,16.41c-8.434,0-15.271,6.837-15.271,15.271c0,8.434,6.836,15.271,15.271,15.271
		c8.434,0,15.271-6.837,15.271-15.271C124.096,23.247,117.259,16.41,108.825,16.41z M108.826,44.963
		c-7.291,0-13.202-5.911-13.202-13.203c0-7.291,5.911-13.203,13.202-13.203c7.292,0,13.203,5.912,13.203,13.203
		C122.029,39.053,116.118,44.963,108.826,44.963z"/>
</g>
<rect fill="none" stroke="#000000" stroke-width="0.4257" stroke-miterlimit="10" width="232.627" height="170.957"/>
<g>
	<path fill-rule="evenodd" clip-rule="evenodd" fill="#EC6314" d="M78.59,94.4c1.185,4.543,2.181,9.277,3.438,13.749
		c-0.651,0.496-1.601,0.692-2.865,0.574c-0.839-2.694-1.915-5.151-2.292-8.307c-0.968,1.609-0.75,4.407-0.859,6.874
		c-0.84,0.498-1.999,0.676-3.438,0.574c-0.674-1.427-1.869-2.333-2.292-4.01c-0.726,0.745,0.402,2.066,0,3.437
		c-0.672,0.571-1.823,0.661-3.151,0.574c-0.286-3.533-0.751-6.889-0.573-10.885c4.041-2.292,4.883,2.721,6.303,4.87
		C74.142,98.886,73.42,92.532,78.59,94.4z"/>
	<path fill="#EC6314" d="M74.273,86.138c-8.434,0-15.27,6.837-15.27,15.271s6.836,15.271,15.27,15.271
		c8.434,0,15.271-6.837,15.271-15.271S82.708,86.138,74.273,86.138z M74.275,114.692c-7.292,0-13.203-5.911-13.203-13.203
		c0-7.292,5.911-13.203,13.203-13.203c7.291,0,13.202,5.911,13.202,13.203C87.477,108.782,81.565,114.692,74.275,114.692z"/>
</g>
<g>
	<g>
		<path fill="#EC6314" d="M76.151,24.157c0,0-3.377,0-4.458,0c-1.081,0-1.933,0.686-1.933,0.686c-1.401,0.865-1.7,2.833-1.371,3.937
			c0.328,1.103,1.968,1.968,2.565,1.968s0.507,0.299,0.507,0.299c-0.119,0.387,0.232,0.705,0.232,0.705
			c0.322,0.597-1.038,0.438-1.038,0.438c-2.188,0.08-3.419,2.227-3.419,2.894s0.437,3.469,4.851,3.151
			c4.415-0.319,4.057-3.46,4.057-3.46c-0.089-1.76-1.67-3.102-2.207-3.566c-0.538-0.465,0.179-1.057,0.179-1.057
			s0.984-0.417,1.372-1.67c0.388-1.252,0.03-1.938-0.299-2.475c-0.328-0.537,0.15-0.478,0.15-0.478
			c0.447-0.031,0.812-0.536,0.812-0.536C76.844,24.396,76.151,24.157,76.151,24.157z M70.433,28.004
			c-0.344-1.269,0.089-2.312,0.753-2.446c0.664-0.134,1.305,0.164,1.872,1.044c0.243,0.378,0.365,0.782,0.403,1.16h0
			c0.183,0.736-0.15,1.465-0.15,1.465c-0.478,0.88-1.372,0.507-1.372,0.507S70.776,29.271,70.433,28.004z M74.175,34.315
			L74.175,34.315c0.001,0,0.238,0.351,0.254,0.932c0.029,0.39-0.08,1.366-1.825,1.648v-0.001c-0.37,0.07-0.804,0.073-1.306-0.037
			c0,0-0.668-0.118-0.968-0.288l0.003-0.004c-1.267-0.559-0.967-2.126-0.632-2.427c0.31-0.279,1.556-1.137,2.789-0.863
			C72.496,33.276,73.664,33.418,74.175,34.315z"/>
		<g>
			<path fill="#EC6314" d="M82.909,29.97c0-0.123-0.101-0.223-0.223-0.223h-2.447c-0.123,0-0.223-0.101-0.223-0.223v-2.447
				c0-0.123-0.101-0.223-0.223-0.223h-0.688c-0.123,0-0.223,0.101-0.223,0.223v2.447c0,0.123-0.101,0.223-0.223,0.223h-2.446
				c-0.123,0-0.223,0.101-0.223,0.223v0.687c0,0.123,0.101,0.223,0.223,0.223h2.446c0.123,0,0.223,0.101,0.223,0.223v2.447
				c0,0.123,0.101,0.223,0.223,0.223h0.688c0.123,0,0.223-0.101,0.223-0.223v-2.447c0-0.123,0.101-0.223,0.223-0.223h2.447
				c0.123,0,0.223-0.101,0.223-0.223V29.97z"/>
		</g>
	</g>
	<path fill="#EC6314" d="M74.273,15.938c-8.434,0-15.27,6.836-15.27,15.27c0,8.433,6.836,15.27,15.27,15.27
		c8.434,0,15.271-6.837,15.271-15.27C89.544,22.774,82.708,15.938,74.273,15.938z M74.275,44.491
		c-7.292,0-13.203-5.911-13.203-13.203c0-7.292,5.911-13.203,13.203-13.203c7.291,0,13.202,5.912,13.202,13.203
		C87.477,38.581,81.565,44.491,74.275,44.491z"/>
</g>
<g>
	<path fill="#F6F6F6" d="M148.21,95.122c1.185,4.544,2.182,9.278,3.438,13.75c-0.651,0.496-1.601,0.692-2.865,0.574
		c-0.839-2.694-1.916-5.151-2.293-8.308c-0.967,1.611-0.747,4.407-0.858,6.875c-0.84,0.497-1.998,0.675-3.438,0.572
		c-0.674-1.427-1.869-2.332-2.291-4.01c-0.726,0.745,0.402,2.066,0,3.438c-0.671,0.569-1.823,0.66-3.152,0.572
		c-0.286-3.534-0.75-6.888-0.572-10.886c4.041-2.291,4.883,2.723,6.301,4.87C143.762,99.609,143.04,93.255,148.21,95.122z"/>
	<path fill="#F6F6F6" d="M143.893,86.861c-8.433,0-15.269,6.836-15.269,15.271c0,8.434,6.836,15.27,15.269,15.27
		c8.435,0,15.271-6.836,15.271-15.27C159.165,93.698,152.328,86.861,143.893,86.861z M143.895,115.415
		c-7.292,0-13.202-5.91-13.202-13.201c0-7.292,5.91-13.203,13.202-13.203c7.291,0,13.203,5.911,13.203,13.203
		C157.097,109.504,151.186,115.415,143.895,115.415z"/>
</g>
<g>
	<g>
		<path fill="#F6F6F6" d="M145.772,24.88c0,0-3.377,0-4.458,0c-1.08,0-1.932,0.686-1.932,0.686c-1.401,0.865-1.7,2.833-1.372,3.938
			c0.328,1.103,1.968,1.968,2.564,1.968c0.597,0,0.507,0.299,0.507,0.299c-0.119,0.388,0.232,0.706,0.232,0.706
			c0.322,0.596-1.037,0.438-1.037,0.438c-2.187,0.08-3.42,2.227-3.42,2.894s0.438,3.469,4.853,3.151
			c4.413-0.319,4.056-3.46,4.056-3.46c-0.09-1.759-1.67-3.102-2.208-3.566c-0.537-0.465,0.179-1.057,0.179-1.057
			s0.985-0.417,1.372-1.67c0.388-1.253,0.03-1.939-0.298-2.476c-0.329-0.537,0.148-0.479,0.148-0.479
			c0.448-0.031,0.813-0.536,0.813-0.536C146.464,25.119,145.772,24.88,145.772,24.88z M140.053,28.727
			c-0.343-1.267,0.09-2.311,0.753-2.445c0.663-0.134,1.305,0.164,1.871,1.044c0.244,0.378,0.366,0.782,0.404,1.161v0
			c0.183,0.735-0.15,1.465-0.15,1.465c-0.477,0.879-1.372,0.507-1.372,0.507S140.396,29.995,140.053,28.727z M143.795,35.038
			L143.795,35.038c0,0,0.238,0.351,0.254,0.933c0.029,0.391-0.08,1.367-1.824,1.647l0,0c-0.371,0.069-0.805,0.072-1.307-0.037
			c0,0-0.667-0.118-0.968-0.288l0.003-0.004c-1.267-0.56-0.967-2.126-0.632-2.428c0.31-0.279,1.556-1.137,2.789-0.864
			C142.116,33.999,143.285,34.142,143.795,35.038z"/>
		<polygon fill="#F6F6F6" points="152.529,30.47 149.635,30.47 149.635,27.577 148.502,27.577 148.502,30.47 145.61,30.47 
			145.61,31.603 148.502,31.603 148.502,34.496 149.635,34.496 149.635,31.603 152.529,31.603 		"/>
	</g>
	<path fill="#F6F6F6" d="M143.893,16.66c-8.433,0-15.269,6.837-15.269,15.271c0,8.434,6.836,15.271,15.269,15.271
		c8.435,0,15.271-6.837,15.271-15.271C159.165,23.497,152.328,16.66,143.893,16.66z M143.895,45.214
		c-7.292,0-13.202-5.911-13.202-13.203c0-7.292,5.91-13.203,13.202-13.203c7.291,0,13.203,5.911,13.203,13.203
		C157.097,39.303,151.186,45.214,143.895,45.214z"/>
</g>
<g>
	<path fill="#EC6314" d="M74.045,50.577c-8.434,0-15.27,6.836-15.27,15.27s6.836,15.27,15.27,15.27s15.27-6.836,15.27-15.27
		S82.479,50.577,74.045,50.577z M74.046,79.13c-7.292,0-13.203-5.91-13.203-13.202c0-7.292,5.911-13.203,13.203-13.203
		c7.291,0,13.203,5.911,13.203,13.203C87.249,73.22,81.337,79.13,74.046,79.13z"/>
	<rect x="66.523" y="63.269" fill="#EC6314" width="3.309" height="9.955"/>
	<ellipse fill="#EC6314" cx="68.189" cy="60.188" rx="1.861" ry="1.719"/>
	<path fill="#EC6314" d="M79.368,63.269c-3.132-0.981-4.396,1.41-4.396,1.41v-1.41h-3.308v9.955h3.308v-5.693
		c0.222-2.062,2.066-1.865,2.066-1.865c1.663,0.167,1.417,2.463,1.417,2.463v5.094h3.309V68.13
		C81.764,63.791,79.368,63.269,79.368,63.269z"/>
</g>
<g>
	<path fill="#F6F6F6" d="M143.894,51.246c-8.434,0-15.27,6.836-15.27,15.27s6.836,15.27,15.27,15.27s15.27-6.836,15.27-15.27
		S152.328,51.246,143.894,51.246z M143.895,79.799c-7.292,0-13.203-5.91-13.203-13.202c0-7.292,5.911-13.203,13.203-13.203
		c7.291,0,13.203,5.911,13.203,13.203C157.098,73.889,151.186,79.799,143.895,79.799z"/>
	<rect x="136.372" y="63.938" fill="#F6F6F6" width="3.309" height="9.955"/>
	<ellipse fill="#F6F6F6" cx="138.037" cy="60.856" rx="1.861" ry="1.719"/>
	<path fill="#F6F6F6" d="M149.216,63.938c-3.132-0.981-4.396,1.41-4.396,1.41v-1.41h-3.308v9.955h3.308V68.2
		c0.222-2.062,2.066-1.865,2.066-1.865c1.663,0.167,1.417,2.463,1.417,2.463v5.094h3.309v-5.094
		C151.612,64.46,149.216,63.938,149.216,63.938z"/>
</g>
</svg>
