<?xml version="1.0" encoding="UTF-8" standalone="no"?>
<!-- Created with Inkscape (http://www.inkscape.org/) -->

<svg
   xmlns:dc="http://purl.org/dc/elements/1.1/"
   xmlns:cc="http://creativecommons.org/ns#"
   xmlns:rdf="http://www.w3.org/1999/02/22-rdf-syntax-ns#"
   xmlns:svg="http://www.w3.org/2000/svg"
   xmlns="http://www.w3.org/2000/svg"
   xmlns:sodipodi="http://sodipodi.sourceforge.net/DTD/sodipodi-0.dtd"
   xmlns:inkscape="http://www.inkscape.org/namespaces/inkscape"
   width="30.541"
   height="30.542"
   id="svg3139"
   version="1.1"
   inkscape:version="0.48.5 r10040"
   sodipodi:docname="New document 4">
  <defs
     id="defs3141" />
  <sodipodi:namedview
     id="base"
     pagecolor="#ffffff"
     bordercolor="#666666"
     borderopacity="1.0"
     inkscape:pageopacity="0.0"
     inkscape:pageshadow="2"
     inkscape:zoom="0.35"
     inkscape:cx="144.55621"
     inkscape:cy="-644.729"
     inkscape:document-units="px"
     inkscape:current-layer="layer1"
     showgrid="false"
     fit-margin-top="0"
     fit-margin-left="0"
     fit-margin-right="0"
     fit-margin-bottom="0"
     inkscape:window-width="1280"
     inkscape:window-height="778"
     inkscape:window-x="-8"
     inkscape:window-y="-8"
     inkscape:window-maximized="1" />
  <metadata
     id="metadata3144">
    <rdf:RDF>
      <cc:Work
         rdf:about="">
        <dc:format>image/svg+xml</dc:format>
        <dc:type
           rdf:resource="http://purl.org/dc/dcmitype/StillImage" />
        <dc:title></dc:title>
      </cc:Work>
    </rdf:RDF>
  </metadata>
  <g
     inkscape:label="Layer 1"
     inkscape:groupmode="layer"
     id="layer1"
     transform="translate(-230.44379,142.90882)">
    <g
       transform="translate(206.60079,-158.64982)"
       id="g21">
      <path
         style="fill:#ec6314;fill-rule:evenodd"
         inkscape:connector-curvature="0"
         clip-rule="evenodd"
         d="m 45.847,26.905 c 0.144,-0.412 1.131,0.019 1.193,-0.477 0.562,0.578 -0.786,1.271 -1.193,1.67 0.204,7.974 -7.864,12.369 -14.793,8.828 1.597,-0.391 3.548,-0.428 4.533,-1.432 -1.238,-0.511 -2.312,-1.188 -2.863,-2.386 -0.041,-0.517 0.846,-0.107 1.192,-0.238 -1.247,-0.662 -2.267,-1.55 -2.385,-3.34 0.427,-0.031 0.503,0.292 0.954,0.238 -0.138,-0.503 -1.785,-3 -0.477,-4.295 1.741,1.6 3.451,3.23 6.681,3.34 -0.037,-3.217 3.695,-5.28 6.204,-3.102 0.859,0.063 1.149,-0.44 1.909,-0.477 -0.005,0.873 -0.679,1.073 -0.955,1.671 z"
         id="path23" />
      <path
         style="fill:#ec6314"
         inkscape:connector-curvature="0"
         d="m 39.114,15.741 c -8.434,0 -15.271,6.837 -15.271,15.271 0,8.434 6.837,15.271 15.271,15.271 8.434,0 15.27,-6.837 15.27,-15.271 0,-8.434 -6.836,-15.271 -15.27,-15.271 z m 0.001,28.553 c -7.292,0 -13.203,-5.91 -13.203,-13.203 0,-7.291 5.911,-13.202 13.203,-13.202 7.292,0 13.203,5.911 13.203,13.202 -10e-4,7.293 -5.912,13.203 -13.203,13.203 z"
         id="path25" />
    </g>
  </g>
</svg>
