<?xml version="1.0" encoding="UTF-8" standalone="no"?>
<!-- Created with Inkscape (http://www.inkscape.org/) -->

<svg
   xmlns:dc="http://purl.org/dc/elements/1.1/"
   xmlns:cc="http://creativecommons.org/ns#"
   xmlns:rdf="http://www.w3.org/1999/02/22-rdf-syntax-ns#"
   xmlns:svg="http://www.w3.org/2000/svg"
   xmlns="http://www.w3.org/2000/svg"
   xmlns:sodipodi="http://sodipodi.sourceforge.net/DTD/sodipodi-0.dtd"
   xmlns:inkscape="http://www.inkscape.org/namespaces/inkscape"
   width="30.542"
   height="30.542"
   id="svg3355"
   version="1.1"
   inkscape:version="0.48.5 r10040"
   sodipodi:docname="New document 16">
  <defs
     id="defs3357" />
  <sodipodi:namedview
     id="base"
     pagecolor="#ffffff"
     bordercolor="#666666"
     borderopacity="1.0"
     inkscape:pageopacity="0.0"
     inkscape:pageshadow="2"
     inkscape:zoom="0.35"
     inkscape:cx="15.271"
     inkscape:cy="15.270997"
     inkscape:document-units="px"
     inkscape:current-layer="layer1"
     showgrid="false"
     fit-margin-top="0"
     fit-margin-left="0"
     fit-margin-right="0"
     fit-margin-bottom="0"
     inkscape:window-width="463"
     inkscape:window-height="453"
     inkscape:window-x="75"
     inkscape:window-y="75"
     inkscape:window-maximized="0" />
  <metadata
     id="metadata3360">
    <rdf:RDF>
      <cc:Work
         rdf:about="">
        <dc:format>image/svg+xml</dc:format>
        <dc:type
           rdf:resource="http://purl.org/dc/dcmitype/StillImage" />
        <dc:title></dc:title>
      </cc:Work>
    </rdf:RDF>
  </metadata>
  <g
     inkscape:label="Layer 1"
     inkscape:groupmode="layer"
     id="layer1"
     transform="translate(-359.729,-517.09118)">
    <g
       transform="translate(266.175,500.68118)"
       id="g45">
      <path
         style="fill:#f6f6f6"
         inkscape:connector-curvature="0"
         d="m 115.557,27.574 c 0.145,-0.411 1.132,0.019 1.193,-0.477 0.563,0.578 -0.786,1.27 -1.193,1.67 0.205,7.974 -7.863,12.369 -14.793,8.828 1.598,-0.39 3.548,-0.427 4.534,-1.431 -1.237,-0.511 -2.312,-1.188 -2.863,-2.386 -0.04,-0.518 0.846,-0.108 1.193,-0.238 -1.247,-0.663 -2.267,-1.551 -2.387,-3.34 0.429,-0.03 0.504,0.292 0.954,0.238 -0.138,-0.503 -1.785,-2.999 -0.477,-4.294 1.741,1.6 3.452,3.229 6.681,3.34 -0.037,-3.217 3.695,-5.281 6.204,-3.102 0.859,0.064 1.149,-0.441 1.909,-0.478 -0.004,0.871 -0.678,1.072 -0.955,1.67 z"
         id="path47" />
      <path
         style="fill:#f6f6f6"
         inkscape:connector-curvature="0"
         d="m 108.825,16.41 c -8.434,0 -15.271,6.837 -15.271,15.271 0,8.434 6.836,15.271 15.271,15.271 8.434,0 15.271,-6.837 15.271,-15.271 0,-8.434 -6.837,-15.271 -15.271,-15.271 z m 10e-4,28.553 c -7.291,0 -13.202,-5.911 -13.202,-13.203 0,-7.291 5.911,-13.203 13.202,-13.203 7.292,0 13.203,5.912 13.203,13.203 0,7.293 -5.911,13.203 -13.203,13.203 z"
         id="path49" />
    </g>
  </g>
</svg>
