<?xml version="1.0" standalone="no"?>
<!DOCTYPE svg PUBLIC "-//W3C//DTD SVG 1.1//EN" "http://www.w3.org/Graphics/SVG/1.1/DTD/svg11.dtd" >
<svg xmlns="http://www.w3.org/2000/svg">
<metadata></metadata>
<defs>
<font id="the_sans_mono-regular" horiz-adv-x="1228" >
<font-face units-per-em="2048" ascent="1638" descent="-410" />
<missing-glyph horiz-adv-x="500" />
<glyph horiz-adv-x="2048" />
<glyph horiz-adv-x="2048" />
<glyph unicode="&#xd;" />
<glyph unicode=" " />
<glyph unicode="!" d="M475 113q0 57 39 96t98 39q57 0 97.5 -39t40.5 -96q0 -55 -40 -94t-98 -39q-59 0 -98 38.5t-39 94.5zM504 1448h217l-29 -1079h-155z" />
<glyph unicode="&#x22;" d="M293 1513h231l-32 -507h-166zM698 1513h232l-33 -507h-164z" />
<glyph unicode="#" d="M51 391v131h258l39 381h-242v131h256l37 348h152l-37 -348h268l37 348h152l-37 -348h244v-131h-258l-39 -381h239v-131h-254l-41 -391h-151l41 391h-269l-40 -391h-152l41 391h-244zM461 522h268l39 381h-268z" />
<glyph unicode="$" d="M154 1018q0 74 27.5 138.5t79.5 114.5t129 82.5t175 41.5l13 227h139l-10 -223q59 -2 126.5 -13.5t124.5 -29.5l-24 -156q-57 23 -118.5 35t-119.5 14l-20 -463q94 -33 165.5 -69.5t120 -82.5t73 -103.5t24.5 -131.5q0 -86 -32 -157.5t-89 -123.5t-135 -85t-170 -43 l-15 -299h-139l15 293q-76 2 -153 14t-144 35l20 182q125 -59 289 -65l20 481q-98 31 -167.5 66.5t-115.5 81.5t-67.5 103.5t-21.5 135.5zM346 1036q0 -76 44 -123t149 -86l16 416q-92 -10 -150.5 -62.5t-58.5 -144.5zM645 150q92 12 153.5 65.5t61.5 151.5q0 82 -43 133 t-153 94z" />
<glyph unicode="%" d="M59 1176q0 80 22.5 141t62.5 103t93.5 63.5t112.5 21.5q61 0 111.5 -15t86.5 -51t56.5 -93.5t20.5 -141.5q0 -80 -22.5 -142.5t-62.5 -105.5t-93.5 -65.5t-116.5 -22.5q-125 0 -198 71t-73 237zM70 51l962 1444l123 -92l-965 -1444zM209 1188q0 -102 27.5 -150.5 t101.5 -48.5q72 0 104.5 52.5t32.5 148.5q0 106 -27.5 150t-105.5 44q-66 0 -99.5 -52t-33.5 -144zM606 274q0 80 22.5 141.5t62.5 103.5t92.5 63.5t111.5 21.5q61 0 112.5 -15.5t87 -51t56 -93t20.5 -141.5q0 -80 -22.5 -142.5t-62 -105.5t-94 -65.5t-118.5 -22.5 q-125 0 -196.5 71t-71.5 236zM754 289q0 -102 27.5 -150.5t103.5 -48.5q70 0 103.5 51.5t33.5 149.5q0 104 -28.5 148t-106.5 44q-66 0 -99.5 -51t-33.5 -143z" />
<glyph unicode="&#x26;" d="M86 336q0 78 20.5 143.5t57.5 124t89 111.5t116 104q-115 115 -161 205t-46 178q0 63 23.5 120.5t69.5 100.5t114.5 68t156.5 25q160 0 244 -78t84 -201q0 -104 -55.5 -199.5t-186.5 -201.5q35 -35 76 -72t79 -72t68.5 -65.5t47.5 -48.5v-3q16 59 25.5 139.5t9.5 178.5 h174q0 -131 -21.5 -246t-60.5 -217q63 -92 104 -196.5t41 -233.5h-180q0 59 -18.5 128t-53.5 128q-31 -51 -75 -101.5t-100 -89t-124.5 -62t-150.5 -23.5q-92 0 -161 28.5t-115 76.5t-68.5 112.5t-22.5 138.5zM272 362q0 -43 13.5 -82.5t38 -71.5t62.5 -51.5t87 -19.5 q63 0 115.5 24.5t94.5 62.5t72.5 86.5t53.5 95.5q-88 102 -172 175.5t-154 137.5q-106 -88 -158.5 -170t-52.5 -187zM344 1212q0 -53 33 -119.5t125 -158.5q82 70 126 138.5t44 146.5q0 66 -38 109.5t-124 43.5q-72 0 -119 -44t-47 -116z" />
<glyph unicode="'" d="M475 1513h240l-35 -507h-170z" />
<glyph unicode="(" d="M332 569q0 156 35.5 299.5t102.5 274.5t161 248.5t209 222.5l104 -107q-209 -205 -318.5 -439t-109.5 -484q0 -516 430 -934l-110 -111q-258 236 -381 484.5t-123 545.5z" />
<glyph unicode=")" d="M293 1501l110 111q129 -119 224.5 -239t157 -247t92 -262t30.5 -282q0 -158 -35.5 -301.5t-102.5 -273.5t-161 -247.5t-209 -222.5l-104 107q209 205 318.5 439t109.5 484q0 516 -430 934z" />
<glyph unicode="*" d="M180 870l344 168l-342 170l72 121l315 -211l-22 381h139l-22 -381l313 209l72 -121l-340 -168l340 -166l-72 -122l-315 208l24 -380h-141l24 380l-319 -208z" />
<glyph unicode="+" d="M94 451v153h432v449h174v-449h435v-153h-435v-451h-174v451h-432z" />
<glyph unicode="," d="M279 -270q80 20 133 48.5t83.5 58.5t44 60.5t13.5 57.5q0 74 -61 139q-35 33 -42.5 77t8 83t50.5 65.5t86 26.5q49 0 85 -21.5t59.5 -57.5t34.5 -82t11 -97q0 -190 -123.5 -306t-347.5 -169z" />
<glyph unicode="-" d="M293 440v168h643v-168h-643z" />
<glyph unicode="." d="M426 158q0 76 52 128t128 52q74 0 126 -52.5t52 -127.5q0 -74 -52 -126t-126 -52q-76 0 -128 52t-52 126z" />
<glyph unicode="/" d="M238 14l559 1409l157 -53l-559 -1409z" />
<glyph unicode="0" d="M92 612q0 154 43 273t117 199.5t171 122.5t206 42q98 0 189 -31.5t162 -104.5t113 -192.5t42 -297.5q0 -156 -43 -276t-117 -202t-171 -123.5t-206 -41.5q-102 0 -194.5 32.5t-161 106.5t-109.5 194.5t-41 298.5zM289 623q0 -258 89 -373t236 -115q61 0 120 27.5t104 85 t72.5 146.5t27.5 212q0 256 -89 373t-237 117q-61 0 -119.5 -28t-103.5 -86t-72.5 -147.5t-27.5 -211.5z" />
<glyph unicode="1" d="M162 948l459 281h157v-1063h320v-166h-885v166h375v858l-361 -233z" />
<glyph unicode="2" d="M172 0v147l293 267q94 86 155.5 145t98.5 108.5t51 92.5t14 96q0 104 -61 166.5t-191 62.5q-90 0 -168.5 -33.5t-127.5 -72.5l-41 164q78 49 169 77.5t205 28.5q102 0 180 -28.5t130.5 -77.5t79 -115.5t26.5 -142.5q0 -66 -17.5 -124.5t-56.5 -117.5t-98 -122.5 t-143 -137.5l-240 -213l-8 -4q88 4 243.5 5t372.5 1v-172h-866z" />
<glyph unicode="3" d="M201 -160l20 168q53 -18 115.5 -29.5t128.5 -11.5q82 0 148.5 21.5t112.5 58.5t70.5 87t24.5 108q0 117 -84 184.5t-248 67.5q-53 0 -96 -1t-84 -4v148h43q221 0 330 65.5t109 190.5q0 98 -69 150.5t-181 52.5q-86 0 -157 -21.5t-134 -56.5l-21 166q72 29 156 47t186 18 q207 0 309.5 -91t102.5 -236q0 -121 -68.5 -204t-181.5 -118l-2 -2q63 -8 116.5 -37t92.5 -74t60.5 -101.5t21.5 -117.5q0 -98 -42 -182t-119 -145.5t-184.5 -96t-236.5 -34.5q-61 0 -125.5 8t-113.5 22z" />
<glyph unicode="4" d="M84 326l565 903h250v-885h236v-168h-236v-346h-182v346h-619zM270 338q45 2 109.5 3t130 2t122 1h87.5v700h-2z" />
<glyph unicode="5" d="M205 -170l14 162q51 -14 114.5 -19.5t117.5 -5.5q90 0 160.5 24.5t118.5 66.5t73.5 98.5t25.5 119.5q0 131 -97 202t-267 71q-61 0 -116.5 -4t-94.5 -10v694h721v-176h-549v-355q25 2 52.5 2h47.5q125 0 218.5 -31.5t157 -85t95 -126t31.5 -152.5q0 -104 -43 -195.5 t-122 -158t-188.5 -104t-240.5 -37.5q-49 0 -110.5 5t-118.5 15z" />
<glyph unicode="6" d="M152 565q0 221 51 379t142 259.5t216 148.5t270 47q31 0 65 -1t56 -5v-164q-33 4 -64.5 7t-72.5 3q-199 0 -311.5 -112.5t-153.5 -327.5q-4 -16 -9 -44t-9 -61h2q51 86 136 132t185 46q102 0 181 -30.5t133.5 -85t82 -128t27.5 -157.5q0 -111 -33.5 -202t-94 -155.5 t-146.5 -99t-191 -34.5q-217 0 -339.5 153.5t-122.5 431.5zM354 453q0 -63 17.5 -121t52.5 -101t87 -68.5t120 -25.5q123 0 192.5 84t69.5 219q0 123 -67.5 201t-202.5 78q-63 0 -113.5 -24.5t-84.5 -63.5t-52.5 -86t-18.5 -92z" />
<glyph unicode="7" d="M166 1049v180h899v-160q-156 -291 -287 -608.5t-205 -630.5h-211q86 330 214.5 641t275.5 582q-16 -2 -59 -2t-102.5 -1t-130.5 -1h-142.5h-137h-114.5z" />
<glyph unicode="8" d="M154 317q0 43 13 90.5t45 95.5t87 98t139 99q-139 76 -194.5 160t-55.5 189q0 80 31 146.5t88.5 115.5t138 75.5t179.5 26.5q193 0 301 -89t108 -232q0 -98 -61.5 -184.5t-208.5 -178.5q172 -84 242.5 -179.5t70.5 -199.5q0 -90 -38 -160.5t-102.5 -118.5t-153.5 -74 t-189 -26q-109 0 -190.5 26t-137 72t-84 109.5t-28.5 138.5zM346 334q0 -92 70.5 -152.5t199.5 -60.5q55 0 103.5 14.5t84.5 40t57.5 62.5t21.5 84q0 96 -72 163.5t-221 137.5q-125 -70 -184.5 -140.5t-59.5 -148.5zM373 1067q0 -72 55 -135.5t184 -128.5q129 78 180.5 143 t51.5 131q0 82 -56.5 135.5t-177.5 53.5q-117 0 -177 -57.5t-60 -141.5z" />
<glyph unicode="9" d="M135 774q0 104 35 192.5t97.5 151t148.5 97t188 34.5q100 0 185 -32.5t146.5 -103.5t96.5 -179t35 -262q0 -225 -54.5 -388t-151.5 -268.5t-228 -155.5t-285 -50q-41 0 -88 3t-88 11l16 168q47 -12 94.5 -17.5t94.5 -5.5q195 0 318.5 115t152.5 319q4 31 8 52.5t8 46.5 h-2q-53 -72 -135 -113t-188 -41q-96 0 -171 31t-127.5 87t-79 134t-26.5 174zM324 799q0 -129 67.5 -208t188.5 -79q66 0 117 22.5t86.5 59.5t54 85t18.5 101q0 139 -71.5 226.5t-196.5 87.5q-59 0 -108.5 -22.5t-84.5 -62.5t-53 -94.5t-18 -115.5z" />
<glyph unicode=":" d="M455 219q0 66 46 113t111 47q66 0 113 -47t47 -113t-47 -113t-113 -47t-111.5 47.5t-45.5 112.5zM455 866q0 66 46 112t111 46q66 0 113 -46t47 -112t-47 -112.5t-113 -46.5t-111.5 47t-45.5 112z" />
<glyph unicode=";" d="M289 -291q80 23 133 50.5t84 58t44 61.5t13 60q2 74 -61 137q-33 31 -39 74t9 80.5t49 64.5t83 27q47 0 82 -20.5t58.5 -56.5t35 -81t11.5 -94q2 -190 -121 -306t-346 -172zM455 866q0 66 46 112t111 46q66 0 113 -46t47 -112t-47 -112.5t-113 -46.5t-111.5 47t-45.5 112 z" />
<glyph unicode="&#x3c;" d="M131 512l762 592l119 -123l-627 -467l629 -453l-119 -129z" />
<glyph unicode="=" d="M162 268v152h905v-152h-905zM162 618v152h905v-152h-905z" />
<glyph unicode="&#x3e;" d="M172 55l627 467l-627 453l119 129l764 -580l-762 -592z" />
<glyph unicode="?" d="M309 1290l19 168q166 0 288.5 -31.5t202.5 -84t120 -122t40 -149.5q0 -82 -35 -141.5t-84 -107.5t-102 -92t-92 -94t-52.5 -114.5t19.5 -152.5h-184q-37 98 -27 171.5t47 130t89 100.5t100.5 87t83 87t34.5 102q0 121 -118.5 182t-348.5 61zM414 113q0 57 39 96t96 39 q59 0 98 -39t39 -96q0 -55 -39 -94t-98 -39q-57 0 -96 38.5t-39 94.5z" />
<glyph unicode="@" d="M49 631q0 172 47 314t128 243.5t191.5 158t237.5 56.5q125 0 222.5 -47t162 -129t98 -189.5t33.5 -228.5q0 -233 -84 -347t-213 -114q-82 0 -128 44t-50 118h-2q-6 -27 -20.5 -55.5t-37 -52t-53 -39t-67.5 -15.5q-76 0 -121 63.5t-45 215.5q0 86 15.5 161.5t50.5 132 t90 88t135 31.5q49 0 92 -6t90 -16l-14 -391q-4 -78 21.5 -112t58.5 -34q57 0 94 72t37 244q0 92 -21.5 177t-66.5 150.5t-116 105.5t-167 40t-177 -46t-140.5 -129t-92 -198t-32.5 -252q0 -119 25.5 -216t76.5 -166.5t127 -107.5t176 -38q119 0 228 45v-144 q-53 -18 -119 -28t-125 -10q-125 0 -225.5 46t-171 130t-109.5 204.5t-39 270.5zM487 647q0 -98 17.5 -134t42.5 -36q23 0 44 22.5t38.5 62.5t29 96.5t13.5 121.5l4 135q-4 4 -21.5 7.5t-38.5 3.5q-66 0 -97.5 -78t-31.5 -201z" />
<glyph unicode="A" d="M27 0l477 1382h225l475 -1382h-209l-106 317h-563l-111 -317h-188zM369 469h475l-185 547q-14 43 -26 86t-25 90h-2q-23 -92 -49 -170z" />
<glyph unicode="B" d="M182 0v1382q74 2 183.5 4.5t234.5 2.5q229 0 345 -88.5t116 -243.5q0 -109 -67.5 -198t-180.5 -124v-4q74 -12 126 -43t86 -74t50.5 -95t16.5 -105q0 -61 -25 -135t-86 -137.5t-166.5 -105.5t-267.5 -42q-63 0 -163.5 2t-201.5 4zM369 158q29 -4 78 -7.5t110 -3.5 q170 0 254 73t84 188q0 68 -30.5 112.5t-83 72.5t-122 39t-149.5 11h-26.5h-40t-42 -1t-32.5 -1v-483zM369 786q31 -2 65.5 -2h73.5q170 0 264 63.5t94 178.5q0 92 -65.5 151.5t-231.5 59.5q-49 0 -103 -1t-97 -3v-447z" />
<glyph unicode="C" d="M129 655q0 158 37 293t115.5 234.5t201.5 156t295 56.5q86 0 158 -11.5t143 -29.5l-20 -172q-78 25 -146.5 37t-146.5 12q-119 0 -201 -43t-133 -117t-74.5 -173t-23.5 -212q0 -256 105.5 -395t344.5 -139q76 0 153 19t136 50l21 -168q-76 -33 -162 -51t-193 -18 q-166 0 -281.5 50t-189 139t-106.5 213t-33 269z" />
<glyph unicode="D" d="M115 0v1380q80 2 172 5.5t205 3.5q334 0 497.5 -163t163.5 -519q0 -178 -49 -311.5t-143.5 -223.5t-228.5 -135t-304 -45q-53 0 -94 1t-77 3t-70.5 3t-71.5 1zM301 164q41 -6 74 -9t76 -3q244 0 373.5 129.5t129.5 412.5q0 131 -26.5 232.5t-84 170t-148.5 103.5t-220 35 q-55 0 -94 -2t-80 -4v-1065z" />
<glyph unicode="E" d="M242 0v1382h764v-155h-576v-439h551v-151h-551v-479h576v-158h-764z" />
<glyph unicode="F" d="M236 0v1382h763v-155h-575v-459h547v-152h-547v-616h-188z" />
<glyph unicode="G" d="M66 664q0 160 43 295t130 233t217 153.5t304 55.5q100 0 177 -15.5t169 -44.5l-29 -176q-88 35 -163.5 54.5t-170.5 19.5q-106 0 -194 -35t-150.5 -103.5t-96.5 -173t-34 -241.5q0 -258 113 -399.5t346 -141.5q33 0 59.5 3.5t50 7.5t46 11t49.5 15v523h188v-644 q-102 -39 -203.5 -59t-216.5 -20q-313 0 -473.5 180t-160.5 502z" />
<glyph unicode="H" d="M125 0v1382h188v-585h605v585h186v-1382h-186v637h-605v-637h-188z" />
<glyph unicode="I" d="M193 0v158h327v1071h-327v153h843v-153h-327v-1071h327v-158h-843z" />
<glyph unicode="J" d="M227 16l23 166q51 -18 114.5 -28.5t116.5 -10.5q57 0 109.5 14.5t91.5 49.5t62.5 92t23.5 143v783h-512v157h700v-970q0 -90 -30.5 -167t-90 -135.5t-149.5 -91t-209 -32.5q-57 0 -126.5 8t-123.5 22z" />
<glyph unicode="K" d="M186 0v1382h189v-651l497 651h234l-535 -667l557 -715h-258l-495 684v-684h-189z" />
<glyph unicode="L" d="M260 0v1382h189v-1224h622v-158h-811z" />
<glyph unicode="M" d="M68 0l86 1382h213l168 -477q16 -49 34.5 -106.5t30.5 -104.5h4q16 53 33.5 102.5t34.5 96.5l182 489h215l94 -1382h-174l-49 864q-6 102 -9 193.5t-3 146.5h-2q-12 -47 -30.5 -102t-35.5 -103l-205 -542h-125l-180 524q-16 51 -34.5 110.5t-30.5 112.5h-2 q-2 -72 -4.5 -159t-6.5 -185l-43 -860h-161z" />
<glyph unicode="N" d="M135 0v1382h244l412 -827q41 -78 76.5 -157t66.5 -150q-2 68 -5 160t-5 192t-3 201.5t-1 187.5v393h178v-1382h-242l-428 864q-39 78 -68.5 142.5t-60.5 136.5q2 -57 5 -143.5t5 -181.5t3 -193.5t1 -180.5v-444h-178z" />
<glyph unicode="O" d="M57 676q0 172 44 307t121 228.5t183.5 142.5t229.5 49q260 0 398 -176t138 -520q0 -172 -43 -307.5t-119.5 -228.5t-182 -142t-230.5 -49q-145 0 -247.5 50t-167 141t-94.5 219t-30 286zM258 702q0 -123 19.5 -225t61.5 -176t109.5 -114t163.5 -40q74 0 138.5 34 t113.5 101.5t78 168t29 233.5q0 268 -86 410.5t-269 142.5q-76 0 -141 -35t-113.5 -102.5t-76 -166.5t-27.5 -231z" />
<glyph unicode="P" d="M201 0v1382q82 4 176 6.5t188 2.5q246 0 382 -113t136 -303q0 -104 -43 -190.5t-118.5 -148t-179 -96t-222.5 -34.5q-33 0 -68.5 1t-64.5 5v-512h-186zM387 672q29 -4 64.5 -6t78.5 -2q166 2 261.5 80.5t95.5 213.5q0 133 -85 205t-255 72h-84t-76 -2v-561z" />
<glyph unicode="Q" d="M57 676q0 172 44 307t121 228.5t183.5 142.5t229.5 49q260 0 398 -176t138 -520q0 -172 -43 -307.5t-119.5 -228.5t-182 -142t-230.5 -49q-145 0 -247.5 50t-167 141t-94.5 219t-30 286zM258 702q0 -123 19.5 -225t61.5 -176t109.5 -114t163.5 -40q74 0 138.5 34 t113.5 101.5t78 168t29 233.5q0 268 -86 410.5t-269 142.5q-76 0 -141 -35t-113.5 -102.5t-76 -166.5t-27.5 -231zM528 -147q50 7 94 7q17 0 34 -1q57 -4 108 -14.5t99 -25t98.5 -24.5t106.5 -14q14 -1 29 -1q44 0 95 9v-168q-66 -10 -121 -10q-40 0 -75 5 q-83 13 -156.5 33.5t-145.5 36.5q-39 8 -82 8q-40 0 -84 -7v166z" />
<glyph unicode="R" d="M174 0v1382q72 4 167 6.5t208 2.5q102 0 191 -19.5t155 -62.5t102.5 -112t36.5 -167q0 -88 -34.5 -157.5t-94 -118.5t-138.5 -79t-165 -36q35 -37 64.5 -74t58.5 -71l401 -494h-241l-484 618h-39v-618h-188zM362 762q35 -2 69 -3t71 -1q154 0 245 68.5t91 179.5 q0 125 -85 178t-235 53q-37 0 -82 -1t-74 -3v-471z" />
<glyph unicode="S" d="M178 31l12 180q68 -29 160 -48.5t191 -19.5q139 0 222 57.5t83 164.5q0 80 -48 127t-121 81.5t-158 66.5t-157.5 79t-120.5 118.5t-48 186.5q0 82 33.5 151.5t96 120t151.5 78t202 27.5q86 0 156.5 -6t130.5 -17l-11 -168q-57 16 -130.5 26.5t-155.5 10.5 q-133 0 -206 -56t-73 -144q0 -57 28.5 -97.5t75 -71t104.5 -55t120.5 -50t121 -56.5t104.5 -75t74.5 -104.5t28.5 -144.5q0 -90 -36.5 -164.5t-105 -130t-165 -86t-215.5 -30.5q-100 0 -189 13t-155 36z" />
<glyph unicode="T" d="M104 1227v155h1020v-155h-415v-1227h-187v1227h-418z" />
<glyph unicode="U" d="M117 465v917h186v-903q0 -72 13.5 -134t48 -109.5t94 -74t153.5 -26.5q158 0 239 85t81 294v868h184v-854q0 -274 -134 -411t-384 -137q-152 0 -245 40.5t-146 109.5t-71.5 156t-18.5 179z" />
<glyph unicode="V" d="M33 1382h209l288 -901q18 -59 41 -134t45 -152h2q20 74 42 145.5t51 155.5l295 886h194l-473 -1382h-233z" />
<glyph unicode="W" d="M68 1382h172l55 -956q4 -66 8 -125t6 -125h2q14 57 32.5 116.5t35.5 110.5l168 506h133l188 -538q16 -43 33 -94.5t29 -100.5h4q0 106 6 203l55 1003h164l-96 -1382h-227l-174 494q-16 45 -31 92t-25 82h-2q-10 -41 -24.5 -89.5t-28.5 -91.5l-166 -487h-217z" />
<glyph unicode="X" d="M41 0l444 713l-417 669h219l321 -530l314 530h213l-410 -663l457 -719h-234l-348 573l-340 -573h-219z" />
<glyph unicode="Y" d="M23 1382h208l275 -503q35 -61 59.5 -112.5t46.5 -98.5h4q18 47 46 102t51 96l288 516h205l-504 -884v-498h-186v498z" />
<glyph unicode="Z" d="M135 0v139l617 914q29 43 56.5 84t57.5 82q-49 -2 -126.5 -3.5t-176.5 -1.5h-407v168h929v-143l-647 -950q-20 -31 -40.5 -60.5t-43.5 -60.5q33 4 121 4h223h396v-172h-959z" />
<glyph unicode="[" d="M373 -408v1987h528v-141h-356v-1700h356v-146h-528z" />
<glyph unicode="\" d="M233 1382l152 58l614 -1440l-153 -57z" />
<glyph unicode="]" d="M311 -262h357v1700h-357v141h529v-1987h-529v146z" />
<glyph unicode="^" d="M178 766l354 616h150l369 -614l-136 -70l-313 545l-297 -545z" />
<glyph unicode="_" d="M0 -371h1229v-145h-1229v145z" />
<glyph unicode="`" d="M287 1376l78 140l405 -230l-61 -110z" />
<glyph unicode="a" d="M164 238q0 166 167 263t496 97v76q0 106 -58 161.5t-194 55.5q-78 0 -168 -21.5t-161 -62.5l-19 158q78 35 170 54t201 19q117 0 196.5 -24.5t128 -69.5t69 -107.5t20.5 -138.5v-405v-149.5t4 -143.5h-180q0 53 2 107.5t12 101.5h-4q-23 -47 -60.5 -89t-88 -73t-110 -49 t-124.5 -18q-135 0 -217 67.5t-82 190.5zM344 268q0 -66 47 -103.5t125 -37.5q68 0 125 27.5t98 73.5t64.5 104.5t23.5 118.5v18q-147 0 -241 -17.5t-147.5 -45t-74 -63.5t-20.5 -75z" />
<glyph unicode="b" d="M193 27v1468h184v-440q0 -70 -5 -136.5t-16 -130.5l4 -2q43 125 133.5 187.5t211.5 62.5q88 0 159.5 -31.5t123.5 -92t81 -149.5t29 -206q0 -133 -41 -239.5t-114 -180.5t-175 -112.5t-225 -38.5q-104 0 -186.5 9t-163.5 32zM377 156q80 -25 182 -25q72 0 135.5 22.5 t110.5 71.5t73.5 127t26.5 189q0 166 -66.5 255t-183.5 89q-70 0 -122 -39t-86.5 -98.5t-52 -131t-17.5 -139.5v-321z" />
<glyph unicode="c" d="M168 475q0 123 38 226.5t110.5 177t179 114.5t245.5 41q76 0 152 -12t137 -35l-29 -160q-55 27 -127.5 42.5t-142.5 15.5q-84 0 -151.5 -28t-115.5 -78t-75 -120.5t-27 -156.5q0 -76 22 -141.5t66 -114.5t109.5 -78t155.5 -29q78 0 156.5 14.5t140.5 41.5l26 -156 q-72 -25 -169 -40t-193 -15q-100 0 -192.5 24.5t-162 81.5t-111.5 151.5t-42 233.5z" />
<glyph unicode="d" d="M131 461q0 133 41 238.5t113.5 179t173 113.5t221.5 40q41 0 83 -3t89 -7v473h184v-1495h-176q0 43 3 106.5t18 129.5l-4 2q-47 -127 -138.5 -191.5t-214.5 -64.5q-88 0 -159.5 30.5t-124 92t-81 150.5t-28.5 206zM324 477q0 -166 66.5 -255t182.5 -89q70 0 122.5 39 t87 98.5t52 131t17.5 139.5v323q-47 12 -92 17.5t-90 5.5q-72 0 -135.5 -22.5t-110.5 -72t-73.5 -127t-26.5 -188.5z" />
<glyph unicode="e" d="M141 504q0 115 35 212t97.5 168.5t151.5 111.5t200 40q109 0 190.5 -35.5t136 -96t82 -139.5t27.5 -167v-43t-4 -51h-725q-2 -6 -2 -23q0 -184 96 -267t254 -83q39 0 84 5t89 14.5t84 21.5t71 27l16 -152q-74 -31 -175 -48t-200 -17q-238 0 -373 127t-135 395zM338 635 h534q0 63 -19 112.5t-53 84t-81 53t-103 18.5q-104 0 -183 -70.5t-95 -197.5z" />
<glyph unicode="f" d="M109 778v148h389v161q0 221 112.5 320.5t313.5 99.5q59 0 120.5 -8t114.5 -20l-16 -150q-47 14 -104.5 22.5t-123.5 8.5q-117 0 -174 -63.5t-57 -211.5v-159h440v-148h-440v-778h-186v778h-389z" />
<glyph unicode="g" d="M98 -236q0 92 51.5 161t122.5 104q-47 23 -73.5 63.5t-26.5 91.5q0 49 27.5 97.5t81.5 80.5q-63 35 -107.5 110t-44.5 177q0 86 30.5 158t89 124t142.5 80.5t189 28.5q39 0 78.5 -6t78.5 -16h367v-137h-189q35 -33 57.5 -84.5t22.5 -116.5q0 -82 -28.5 -151.5t-84 -120 t-138 -79t-193.5 -28.5q-31 0 -68 2t-65 10q-61 -31 -62 -88q0 -43 45 -67.5t140 -24.5h204q166 0 256.5 -73t90.5 -212q0 -84 -42 -152.5t-117 -117.5t-177.5 -75.5t-225.5 -26.5q-96 0 -176 18.5t-137 54t-88 90t-31 125.5zM281 -203q0 -45 21.5 -78.5t59 -56t89 -34 t108.5 -11.5q158 0 253 55.5t95 151.5q0 158 -213 158h-223h-32.5t-30.5 2q-59 -29 -93 -78t-34 -109zM311 668q0 -111 69 -174.5t181 -63.5q117 0 185.5 65.5t68.5 172.5q0 111 -67.5 174t-182.5 63t-184.5 -65.5t-69.5 -171.5z" />
<glyph unicode="h" d="M199 0v1495h184v-463q0 -55 -3 -121.5t-13 -117.5l4 -2q43 119 134 183t220 64q86 0 145.5 -25.5t94 -69.5t50 -103.5t15.5 -126.5v-713h-184v657q0 109 -36 168.5t-136 59.5q-63 0 -116.5 -34t-92.5 -90t-60.5 -132t-21.5 -160v-469h-184z" />
<glyph unicode="i" d="M190 0v145h379v732h-358v141h545v-873h340v-145h-906zM506 1335q0 61 43 104.5t104 43.5t105.5 -43.5t44.5 -104.5q0 -59 -44 -102t-106 -43q-61 0 -104 43t-43 102z" />
<glyph unicode="j" d="M82 -410l65 154q59 -47 130 -81t153 -36q137 0 219 72t82 242v929h-528v148h715v-1063q0 -121 -35 -211t-98.5 -148.5t-154.5 -87t-204 -28.5q-106 0 -186 26.5t-158 83.5zM659 1335q0 61 44.5 104.5t105.5 43.5t104 -43.5t43 -104.5q0 -59 -43 -102t-104 -43t-105.5 43 t-44.5 102z" />
<glyph unicode="k" d="M205 0v1495h184v-926l438 449h238l-471 -465l504 -553h-252l-457 528v-528h-184z" />
<glyph unicode="l" d="M170 0v145h373v1209h-373v141h557v-1350h371v-145h-928z" />
<glyph unicode="m" d="M102 0v1018h148q0 -55 -4 -111.5t-13 -118.5l3 -2q29 115 91 182.5t160 67.5q94 0 136.5 -65.5t44.5 -179.5q29 111 91 178t161 67q111 0 155.5 -83t44.5 -242v-711h-153v668q0 117 -15.5 171t-70.5 54q-35 0 -70 -32t-62.5 -85t-44 -125.5t-16.5 -154.5v-496h-151v659 q0 123 -19.5 178.5t-75.5 55.5q-35 0 -68.5 -32t-60 -85t-42 -125.5t-15.5 -154.5v-496h-154z" />
<glyph unicode="n" d="M199 0v1018h176q0 -59 -2 -124t-13 -110l5 -2q45 123 136 189.5t224 66.5q86 0 145.5 -25.5t94 -69.5t50 -103.5t15.5 -126.5v-713h-184v657q0 109 -36 168.5t-136 59.5q-63 0 -116.5 -34t-92.5 -90t-60.5 -132t-21.5 -160v-469h-184z" />
<glyph unicode="o" d="M121 500q0 113 37 210t103.5 169.5t161.5 114.5t212 42q98 0 184 -27.5t150.5 -89t102.5 -159t38 -234.5q0 -115 -38 -214t-105.5 -172.5t-162.5 -115.5t-208 -42q-104 0 -192.5 30.5t-151 94t-97 161t-34.5 232.5zM313 518q0 -186 80 -283.5t223 -97.5q59 0 113.5 22.5 t96.5 69.5t68 118t26 169q0 174 -77 270.5t-225 96.5q-57 0 -112 -21.5t-98 -66.5t-69 -114t-26 -163z" />
<glyph unicode="p" d="M193 -506v1524h176q0 -43 -3.5 -106.5t-15.5 -129.5l4 -2q47 129 137.5 192.5t213.5 63.5q88 0 159.5 -30.5t123.5 -92t81 -150.5t29 -206q0 -135 -39 -240.5t-112 -179.5t-174 -111.5t-224 -37.5q-47 0 -86 2t-86 10v-506h-184zM377 156q80 -25 182 -25q72 0 135.5 22.5 t110.5 71.5t73.5 127t26.5 189q0 166 -66.5 255t-183.5 89q-70 0 -122 -39t-86.5 -98.5t-52 -131t-17.5 -139.5v-321z" />
<glyph unicode="q" d="M131 459q0 133 41 239.5t114.5 180t176 113.5t225.5 40q94 0 181 -8t167 -20v-1510h-184v471q0 70 5 136.5t15 131.5l-4 3q-45 -129 -135 -191.5t-207 -62.5q-88 0 -160.5 29.5t-125 90t-81 149.5t-28.5 208zM324 477q0 -166 65.5 -255t181.5 -89q70 0 122 39t88 98.5 t53.5 133t17.5 141.5v321q-45 10 -90 15.5t-92 5.5q-72 0 -135.5 -22.5t-110.5 -72t-73.5 -127t-26.5 -188.5z" />
<glyph unicode="r" d="M129 0v145h293v732h-293v141h471q0 -59 -3 -134t-17 -157l4 -2q47 143 145 229t248 86q88 0 172 -24l-41 -176q-70 32 -149 32h-5q-84 0 -148.5 -40.5t-109.5 -108.5t-67.5 -157t-22.5 -185v-236h295v-145h-772z" />
<glyph unicode="s" d="M201 31l18 170q74 -35 163 -55.5t198 -20.5q45 0 89 9t77.5 27.5t55 47.5t21.5 67q0 61 -45 93t-113.5 52.5t-148.5 37t-148.5 47.5t-113.5 83t-45 146q0 63 28.5 118.5t84 97.5t137.5 65.5t188 23.5q86 0 166 -8t141 -24l-20 -158q-74 25 -145.5 37t-155.5 12 q-113 0 -168 -40t-55 -99q0 -57 46 -88t114.5 -50.5t148.5 -37t148.5 -49t114.5 -85t46 -145.5q0 -86 -39 -147.5t-104.5 -101.5t-150.5 -58t-175 -18q-213 0 -358 51z" />
<glyph unicode="t" d="M80 870v148h332v330l186 51v-381h440v-148h-440v-489q0 -133 61.5 -187.5t159.5 -54.5q51 0 110.5 7.5t106.5 21.5l17 -152q-63 -16 -145.5 -24t-145.5 -8q-162 0 -256 78.5t-94 265.5v542h-332z" />
<glyph unicode="u" d="M199 305v713h184v-658q0 -109 36 -168t136 -59q63 0 116.5 34t92.5 90t60.5 132t21.5 160v469h184v-1018h-176q0 59 2 123.5t12 109.5l-4 3q-45 -123 -136 -189.5t-224 -66.5q-86 0 -145.5 25.5t-94.5 69.5t-50 103.5t-15 126.5z" />
<glyph unicode="v" d="M104 1018h207l248 -649q16 -45 29.5 -88t27.5 -91h2q14 47 26.5 90.5t29.5 84.5l252 653h198l-407 -1018h-207z" />
<glyph unicode="w" d="M47 1018h178l97 -645q6 -41 10 -83t8 -83h2q12 41 23.5 79t23.5 72l150 410h139l168 -406q14 -33 27.5 -70.5t29.5 -84.5h2q4 47 7 85t10 81l84 645h176l-160 -1018h-215l-164 420q-10 27 -20.5 56.5t-18.5 64.5h-2q-8 -33 -18.5 -65t-20.5 -62l-151 -414h-205z" />
<glyph unicode="x" d="M80 0l420 512l-396 506h226l295 -385l295 385h208l-391 -504l410 -514h-238l-303 393l-301 -393h-225z" />
<glyph unicode="y" d="M80 -506l18 166q57 -22 125 -22h6q41 0 74 11t60.5 39.5t54 77t55.5 121.5l45 113l-405 1018h209l217 -565q20 -53 39.5 -118t35.5 -120h4q16 53 42 130t61 163l194 510h203l-459 -1122q-47 -117 -91 -197t-95 -128t-113.5 -69.5t-146.5 -21.5q-29 0 -65.5 4t-67.5 10z " />
<glyph unicode="z" d="M193 0v129l604 731q-45 -2 -116 -3t-157 -1h-319v162h823v-129l-596 -727q20 0 54 1t72 2t79 1h76h323v-166h-843z" />
<glyph unicode="{" d="M178 575v146q92 2 152.5 14.5t96.5 37t50.5 66.5t14.5 103v240q0 88 19 161.5t65.5 126t125 81t197.5 28.5h78v-141h-66q-123 0 -186 -58.5t-63 -191.5v-238q0 -137 -52.5 -209.5t-187.5 -89.5v-4q131 -14 185.5 -91t54.5 -212v-356q0 -137 65.5 -193.5t183.5 -56.5h66 v-146h-78q-219 0 -313 99.5t-94 300.5v358q0 61 -15.5 102.5t-52.5 68t-97.5 38.5t-148.5 16z" />
<glyph unicode="|" d="M563 -430v2048h146v-2048h-146z" />
<glyph unicode="}" d="M248 -264h65q123 0 186.5 57t63.5 193v360q0 137 53.5 210t186.5 91v2q-131 14 -185.5 91t-54.5 212v234q0 137 -65.5 193.5t-184.5 56.5h-65v143h78q219 0 313 -99.5t94 -299.5v-234q0 -61 15.5 -102t52.5 -67.5t96 -40t150 -15.5v-146q-92 -4 -152.5 -15t-96.5 -35.5 t-50.5 -66.5t-14.5 -104v-364q0 -88 -19.5 -161t-65.5 -125t-125 -82t-197 -30h-78v144z" />
<glyph unicode="~" d="M121 592q47 41 116.5 77t157.5 36q76 0 130.5 -20.5t102.5 -45.5t95 -45.5t111 -20.5q53 0 107 29t101 70l62 -131q-53 -55 -125 -91t-156 -36q-76 0 -132 20.5t-106 45t-98.5 45t-105.5 20.5q-66 0 -116 -29t-85 -59z" />
<glyph unicode="&#xa0;" />
<glyph unicode="&#xa1;" d="M485 905q0 57 39 96t97 39q59 0 98 -39t39 -96q0 -55 -39 -94t-98 -39q-57 0 -96.5 39t-39.5 94zM516 -430l27 1081h153l29 -1081h-209z" />
<glyph unicode="&#xa2;" d="M178 702q0 113 36 207.5t99.5 164t152.5 111.5t196 52v154h139v-154q53 -2 117.5 -12.5t109.5 -28.5l-14 -156q-47 18 -103.5 30.5t-109.5 14.5v-741q111 6 219 51l12 -159q-55 -18 -114.5 -32t-116.5 -18v-198h-139v194q-109 2 -197 35t-152.5 97.5t-99.5 160.5t-35 227 zM371 723q0 -176 74.5 -268.5t216.5 -108.5v735q-59 -6 -111.5 -33.5t-92.5 -72.5t-63.5 -108.5t-23.5 -143.5z" />
<glyph unicode="&#xa3;" d="M203 0v139q121 84 186.5 171t65.5 208q0 20 -4.5 63.5t-10.5 98.5h-237v141h223q-8 59 -15.5 130t-7.5 122q0 100 28 172t80 117t124 65.5t162 20.5q47 0 100 -4t96 -12l-12 -152q-90 18 -176 18q-98 0 -158.5 -57t-60.5 -156q0 -47 8 -116.5t16 -147.5h351v-141h-336 q4 -41 6 -78t2 -65q0 -63 -11.5 -114.5t-36 -97.5t-62.5 -87t-89 -84q33 4 76 6t90 2h440v-162h-837z" />
<glyph unicode="&#xa4;" d="M129 461q0 133 41 238.5t113.5 179t175 113.5t225.5 40q96 0 183 -8t167 -20v-1082q0 -72 -23.5 -150.5t-84 -144t-166 -107.5t-268.5 -42q-86 0 -161 11t-134 28l12 180q66 -27 145.5 -42t153.5 -15q80 0 143.5 15t108.5 52t68.5 96.5t23.5 145.5v51q0 59 4 115.5 t14 120.5l-4 2q-45 -129 -135 -192.5t-207 -63.5q-88 0 -160.5 30.5t-125 91t-81 149.5t-28.5 208zM322 477q0 -166 65.5 -255t181.5 -89q70 0 122 39t88 98.5t53.5 133t17.5 141.5v319q-88 20 -182 21q-72 0 -135.5 -22.5t-110.5 -72t-73.5 -126t-26.5 -187.5z" />
<glyph unicode="&#xa5;" d="M90 1382h207l223 -483q27 -59 50.5 -116.5t45.5 -116.5h2q23 61 49.5 120.5t53.5 118.5l225 477h201l-391 -786h288v-125h-337v-143h337v-125h-337v-203h-187v203h-336v125h336v143h-336v125h289z" />
<glyph unicode="&#xa6;" d="M541 262h147v-774h-147v774zM541 782v754h147v-754h-147z" />
<glyph unicode="&#xa7;" d="M190 903q0 61 14.5 128t41 132.5t63.5 126t82 109.5q66 72 149 113.5t195 41.5q41 0 84 -4t76 -8l-8 -153q-76 20 -166 20q-104 0 -148.5 -45t-44.5 -131q0 -59 38 -113.5t95.5 -112t123 -121t123 -140t95 -170.5t37.5 -211q0 -59 -14 -125t-41 -131.5t-63.5 -126 t-81.5 -109.5q-68 -72 -151 -113t-206 -41q-39 0 -78.5 3.5t-74.5 9.5l8 162q35 -12 81 -18.5t89 -6.5q98 0 145 43t47 115q0 61 -37.5 119.5t-94 119t-123 126t-123 142t-94.5 167t-38 202.5zM358 948q0 -96 32 -171t80 -138.5t105.5 -119.5t110.5 -115.5t93 -125 t55 -147.5q16 41 26 90.5t10 108.5q0 98 -32.5 174t-81.5 140.5t-108.5 121.5t-113 114.5t-93.5 120t-50 140.5q-16 -47 -24.5 -96.5t-8.5 -96.5z" />
<glyph unicode="&#xa8;" d="M274 1339q0 51 36 87t87 36t86 -36t35 -87t-34.5 -85.5t-86.5 -34.5q-51 0 -87 34.5t-36 85.5zM711 1339q0 51 34.5 87t85.5 36t87 -36t36 -87t-35.5 -85.5t-87.5 -34.5q-51 0 -85.5 34.5t-34.5 85.5z" />
<glyph unicode="&#xa9;" d="M14 688q0 141 41 266t119 218.5t188.5 147.5t251.5 54t252 -53t189 -145.5t118.5 -217t40.5 -268.5q0 -141 -40.5 -266t-118.5 -218t-189.5 -147.5t-251.5 -54.5q-145 0 -256.5 52.5t-188.5 143.5t-116 216t-39 272zM164 690q0 -113 29.5 -213t87 -175t141.5 -119 t192 -44q109 0 194 43t142.5 118t87 174t29.5 214q0 111 -29.5 211t-87 175t-142.5 119t-194 44t-192.5 -43t-141 -118t-87 -174t-29.5 -212zM309 678q0 74 18.5 141.5t59.5 119.5t106.5 84t161.5 32q41 0 80 -7.5t72 -17.5l-16 -129q-63 29 -138 29q-53 0 -90 -18.5 t-59.5 -51.5t-31.5 -78t-9 -96q0 -111 42 -169t138 -58q43 0 82 7t74 19l18 -125q-43 -16 -94 -25t-100 -9q-84 0 -142.5 26.5t-97.5 73.5t-56.5 111.5t-17.5 140.5z" />
<glyph unicode="&#xaa;" d="M252 367v147h723v-147h-723zM272 829q0 53 29 100.5t87 83.5t147.5 57.5t209.5 21.5h23v32q0 29 -8 56.5t-29.5 49t-56.5 35t-90 13.5q-63 0 -128 -18.5t-118 -49.5l-21 131q63 29 139 43.5t148 14.5q166 0 236.5 -74t70.5 -184v-297q0 -47 1 -99.5t1 -93.5h-145 q0 25 2 58.5t8 68.5l-4 2q-41 -68 -116.5 -106.5t-161.5 -38.5q-61 0 -103.5 15.5t-69 42t-39 62.5t-12.5 74zM424 852q0 -47 31.5 -70.5t83.5 -23.5q51 0 94 19.5t72.5 50t46 67.5t16.5 72v20h-29q-96 0 -157.5 -12t-96 -30.5t-48 -43t-13.5 -49.5z" />
<glyph unicode="&#xab;" d="M199 512l233 426l141 -74l-192 -350l190 -346l-145 -76zM625 512l252 422l139 -76l-209 -344l207 -340l-144 -76z" />
<glyph unicode="&#xac;" d="M141 463v151h903v-473h-161v322h-742z" />
<glyph unicode="&#xad;" d="M293 440v168h643v-168h-643z" />
<glyph unicode="&#xae;" d="M80 1014q0 111 42 207t114.5 167.5t170 113.5t207.5 42q113 0 210.5 -41t170 -112.5t113.5 -168.5t41 -208q0 -109 -43 -205t-115.5 -169t-170 -116t-206.5 -43q-115 0 -212 41t-168.5 114t-112.5 170t-41 208zM225 1016q0 -80 31 -152.5t83 -127t124 -86.5t151 -32 q80 0 152 31t124 84t83 124t31 153t-31 154.5t-83 127t-124 86t-152 31.5t-151.5 -30.5t-123.5 -84t-83 -125t-31 -153.5zM436 739v557h193q100 0 144 -39.5t44 -105.5q0 -70 -36 -111t-95 -53q10 -10 21.5 -29.5t25.5 -42.5l107 -176h-146l-131 232h-10v-232h-117z M553 1051h35q57 0 80.5 26.5t23.5 59.5q0 35 -19.5 52t-66.5 17h-53v-155z" />
<glyph unicode="&#xaf;" d="M379 1264v137h471v-137h-471z" />
<glyph unicode="&#xb0;" d="M227 1130q0 86 33 155t87 117t124 72.5t143 24.5q96 0 167 -28.5t117 -79t68.5 -115.5t22.5 -139q0 -86 -33.5 -154t-89 -116t-126 -72.5t-144.5 -24.5q-172 0 -270.5 97.5t-98.5 262.5zM391 1135q0 -111 59.5 -169.5t155.5 -58.5t156.5 63t60.5 165q0 39 -11 79.5 t-35.5 73.5t-66.5 54.5t-104 21.5q-90 0 -152.5 -62.5t-62.5 -166.5z" />
<glyph unicode="&#xb1;" d="M125 559v154h405v407h175v-407h405v-154h-405v-412h-175v412h-405zM133 29h969v-156h-969v156z" />
<glyph unicode="&#xb2;" d="M293 666v133l227 182q106 82 144 137.5t38 106.5q0 63 -42 98t-128 35q-55 0 -107 -15.5t-99 -37.5l-23 145q119 57 272 57q160 0 236 -68.5t76 -172.5q0 -80 -44 -156t-157 -166l-160 -127q45 2 89 3t91.5 1h100.5h121v-155h-635z" />
<glyph unicode="&#xb3;" d="M299 674l18 135q43 -16 91.5 -24.5t95.5 -8.5q80 0 134 36t54 99q0 29 -16.5 54.5t-56 41t-105 20.5t-164.5 -5v121q96 0 159.5 9t101.5 25.5t53.5 42t15.5 60.5q0 98 -145 98q-49 0 -103.5 -12t-101.5 -39l-19 129q57 25 125 37t139 12q145 0 214 -57t69 -150 q0 -72 -38 -120t-105 -74q72 -10 114.5 -65t42.5 -121q0 -59 -25.5 -108.5t-74.5 -85.5t-118.5 -56.5t-155.5 -20.5q-47 0 -98.5 7.5t-100.5 19.5z" />
<glyph unicode="&#xb4;" d="M455 1284l405 229l78 -137l-422 -200z" />
<glyph unicode="&#xb5;" d="M162 -506v1524h184v-643q0 -127 61.5 -185.5t178.5 -58.5q72 0 127 31t94 84t58.5 125.5t19.5 156.5v490h184v-1018h-180q0 43 3 102.5t11 108.5l-4 2q-12 -37 -36.5 -77t-64.5 -73.5t-99.5 -56t-141.5 -22.5q-78 0 -134 25.5t-79 53.5l-4 -2q4 -29 5 -82t1 -139v-346 h-184z" />
<glyph unicode="&#xb6;" d="M145 1006q0 82 30 151.5t86 119.5t140 77.5t193 27.5h522v-147h-143v-1432h-160v1432h-164v-1432h-162v826q-176 29 -259 129t-83 248z" />
<glyph unicode="&#xb7;" d="M438 602q0 74 51.5 125t124.5 51q74 0 125.5 -51t51.5 -125t-51.5 -125t-125.5 -51t-125 51t-51 125z" />
<glyph unicode="&#xb8;" d="M494 -420q98 72 115.5 151t-27.5 165h176q23 -49 30 -99.5t-11.5 -99.5t-65.5 -98.5t-133 -94.5z" />
<glyph unicode="&#xb9;" d="M264 666v147h303v524l-272 -106l-31 145l332 119h149v-682h261v-147h-742z" />
<glyph unicode="&#xba;" d="M233 1016q0 92 33 163.5t87.5 121t124 75t143.5 25.5q174 0 269 -99.5t95 -271.5q0 -88 -29.5 -160.5t-82 -124t-125 -80t-158.5 -28.5q-184 0 -270.5 98.5t-86.5 280.5zM252 367v147h723v-147h-723zM389 1022q0 -47 11.5 -92t36 -81t65.5 -57.5t102 -21.5 q94 0 158.5 58.5t64.5 191.5q0 49 -11 95t-36.5 80t-66.5 54.5t-101 20.5q-39 0 -78.5 -13.5t-71.5 -43t-52.5 -76.5t-20.5 -115z" />
<glyph unicode="&#xbb;" d="M213 172l209 344l-207 340l143 78l246 -416l-252 -420zM655 166l193 350l-191 346l146 76l227 -420l-233 -426z" />
<glyph unicode="&#xbc;" d="M31 1411l223 84h139v-780h-170v624l-178 -73zM41 -41l922 1589l127 -65l-920 -1589zM537 205l321 520h225v-494h127v-129h-127v-155h-153v155h-389zM690 227q25 0 58.5 1t67.5 1h64.5h49.5v375z" />
<glyph unicode="&#xbd;" d="M31 -41l921 1589l127 -65l-919 -1589zM31 1411l223 84h139v-780h-170v624l-178 -73zM674 -53v116l192 179q86 78 117 128t31 101q0 61 -33 97t-102 36q-47 0 -90.5 -13t-75.5 -34l-23 131q45 20 101.5 34.5t123.5 14.5q141 0 206 -61.5t65 -165.5q0 -80 -39 -149.5 t-131 -153.5l-137 -125q68 4 151.5 4h186.5v-139h-543z" />
<glyph unicode="&#xbe;" d="M33 719l18 119q33 -10 68 -16.5t80 -6.5q66 0 109.5 33t43.5 96q0 29 -14 53.5t-47 40t-87 20.5t-132 -5v110q135 0 202.5 31t67.5 102q0 94 -117 95q-43 0 -83 -10.5t-79 -26.5l-18 119q100 37 217 36q117 0 177.5 -50t60.5 -146q0 -135 -140 -187q74 -10 114 -60.5 t40 -111.5q0 -115 -88 -183.5t-242 -68.5q-39 0 -74.5 4.5t-76.5 12.5zM80 -41l921 1589l127 -65l-921 -1589zM543 205l323 520h226v-494h127v-129h-127v-155h-154v155h-389zM698 227q25 0 57.5 1t66.5 1h65h49v375z" />
<glyph unicode="&#xbf;" d="M256 -51q0 82 35 141.5t84 107.5t102 92t92 94t52.5 113.5t-19.5 153.5h184q37 -98 27 -171.5t-47 -131t-89 -101.5t-100.5 -87t-83 -88t-34.5 -101q0 -119 118.5 -181t348.5 -62l-19 -168q-166 2 -288.5 32.5t-202.5 83t-120 123t-40 150.5zM549 905q0 57 39 96t98 39 q57 0 96 -39t39 -96q0 -55 -39 -94t-96 -39q-59 0 -98 39t-39 94z" />
<glyph unicode="&#xc0;" d="M27 0l477 1382h225l475 -1382h-209l-106 317h-563l-111 -317h-188zM289 1689l78 140l405 -230l-61 -110zM369 469h475l-185 547q-14 43 -26 86t-25 90h-2q-23 -92 -49 -170z" />
<glyph unicode="&#xc1;" d="M27 0l477 1382h225l475 -1382h-209l-106 317h-563l-111 -317h-188zM369 469h475l-185 547q-14 43 -26 86t-25 90h-2q-23 -92 -49 -170zM457 1597l405 229l78 -137l-422 -200z" />
<glyph unicode="&#xc2;" d="M27 0l477 1382h225l475 -1382h-209l-106 317h-563l-111 -317h-188zM303 1605l313 191l322 -187l-70 -110l-258 141l-243 -141zM369 469h475l-185 547q-14 43 -26 86t-25 90h-2q-23 -92 -49 -170z" />
<glyph unicode="&#xc3;" d="M27 0l477 1382h225l475 -1382h-209l-106 317h-563l-111 -317h-188zM260 1683q41 37 92 60.5t111 23.5q53 0 92 -15.5t73 -32.5t67.5 -32.5t76.5 -15.5t80 18.5t66 46.5l45 -125q-33 -31 -88.5 -56t-114.5 -25q-57 0 -96 15t-72 32.5t-66.5 33t-79.5 15.5 q-41 0 -76.5 -18.5t-64.5 -47.5zM369 469h475l-185 547q-14 43 -26 86t-25 90h-2q-23 -92 -49 -170z" />
<glyph unicode="&#xc4;" d="M27 0l477 1382h225l475 -1382h-209l-106 317h-563l-111 -317h-188zM276 1624q0 51 36 87t87 36t86 -36t35 -87t-34.5 -85.5t-86.5 -34.5q-51 0 -87 34.5t-36 85.5zM369 469h475l-185 547q-14 43 -26 86t-25 90h-2q-23 -92 -49 -170zM713 1624q0 51 34.5 87t85.5 36 t87 -36t36 -87t-35.5 -85.5t-87.5 -34.5q-51 0 -85.5 34.5t-34.5 85.5z" />
<glyph unicode="&#xc5;" d="M27 0l477 1382h225l475 -1382h-209l-106 317h-563l-111 -317h-188zM369 469h475l-185 547q-14 43 -26 86t-25 90h-2q-23 -92 -49 -170zM383 1562q0 49 18.5 90t50 71t73.5 47.5t89 17.5q49 0 91.5 -17.5t74 -47.5t49 -71t17.5 -90q0 -47 -18.5 -87t-50.5 -70.5t-73.5 -48 t-89.5 -17.5q-98 0 -164.5 62.5t-66.5 160.5zM502 1562q0 -47 32.5 -80.5t79.5 -33.5t80 33.5t33 80.5t-32.5 82t-80.5 35q-47 0 -79.5 -35t-32.5 -82z" />
<glyph unicode="&#xc6;" d="M-18 0l600 1382h614v-155h-354v-439h336v-151h-336v-479h370v-158h-538v334h-375l-141 -334h-176zM362 483h312v742h-2q-23 -57 -49.5 -124t-55.5 -132z" />
<glyph unicode="&#xc7;" d="M129 655q0 158 37 293t115.5 234.5t201.5 156t295 56.5q86 0 158 -11.5t143 -29.5l-20 -172q-78 25 -146.5 37t-146.5 12q-119 0 -201 -43t-133 -117t-74.5 -173t-23.5 -212q0 -256 105.5 -395t344.5 -139q76 0 153 19t136 50l21 -168q-76 -33 -162 -51t-193 -18 q-166 0 -281.5 50t-189 139t-106.5 213t-33 269zM494 -420q98 72 115.5 151t-27.5 165h176q23 -49 30 -99.5t-11.5 -99.5t-65.5 -98.5t-133 -94.5z" />
<glyph unicode="&#xc8;" d="M242 0v1382h764v-155h-576v-439h551v-151h-551v-479h576v-158h-764zM287 1689l78 140l405 -230l-61 -110z" />
<glyph unicode="&#xc9;" d="M242 0v1382h764v-155h-576v-439h551v-151h-551v-479h576v-158h-764zM455 1597l405 229l78 -137l-422 -200z" />
<glyph unicode="&#xca;" d="M242 0v1382h764v-155h-576v-439h551v-151h-551v-479h576v-158h-764zM303 1605l313 191l322 -187l-70 -110l-258 141l-243 -141z" />
<glyph unicode="&#xcb;" d="M242 0v1382h764v-155h-576v-439h551v-151h-551v-479h576v-158h-764zM274 1624q0 51 36 87t87 36t86 -36t35 -87t-34.5 -85.5t-86.5 -34.5q-51 0 -87 34.5t-36 85.5zM711 1624q0 51 34.5 87t85.5 36t87 -36t36 -87t-35.5 -85.5t-87.5 -34.5q-51 0 -85.5 34.5t-34.5 85.5z " />
<glyph unicode="&#xcc;" d="M193 0v158h327v1071h-327v153h843v-153h-327v-1071h327v-158h-843zM287 1687l78 140l405 -230l-61 -110z" />
<glyph unicode="&#xcd;" d="M193 0v158h327v1071h-327v153h843v-153h-327v-1071h327v-158h-843zM455 1595l405 229l78 -137l-422 -200z" />
<glyph unicode="&#xce;" d="M193 0v158h327v1071h-327v153h843v-153h-327v-1071h327v-158h-843zM303 1605l313 191l322 -187l-70 -110l-258 141l-243 -141z" />
<glyph unicode="&#xcf;" d="M193 0v158h327v1071h-327v153h843v-153h-327v-1071h327v-158h-843zM274 1622q0 51 36 87t87 36t86 -36t35 -87t-34.5 -85.5t-86.5 -34.5q-51 0 -87 34.5t-36 85.5zM711 1622q0 51 34.5 87t85.5 36t87 -36t36 -87t-35.5 -85.5t-87.5 -34.5q-51 0 -85.5 34.5t-34.5 85.5z " />
<glyph unicode="&#xd0;" d="M35 629v147h131v604q70 2 158 5.5t200 3.5q322 0 476.5 -165t154.5 -517q0 -356 -182 -535.5t-512 -179.5q-53 0 -93 1t-74 3t-64.5 3t-63.5 1v629h-131zM354 164q27 -6 56.5 -9t72.5 -3q233 0 353 129.5t120 412.5q0 264 -102 402.5t-346 138.5q-55 0 -91 -2t-63 -4 v-453h203v-147h-203v-465z" />
<glyph unicode="&#xd1;" d="M135 0v1382h244l412 -827q41 -78 76.5 -157t66.5 -150q-2 68 -5 160t-5 192t-3 201.5t-1 187.5v393h178v-1382h-242l-428 864q-39 78 -68.5 142.5t-60.5 136.5q2 -57 5 -143.5t5 -181.5t3 -193.5t1 -180.5v-444h-178zM260 1683q41 37 92 60.5t111 23.5q53 0 92 -15.5 t73 -32.5t67.5 -32.5t76.5 -15.5t80 18.5t66 46.5l45 -125q-33 -31 -88.5 -56t-114.5 -25q-57 0 -96 15t-72 32.5t-66.5 33t-79.5 15.5q-41 0 -76.5 -18.5t-64.5 -47.5z" />
<glyph unicode="&#xd2;" d="M57 676q0 172 44 307t121 228.5t183.5 142.5t229.5 49q260 0 398 -176t138 -520q0 -172 -43 -307.5t-119.5 -228.5t-182 -142t-230.5 -49q-145 0 -247.5 50t-167 141t-94.5 219t-30 286zM258 702q0 -123 19.5 -225t61.5 -176t109.5 -114t163.5 -40q74 0 138.5 34 t113.5 101.5t78 168t29 233.5q0 268 -86 410.5t-269 142.5q-76 0 -141 -35t-113.5 -102.5t-76 -166.5t-27.5 -231zM287 1689l78 140l405 -230l-61 -110z" />
<glyph unicode="&#xd3;" d="M57 676q0 172 44 307t121 228.5t183.5 142.5t229.5 49q260 0 398 -176t138 -520q0 -172 -43 -307.5t-119.5 -228.5t-182 -142t-230.5 -49q-145 0 -247.5 50t-167 141t-94.5 219t-30 286zM258 702q0 -123 19.5 -225t61.5 -176t109.5 -114t163.5 -40q74 0 138.5 34 t113.5 101.5t78 168t29 233.5q0 268 -86 410.5t-269 142.5q-76 0 -141 -35t-113.5 -102.5t-76 -166.5t-27.5 -231zM455 1597l405 229l78 -137l-422 -200z" />
<glyph unicode="&#xd4;" d="M57 676q0 172 44 307t121 228.5t183.5 142.5t229.5 49q260 0 398 -176t138 -520q0 -172 -43 -307.5t-119.5 -228.5t-182 -142t-230.5 -49q-145 0 -247.5 50t-167 141t-94.5 219t-30 286zM258 702q0 -123 19.5 -225t61.5 -176t109.5 -114t163.5 -40q74 0 138.5 34 t113.5 101.5t78 168t29 233.5q0 268 -86 410.5t-269 142.5q-76 0 -141 -35t-113.5 -102.5t-76 -166.5t-27.5 -231zM303 1605l313 191l322 -187l-70 -110l-258 141l-243 -141z" />
<glyph unicode="&#xd5;" d="M57 676q0 172 44 307t121 228.5t183.5 142.5t229.5 49q260 0 398 -176t138 -520q0 -172 -43 -307.5t-119.5 -228.5t-182 -142t-230.5 -49q-145 0 -247.5 50t-167 141t-94.5 219t-30 286zM258 702q0 -123 19.5 -225t61.5 -176t109.5 -114t163.5 -40q74 0 138.5 34 t113.5 101.5t78 168t29 233.5q0 268 -86 410.5t-269 142.5q-76 0 -141 -35t-113.5 -102.5t-76 -166.5t-27.5 -231zM260 1685q41 37 92 60.5t111 23.5q53 0 92 -15.5t73 -32.5t67.5 -32.5t76.5 -15.5t80 18.5t66 46.5l45 -125q-33 -31 -88.5 -56t-114.5 -25q-57 0 -96 15 t-72 32.5t-66.5 33t-79.5 15.5q-41 0 -76.5 -18.5t-64.5 -47.5z" />
<glyph unicode="&#xd6;" d="M57 676q0 172 44 307t121 228.5t183.5 142.5t229.5 49q260 0 398 -176t138 -520q0 -172 -43 -307.5t-119.5 -228.5t-182 -142t-230.5 -49q-145 0 -247.5 50t-167 141t-94.5 219t-30 286zM258 702q0 -123 19.5 -225t61.5 -176t109.5 -114t163.5 -40q74 0 138.5 34 t113.5 101.5t78 168t29 233.5q0 268 -86 410.5t-269 142.5q-76 0 -141 -35t-113.5 -102.5t-76 -166.5t-27.5 -231zM274 1624q0 51 36 87t87 36t86 -36t35 -87t-34.5 -85.5t-86.5 -34.5q-51 0 -87 34.5t-36 85.5zM711 1624q0 51 34.5 87t85.5 36t87 -36t36 -87t-35.5 -85.5 t-87.5 -34.5q-51 0 -85.5 34.5t-34.5 85.5z" />
<glyph unicode="&#xd7;" d="M158 856l112 113l348 -351l351 349l100 -103l-348 -346l350 -350l-113 -115l-350 350l-348 -346l-100 101l346 348z" />
<glyph unicode="&#xd8;" d="M57 676q0 172 44 307t121 228.5t183.5 142.5t229.5 49q76 0 139 -23l72 205l129 -41l-72 -207q127 -74 197.5 -228.5t70.5 -401.5q0 -172 -43 -307.5t-119.5 -228.5t-182 -142t-230.5 -49q-86 0 -156 24l-75 -215l-129 41l75 221q-133 78 -193.5 238t-60.5 387zM252 702 q0 -313 125 -452l348 977q-31 10 -59.5 14t-53.5 4q-78 0 -143.5 -35.5t-113.5 -105.5t-75.5 -171.5t-27.5 -230.5zM492 166q29 -14 61.5 -20.5t62.5 -6.5q76 0 141.5 36t115 104.5t77 170t27.5 234.5q0 168 -36 283.5t-99 177.5z" />
<glyph unicode="&#xd9;" d="M117 465v917h186v-903q0 -72 13.5 -134t48 -109.5t94 -74t153.5 -26.5q158 0 239 85t81 294v868h184v-854q0 -274 -134 -411t-384 -137q-152 0 -245 40.5t-146 109.5t-71.5 156t-18.5 179zM287 1689l78 140l405 -230l-61 -110z" />
<glyph unicode="&#xda;" d="M117 465v917h186v-903q0 -72 13.5 -134t48 -109.5t94 -74t153.5 -26.5q158 0 239 85t81 294v868h184v-854q0 -274 -134 -411t-384 -137q-152 0 -245 40.5t-146 109.5t-71.5 156t-18.5 179zM457 1597l405 229l78 -137l-422 -200z" />
<glyph unicode="&#xdb;" d="M117 465v917h186v-903q0 -72 13.5 -134t48 -109.5t94 -74t153.5 -26.5q158 0 239 85t81 294v868h184v-854q0 -274 -134 -411t-384 -137q-152 0 -245 40.5t-146 109.5t-71.5 156t-18.5 179zM303 1605l313 191l322 -187l-70 -110l-258 141l-243 -141z" />
<glyph unicode="&#xdc;" d="M117 465v917h186v-903q0 -72 13.5 -134t48 -109.5t94 -74t153.5 -26.5q158 0 239 85t81 294v868h184v-854q0 -274 -134 -411t-384 -137q-152 0 -245 40.5t-146 109.5t-71.5 156t-18.5 179zM274 1624q0 51 36 87t87 36t86 -36t35 -87t-34.5 -85.5t-86.5 -34.5 q-51 0 -87 34.5t-36 85.5zM711 1624q0 51 34.5 87t85.5 36t87 -36t36 -87t-35.5 -85.5t-87.5 -34.5q-51 0 -85.5 34.5t-34.5 85.5z" />
<glyph unicode="&#xdd;" d="M23 1382h208l275 -503q35 -61 59.5 -112.5t46.5 -98.5h4q18 47 46 102t51 96l288 516h205l-504 -884v-498h-186v498zM408 1612l405 229l78 -137l-422 -200z" />
<glyph unicode="&#xde;" d="M201 0v1382h186v-235q41 2 84 2h84q119 0 212 -28.5t157.5 -82t98.5 -128.5t34 -167q0 -100 -41 -185t-115 -146.5t-173 -95t-216 -33.5h-62.5t-62.5 4v-287h-186zM387 446q47 -8 125 -8q164 2 256 79t92 208q0 129 -83 199.5t-245 70.5h-77.5t-67.5 -4v-545z" />
<glyph unicode="&#xdf;" d="M170 0v1024q0 133 37 225t99.5 150.5t145.5 85t177 26.5q178 0 274 -76.5t96 -199.5q0 -70 -21.5 -116t-52 -77.5t-68.5 -55t-68.5 -49.5t-52 -56.5t-21.5 -75.5q0 -53 29.5 -89t73.5 -64.5t95.5 -57.5t95.5 -67t73.5 -91t29.5 -131q0 -72 -28.5 -131t-81 -102 t-127 -67.5t-166.5 -24.5q-59 0 -108.5 6t-88.5 16l8 162q41 -16 90 -26.5t97 -10.5q117 0 168 48t51 108q0 55 -30 91t-73 64.5t-95 56t-95 65.5t-73 91.5t-30 132.5q0 61 20.5 104.5t52.5 75t68 58.5t67.5 54.5t52 61t20.5 81.5q0 76 -53 112.5t-140 36.5 q-125 0 -196.5 -79t-71.5 -255v-1034h-180z" />
<glyph unicode="&#xe0;" d="M164 238q0 166 167 263t496 97v76q0 106 -58 161.5t-194 55.5q-78 0 -168 -21.5t-161 -62.5l-19 158q78 35 170 54t201 19q117 0 196.5 -24.5t128 -69.5t69 -107.5t20.5 -138.5v-405v-149.5t4 -143.5h-180q0 53 2 107.5t12 101.5h-4q-23 -47 -60.5 -89t-88 -73t-110 -49 t-124.5 -18q-135 0 -217 67.5t-82 190.5zM287 1376l78 140l405 -230l-61 -110zM344 268q0 -66 47 -103.5t125 -37.5q68 0 125 27.5t98 73.5t64.5 104.5t23.5 118.5v18q-147 0 -241 -17.5t-147.5 -45t-74 -63.5t-20.5 -75z" />
<glyph unicode="&#xe1;" d="M164 238q0 166 167 263t496 97v76q0 106 -58 161.5t-194 55.5q-78 0 -168 -21.5t-161 -62.5l-19 158q78 35 170 54t201 19q117 0 196.5 -24.5t128 -69.5t69 -107.5t20.5 -138.5v-405v-149.5t4 -143.5h-180q0 53 2 107.5t12 101.5h-4q-23 -47 -60.5 -89t-88 -73t-110 -49 t-124.5 -18q-135 0 -217 67.5t-82 190.5zM344 268q0 -66 47 -103.5t125 -37.5q68 0 125 27.5t98 73.5t64.5 104.5t23.5 118.5v18q-147 0 -241 -17.5t-147.5 -45t-74 -63.5t-20.5 -75zM455 1284l405 229l78 -137l-422 -200z" />
<glyph unicode="&#xe2;" d="M164 238q0 166 167 263t496 97v76q0 106 -58 161.5t-194 55.5q-78 0 -168 -21.5t-161 -62.5l-19 158q78 35 170 54t201 19q117 0 196.5 -24.5t128 -69.5t69 -107.5t20.5 -138.5v-405v-149.5t4 -143.5h-180q0 53 2 107.5t12 101.5h-4q-23 -47 -60.5 -89t-88 -73t-110 -49 t-124.5 -18q-135 0 -217 67.5t-82 190.5zM303 1292l313 191l322 -187l-70 -110l-258 141l-243 -141zM344 268q0 -66 47 -103.5t125 -37.5q68 0 125 27.5t98 73.5t64.5 104.5t23.5 118.5v18q-147 0 -241 -17.5t-147.5 -45t-74 -63.5t-20.5 -75z" />
<glyph unicode="&#xe3;" d="M164 238q0 166 167 263t496 97v76q0 106 -58 161.5t-194 55.5q-78 0 -168 -21.5t-161 -62.5l-19 158q78 35 170 54t201 19q117 0 196.5 -24.5t128 -69.5t69 -107.5t20.5 -138.5v-405v-149.5t4 -143.5h-180q0 53 2 107.5t12 101.5h-4q-23 -47 -60.5 -89t-88 -73t-110 -49 t-124.5 -18q-135 0 -217 67.5t-82 190.5zM260 1370q41 37 92 60.5t111 23.5q53 0 92 -15.5t73 -32.5t67.5 -32.5t76.5 -15.5t80 18.5t66 46.5l45 -125q-33 -31 -88.5 -56t-114.5 -25q-57 0 -96 15t-72 32.5t-66.5 33t-79.5 15.5q-41 0 -76.5 -18.5t-64.5 -47.5zM344 268 q0 -66 47 -103.5t125 -37.5q68 0 125 27.5t98 73.5t64.5 104.5t23.5 118.5v18q-147 0 -241 -17.5t-147.5 -45t-74 -63.5t-20.5 -75z" />
<glyph unicode="&#xe4;" d="M164 238q0 166 167 263t496 97v76q0 106 -58 161.5t-194 55.5q-78 0 -168 -21.5t-161 -62.5l-19 158q78 35 170 54t201 19q117 0 196.5 -24.5t128 -69.5t69 -107.5t20.5 -138.5v-405v-149.5t4 -143.5h-180q0 53 2 107.5t12 101.5h-4q-23 -47 -60.5 -89t-88 -73t-110 -49 t-124.5 -18q-135 0 -217 67.5t-82 190.5zM274 1339q0 51 36 87t87 36t86 -36t35 -87t-34.5 -85.5t-86.5 -34.5q-51 0 -87 34.5t-36 85.5zM344 268q0 -66 47 -103.5t125 -37.5q68 0 125 27.5t98 73.5t64.5 104.5t23.5 118.5v18q-147 0 -241 -17.5t-147.5 -45t-74 -63.5 t-20.5 -75zM711 1339q0 51 34.5 87t85.5 36t87 -36t36 -87t-35.5 -85.5t-87.5 -34.5q-51 0 -85.5 34.5t-34.5 85.5z" />
<glyph unicode="&#xe5;" d="M164 238q0 166 167 263t496 97v76q0 106 -58 161.5t-194 55.5q-78 0 -168 -21.5t-161 -62.5l-19 158q78 35 170 54t201 19q117 0 196.5 -24.5t128 -69.5t69 -107.5t20.5 -138.5v-405v-149.5t4 -143.5h-180q0 53 2 107.5t12 101.5h-4q-23 -47 -60.5 -89t-88 -73t-110 -49 t-124.5 -18q-135 0 -217 67.5t-82 190.5zM344 268q0 -66 47 -103.5t125 -37.5q68 0 125 27.5t98 73.5t64.5 104.5t23.5 118.5v18q-147 0 -241 -17.5t-147.5 -45t-74 -63.5t-20.5 -75zM383 1356q0 49 18.5 90t50 71t73.5 47.5t89 17.5q49 0 91.5 -17.5t74 -47.5t49 -71 t17.5 -90q0 -47 -18.5 -87t-50.5 -70.5t-73.5 -48t-89.5 -17.5q-98 0 -164.5 62.5t-66.5 160.5zM502 1356q0 -47 32.5 -80.5t79.5 -33.5t80 33.5t33 80.5t-32.5 82t-80.5 35q-47 0 -79.5 -35t-32.5 -82z" />
<glyph unicode="&#xe6;" d="M23 233q0 168 129 266.5t360 98.5v76q0 102 -41 159.5t-135 57.5q-66 0 -128.5 -18.5t-117.5 -51.5l-12 160q59 27 132 42t150 15q86 0 155 -36.5t103 -114.5h3q41 66 106.5 107.5t151.5 41.5q90 0 152.5 -35.5t102.5 -96t57 -140.5t17 -170v-40t-2 -48h-530 q-4 -195 57.5 -285t186.5 -90q61 0 124.5 11.5t116.5 33.5l13 -153q-119 -41 -277 -41q-147 0 -226 66.5t-106 158.5l-2 -2q-14 -41 -39.5 -81t-62.5 -72t-87 -51t-112 -19q-109 0 -174 64.5t-65 186.5zM190 260q0 -61 30 -97t89 -36q49 0 87 27.5t63.5 72.5t39 103.5 t13.5 120.5v18q-98 0 -160.5 -18.5t-98.5 -48t-49.5 -67.5t-13.5 -75zM680 637h360q4 123 -44 191.5t-126 68.5q-74 0 -128 -68.5t-62 -191.5z" />
<glyph unicode="&#xe7;" d="M168 475q0 123 38 226.5t110.5 177t179 114.5t245.5 41q76 0 152 -12t137 -35l-29 -160q-55 27 -127.5 42.5t-142.5 15.5q-84 0 -151.5 -28t-115.5 -78t-75 -120.5t-27 -156.5q0 -76 22 -141.5t66 -114.5t109.5 -78t155.5 -29q78 0 156.5 14.5t140.5 41.5l26 -156 q-72 -25 -169 -40t-193 -15q-100 0 -192.5 24.5t-162 81.5t-111.5 151.5t-42 233.5zM496 -420q98 72 115.5 151t-27.5 165h176q23 -49 30 -99.5t-11.5 -99.5t-65.5 -98.5t-133 -94.5z" />
<glyph unicode="&#xe8;" d="M141 504q0 115 35 212t97.5 168.5t151.5 111.5t200 40q109 0 190.5 -35.5t136 -96t82 -139.5t27.5 -167v-43t-4 -51h-725q-2 -6 -2 -23q0 -184 96 -267t254 -83q39 0 84 5t89 14.5t84 21.5t71 27l16 -152q-74 -31 -175 -48t-200 -17q-238 0 -373 127t-135 395zM287 1376 l78 140l405 -230l-61 -110zM338 635h534q0 63 -19 112.5t-53 84t-81 53t-103 18.5q-104 0 -183 -70.5t-95 -197.5z" />
<glyph unicode="&#xe9;" d="M141 504q0 115 35 212t97.5 168.5t151.5 111.5t200 40q109 0 190.5 -35.5t136 -96t82 -139.5t27.5 -167v-43t-4 -51h-725q-2 -6 -2 -23q0 -184 96 -267t254 -83q39 0 84 5t89 14.5t84 21.5t71 27l16 -152q-74 -31 -175 -48t-200 -17q-238 0 -373 127t-135 395zM338 635 h534q0 63 -19 112.5t-53 84t-81 53t-103 18.5q-104 0 -183 -70.5t-95 -197.5zM457 1284l405 229l78 -137l-422 -200z" />
<glyph unicode="&#xea;" d="M141 504q0 115 35 212t97.5 168.5t151.5 111.5t200 40q109 0 190.5 -35.5t136 -96t82 -139.5t27.5 -167v-43t-4 -51h-725q-2 -6 -2 -23q0 -184 96 -267t254 -83q39 0 84 5t89 14.5t84 21.5t71 27l16 -152q-74 -31 -175 -48t-200 -17q-238 0 -373 127t-135 395zM303 1292 l313 191l322 -187l-70 -110l-258 141l-243 -141zM338 635h534q0 63 -19 112.5t-53 84t-81 53t-103 18.5q-104 0 -183 -70.5t-95 -197.5z" />
<glyph unicode="&#xeb;" d="M141 504q0 115 35 212t97.5 168.5t151.5 111.5t200 40q109 0 190.5 -35.5t136 -96t82 -139.5t27.5 -167v-43t-4 -51h-725q-2 -6 -2 -23q0 -184 96 -267t254 -83q39 0 84 5t89 14.5t84 21.5t71 27l16 -152q-74 -31 -175 -48t-200 -17q-238 0 -373 127t-135 395zM274 1339 q0 51 36 87t87 36t86 -36t35 -87t-34.5 -85.5t-86.5 -34.5q-51 0 -87 34.5t-36 85.5zM338 635h534q0 63 -19 112.5t-53 84t-81 53t-103 18.5q-104 0 -183 -70.5t-95 -197.5zM711 1339q0 51 34.5 87t85.5 36t87 -36t36 -87t-35.5 -85.5t-87.5 -34.5q-51 0 -85.5 34.5 t-34.5 85.5z" />
<glyph unicode="&#xec;" d="M193 0v145h380v732h-360v141h545v-873h342v-145h-907zM287 1376l78 140l405 -230l-61 -110z" />
<glyph unicode="&#xed;" d="M193 0v145h380v732h-360v141h545v-873h342v-145h-907zM455 1284l405 229l78 -137l-422 -200z" />
<glyph unicode="&#xee;" d="M193 0v145h380v732h-360v141h545v-873h342v-145h-907zM303 1292l313 191l322 -187l-70 -110l-258 141l-243 -141z" />
<glyph unicode="&#xef;" d="M193 0v145h380v732h-360v141h545v-873h342v-145h-907zM274 1339q0 51 36 87t87 36t86 -36t35 -87t-34.5 -85.5t-86.5 -34.5q-51 0 -87 34.5t-36 85.5zM711 1339q0 51 34.5 87t85.5 36t87 -36t36 -87t-35.5 -85.5t-87.5 -34.5q-51 0 -85.5 34.5t-34.5 85.5z" />
<glyph unicode="&#xf0;" d="M127 465q0 131 37 231.5t101.5 168t151.5 102t185 34.5q80 0 147.5 -24.5t110.5 -81.5q-31 115 -70.5 194.5t-99.5 143.5l-205 -131l-100 94l182 117q-94 59 -221 59q-29 0 -55.5 -3t-54.5 -7v145q16 2 42.5 4t59.5 2q207 0 362 -94l181 117l100 -94l-162 -109 q115 -111 177.5 -292t62.5 -441q0 -170 -40 -287.5t-106.5 -191.5t-154.5 -106.5t-185 -32.5q-217 0 -331.5 130t-114.5 353zM313 471q0 -156 77 -245t198 -87q147 2 215.5 107.5t68.5 304.5q0 139 -61 221t-203 82q-59 0 -113.5 -21.5t-94.5 -67.5t-63.5 -119t-23.5 -175z " />
<glyph unicode="&#xf1;" d="M199 0v1018h176q0 -59 -2 -124t-13 -110l5 -2q45 123 136 189.5t224 66.5q86 0 145.5 -25.5t94 -69.5t50 -103.5t15.5 -126.5v-713h-184v657q0 109 -36 168.5t-136 59.5q-63 0 -116.5 -34t-92.5 -90t-60.5 -132t-21.5 -160v-469h-184zM260 1370q41 37 92 60.5t111 23.5 q53 0 92 -15.5t73 -32.5t67.5 -32.5t76.5 -15.5t80 18.5t66 46.5l45 -125q-33 -31 -88.5 -56t-114.5 -25q-57 0 -96 15t-72 32.5t-66.5 33t-79.5 15.5q-41 0 -76.5 -18.5t-64.5 -47.5z" />
<glyph unicode="&#xf2;" d="M121 500q0 113 37 210t103.5 169.5t161.5 114.5t212 42q98 0 184 -27.5t150.5 -89t102.5 -159t38 -234.5q0 -115 -38 -214t-105.5 -172.5t-162.5 -115.5t-208 -42q-104 0 -192.5 30.5t-151 94t-97 161t-34.5 232.5zM287 1376l78 140l405 -230l-61 -110zM313 518 q0 -186 80 -283.5t223 -97.5q59 0 113.5 22.5t96.5 69.5t68 118t26 169q0 174 -77 270.5t-225 96.5q-57 0 -112 -21.5t-98 -66.5t-69 -114t-26 -163z" />
<glyph unicode="&#xf3;" d="M121 500q0 113 37 210t103.5 169.5t161.5 114.5t212 42q98 0 184 -27.5t150.5 -89t102.5 -159t38 -234.5q0 -115 -38 -214t-105.5 -172.5t-162.5 -115.5t-208 -42q-104 0 -192.5 30.5t-151 94t-97 161t-34.5 232.5zM313 518q0 -186 80 -283.5t223 -97.5q59 0 113.5 22.5 t96.5 69.5t68 118t26 169q0 174 -77 270.5t-225 96.5q-57 0 -112 -21.5t-98 -66.5t-69 -114t-26 -163zM455 1284l405 229l78 -137l-422 -200z" />
<glyph unicode="&#xf4;" d="M121 500q0 113 37 210t103.5 169.5t161.5 114.5t212 42q98 0 184 -27.5t150.5 -89t102.5 -159t38 -234.5q0 -115 -38 -214t-105.5 -172.5t-162.5 -115.5t-208 -42q-104 0 -192.5 30.5t-151 94t-97 161t-34.5 232.5zM303 1292l313 191l322 -187l-70 -110l-258 141 l-243 -141zM313 518q0 -186 80 -283.5t223 -97.5q59 0 113.5 22.5t96.5 69.5t68 118t26 169q0 174 -77 270.5t-225 96.5q-57 0 -112 -21.5t-98 -66.5t-69 -114t-26 -163z" />
<glyph unicode="&#xf5;" d="M121 500q0 113 37 210t103.5 169.5t161.5 114.5t212 42q98 0 184 -27.5t150.5 -89t102.5 -159t38 -234.5q0 -115 -38 -214t-105.5 -172.5t-162.5 -115.5t-208 -42q-104 0 -192.5 30.5t-151 94t-97 161t-34.5 232.5zM260 1370q41 37 92 60.5t111 23.5q53 0 92 -15.5 t73 -32.5t67.5 -32.5t76.5 -15.5t80 18.5t66 46.5l45 -125q-33 -31 -88.5 -56t-114.5 -25q-57 0 -96 15t-72 32.5t-66.5 33t-79.5 15.5q-41 0 -76.5 -18.5t-64.5 -47.5zM313 518q0 -186 80 -283.5t223 -97.5q59 0 113.5 22.5t96.5 69.5t68 118t26 169q0 174 -77 270.5 t-225 96.5q-57 0 -112 -21.5t-98 -66.5t-69 -114t-26 -163z" />
<glyph unicode="&#xf6;" d="M121 500q0 113 37 210t103.5 169.5t161.5 114.5t212 42q98 0 184 -27.5t150.5 -89t102.5 -159t38 -234.5q0 -115 -38 -214t-105.5 -172.5t-162.5 -115.5t-208 -42q-104 0 -192.5 30.5t-151 94t-97 161t-34.5 232.5zM274 1339q0 51 36 87t87 36t86 -36t35 -87t-34.5 -85.5 t-86.5 -34.5q-51 0 -87 34.5t-36 85.5zM313 518q0 -186 80 -283.5t223 -97.5q59 0 113.5 22.5t96.5 69.5t68 118t26 169q0 174 -77 270.5t-225 96.5q-57 0 -112 -21.5t-98 -66.5t-69 -114t-26 -163zM711 1339q0 51 34.5 87t85.5 36t87 -36t36 -87t-35.5 -85.5t-87.5 -34.5 q-51 0 -85.5 34.5t-34.5 85.5z" />
<glyph unicode="&#xf7;" d="M109 451v155h1011v-155h-1011zM489 115q0 51 36 87t89 36q51 0 87 -36t36 -87q0 -53 -35.5 -89t-87.5 -36q-53 0 -89 35.5t-36 89.5zM489 940q0 51 36 87t89 36q51 0 87 -36t36 -87q0 -53 -35.5 -89t-87.5 -36q-53 0 -89 36t-36 89z" />
<glyph unicode="&#xf8;" d="M141 502q0 113 34 211t97.5 170.5t154.5 113.5t206 41q23 0 49.5 -2t48.5 -6l74 191l119 -39l-72 -189q51 -25 94 -63.5t75 -96t49 -133t17 -174.5q0 -117 -34.5 -216t-98 -173t-153.5 -115.5t-203 -41.5q-72 0 -129 18l-82 -211l-119 39l82 213q-109 63 -159 185 t-50 278zM317 514q0 -98 25 -177t76 -126l256 672q-37 6 -62 6q-55 0 -108 -21.5t-95 -66.5t-67 -116t-25 -171zM526 147q23 -10 49.5 -13t51.5 -3q57 0 109 23.5t91 70.5t62.5 121t23.5 172q0 229 -125 316z" />
<glyph unicode="&#xf9;" d="M199 305v713h184v-658q0 -109 36 -168t136 -59q63 0 116.5 34t92.5 90t60.5 132t21.5 160v469h184v-1018h-176q0 59 2 123.5t12 109.5l-4 3q-45 -123 -136 -189.5t-224 -66.5q-86 0 -145.5 25.5t-94.5 69.5t-50 103.5t-15 126.5zM287 1376l78 140l405 -230l-61 -110z" />
<glyph unicode="&#xfa;" d="M199 305v713h184v-658q0 -109 36 -168t136 -59q63 0 116.5 34t92.5 90t60.5 132t21.5 160v469h184v-1018h-176q0 59 2 123.5t12 109.5l-4 3q-45 -123 -136 -189.5t-224 -66.5q-86 0 -145.5 25.5t-94.5 69.5t-50 103.5t-15 126.5zM455 1284l405 229l78 -137l-422 -200z " />
<glyph unicode="&#xfb;" d="M199 305v713h184v-658q0 -109 36 -168t136 -59q63 0 116.5 34t92.5 90t60.5 132t21.5 160v469h184v-1018h-176q0 59 2 123.5t12 109.5l-4 3q-45 -123 -136 -189.5t-224 -66.5q-86 0 -145.5 25.5t-94.5 69.5t-50 103.5t-15 126.5zM303 1292l313 191l322 -187l-70 -110 l-258 141l-243 -141z" />
<glyph unicode="&#xfc;" d="M199 305v713h184v-658q0 -109 36 -168t136 -59q63 0 116.5 34t92.5 90t60.5 132t21.5 160v469h184v-1018h-176q0 59 2 123.5t12 109.5l-4 3q-45 -123 -136 -189.5t-224 -66.5q-86 0 -145.5 25.5t-94.5 69.5t-50 103.5t-15 126.5zM274 1339q0 51 36 87t87 36t86 -36 t35 -87t-34.5 -85.5t-86.5 -34.5q-51 0 -87 34.5t-36 85.5zM711 1339q0 51 34.5 87t85.5 36t87 -36t36 -87t-35.5 -85.5t-87.5 -34.5q-51 0 -85.5 34.5t-34.5 85.5z" />
<glyph unicode="&#xfd;" d="M80 -506l18 166q59 -23 131 -22q41 0 74 11t60.5 39.5t54 77t55.5 121.5l45 113l-405 1018h209l217 -565q20 -53 39.5 -118t35.5 -120h4q16 53 42 130t61 163l194 510h203l-459 -1122q-47 -117 -91 -197t-95 -128t-113.5 -69.5t-146.5 -21.5q-29 0 -65.5 4t-67.5 10z M455 1284l405 229l78 -137l-422 -200z" />
<glyph unicode="&#xfe;" d="M186 -506v2001h185v-481q0 -47 -2 -100.5t-11 -92.5l4 -2q41 98 127 157.5t205 59.5q180 0 277.5 -121.5t97.5 -357.5q0 -274 -138 -421.5t-386 -147.5q-49 0 -88 2t-86 10v-506h-185zM371 156q82 -25 182 -25q72 0 131 22.5t101 71.5t65.5 127t23.5 189q0 166 -54 255 t-171 89q-70 0 -122 -37t-86.5 -93.5t-52 -126t-17.5 -136.5v-336z" />
<glyph unicode="&#xff;" d="M80 -506l18 166q59 -23 131 -22q41 0 74 11t60.5 39.5t54 77t55.5 121.5l45 113l-405 1018h209l217 -565q20 -53 39.5 -118t35.5 -120h4q16 53 42 130t61 163l194 510h203l-459 -1122q-47 -117 -91 -197t-95 -128t-113.5 -69.5t-146.5 -21.5q-29 0 -65.5 4t-67.5 10z M274 1339q0 51 36 87t87 36t86 -36t35 -87t-34.5 -85.5t-86.5 -34.5q-51 0 -87 34.5t-36 85.5zM711 1339q0 51 34.5 87t85.5 36t87 -36t36 -87t-35.5 -85.5t-87.5 -34.5q-51 0 -85.5 34.5t-34.5 85.5z" />
<glyph unicode="&#x152;" d="M33 680q0 170 40 302t112.5 223t172 139.5t217.5 48.5q63 0 109.5 -5.5t106.5 -5.5h399v-155h-361v-439h338v-151h-338v-479h361v-158h-395q-41 0 -73 -2t-60.5 -4t-57.5 -4t-65 -2q-137 0 -233.5 49t-157 140t-88 218t-27.5 285zM227 698q0 -123 17.5 -223t57.5 -173 t105.5 -111.5t161.5 -38.5q41 0 88 12v1057q-25 6 -45 9t-45 3q-154 0 -247 -139.5t-93 -395.5z" />
<glyph unicode="&#x153;" d="M20 504q0 113 25 210t72 168.5t115.5 112.5t158.5 41q86 0 156.5 -45t107.5 -137q35 78 99.5 130t154.5 52q84 0 141.5 -34.5t93.5 -94t51 -138.5t15 -167v-38.5t-4 -49.5h-483q-4 -201 56.5 -292t170.5 -91q59 0 116.5 11.5t100.5 31.5l11 -151q-111 -41 -250 -41 q-117 0 -186.5 52t-104.5 144q-37 -86 -104.5 -141t-167.5 -55q-92 0 -158 37.5t-107 107.5t-60.5 166t-19.5 211zM184 514q0 -82 11.5 -151.5t35 -121t60.5 -80t88 -28.5q39 0 73.5 22.5t61.5 70.5t42 120t15 170q0 180 -47 275.5t-147 95.5q-33 0 -67 -19.5t-61.5 -63.5 t-46 -115t-18.5 -175zM729 645h318q4 117 -37 188.5t-113 71.5q-61 0 -108.5 -71.5t-59.5 -188.5z" />
<glyph unicode="&#x178;" d="M23 1382h208l275 -503q35 -61 59.5 -112.5t46.5 -98.5h4q18 47 46 102t51 96l288 516h205l-504 -884v-498h-186v498zM276 1624q0 51 36 87t87 36t86 -36t35 -87t-34.5 -85.5t-86.5 -34.5q-51 0 -87 34.5t-36 85.5zM713 1624q0 51 34.5 87t85.5 36t87 -36t36 -87 t-35.5 -85.5t-87.5 -34.5q-51 0 -85.5 34.5t-34.5 85.5z" />
<glyph unicode="&#x2c6;" d="M303 1292l313 191l322 -187l-70 -110l-258 141l-243 -141z" />
<glyph unicode="&#x2dc;" d="M260 1370q41 37 92 60.5t111 23.5q53 0 92 -15.5t73 -32.5t67.5 -32.5t76.5 -15.5t80 18.5t66 46.5l45 -125q-33 -31 -88.5 -56t-114.5 -25q-57 0 -96 15t-72 32.5t-66.5 33t-79.5 15.5q-41 0 -76.5 -18.5t-64.5 -47.5z" />
<glyph unicode="&#x2000;" horiz-adv-x="920" />
<glyph unicode="&#x2001;" horiz-adv-x="1841" />
<glyph unicode="&#x2002;" horiz-adv-x="920" />
<glyph unicode="&#x2003;" horiz-adv-x="1841" />
<glyph unicode="&#x2004;" horiz-adv-x="613" />
<glyph unicode="&#x2005;" horiz-adv-x="460" />
<glyph unicode="&#x2006;" horiz-adv-x="306" />
<glyph unicode="&#x2007;" horiz-adv-x="306" />
<glyph unicode="&#x2008;" horiz-adv-x="230" />
<glyph unicode="&#x2009;" horiz-adv-x="368" />
<glyph unicode="&#x200a;" horiz-adv-x="102" />
<glyph unicode="&#x2010;" d="M293 440v168h643v-168h-643z" />
<glyph unicode="&#x2011;" d="M293 440v168h643v-168h-643z" />
<glyph unicode="&#x2012;" d="M293 440v168h643v-168h-643z" />
<glyph unicode="&#x2013;" d="M145 512v160h938v-160h-938z" />
<glyph unicode="&#x2014;" d="M0 512v160h1233v-160h-1233z" />
<glyph unicode="&#x2018;" d="M438 1051q0 190 124 306t349 169l33 -117q-80 -23 -132 -50.5t-84 -57t-44 -60.5t-12 -57q0 -78 61 -140q33 -33 40 -76.5t-8 -82.5t-50 -65.5t-86 -26.5q-49 0 -85 21.5t-59.5 57t-35 81.5t-11.5 98z" />
<glyph unicode="&#x2019;" d="M279 897q80 23 133 50.5t83.5 58t44 60.5t13.5 56q0 74 -61 140q-35 33 -42.5 76.5t8 82.5t50.5 65.5t86 26.5q49 0 85 -21.5t59.5 -57t34.5 -82t11 -97.5q0 -190 -123.5 -304.5t-347.5 -170.5z" />
<glyph unicode="&#x201a;" d="M279 -270q80 20 133 48.5t83.5 58.5t44 60.5t13.5 57.5q0 74 -61 139q-35 33 -42.5 77t8 83t50.5 65.5t86 26.5q49 0 85 -21.5t59.5 -57.5t34.5 -82t11 -97q0 -190 -123.5 -306t-347.5 -169z" />
<glyph unicode="&#x201c;" d="M190 1059q0 152 98.5 266.5t299.5 200.5l59 -99q-70 -31 -115 -61.5t-72.5 -60t-38.5 -58t-11 -53.5q0 -31 12 -61.5t33 -53.5q31 -33 38 -73.5t-7.5 -77.5t-48.5 -62.5t-81 -25.5q-41 0 -72.5 17t-52 47t-31 70t-10.5 85zM692 1059q0 152 98.5 266.5t296.5 200.5l60 -99 q-70 -31 -115 -61.5t-72.5 -60t-39 -58t-11.5 -53.5q0 -31 13.5 -61.5t33.5 -53.5q31 -33 37 -73.5t-8 -77.5t-48 -62.5t-81 -25.5q-41 0 -71.5 17t-51 47t-31 70t-10.5 85z" />
<glyph unicode="&#x201d;" d="M82 928q137 59 187 119.5t50 113.5q0 31 -12 61.5t-33 51.5q-31 33 -38 75t7.5 78.5t48.5 61t81 24.5q84 0 125 -63.5t41 -155.5q0 -297 -398 -465zM582 928q137 59 187 119.5t50 113.5q0 31 -12 61.5t-33 51.5q-31 33 -38 75t8.5 78.5t48 61t81.5 24.5q82 0 123 -63.5 t41 -155.5q0 -297 -397 -465z" />
<glyph unicode="&#x201e;" d="M78 -311q137 59 187 119.5t50 111.5q0 31 -13 61.5t-34 53.5q-31 33 -37 74t8.5 77.5t48.5 62t81 25.5q41 0 71.5 -17t51 -47t30.5 -70t10 -85q0 -295 -395 -467zM578 -311q137 59 187 119.5t50 111.5q0 31 -12 61.5t-33 53.5q-31 33 -38 74t7.5 77.5t48 62t80.5 25.5 q41 0 73 -17t52.5 -47t30.5 -70t10 -85q0 -295 -397 -467z" />
<glyph unicode="&#x2022;" d="M285 614q0 68 25.5 128.5t70.5 105.5t105 70.5t128 25.5t128.5 -25.5t105.5 -70.5t70.5 -105.5t25.5 -128.5t-25.5 -128t-70.5 -105t-105.5 -70.5t-128.5 -25.5t-128 25.5t-105 70.5t-70.5 105.5t-25.5 127.5z" />
<glyph unicode="&#x2026;" d="M84 109q0 53 35 91t86 38t87 -38t36 -91t-36 -91t-87 -38t-86 37.5t-35 91.5zM494 109q0 53 34.5 91t85.5 38t86 -38t35 -91t-34.5 -91t-86.5 -38q-51 0 -85.5 37.5t-34.5 91.5zM901 109q0 53 36 91t87 38t86 -38t35 -91t-35 -91t-86 -38t-87 37.5t-36 91.5z" />
<glyph unicode="&#x202f;" horiz-adv-x="368" />
<glyph unicode="&#x2039;" d="M383 512l293 459l149 -74l-254 -383l252 -377l-153 -78z" />
<glyph unicode="&#x203a;" d="M379 135l254 381l-252 379l154 76l286 -453l-293 -459z" />
<glyph unicode="&#x205f;" horiz-adv-x="460" />
<glyph unicode="&#x2122;" d="M16 1274v108h430v-108h-145v-467h-135v467h-150zM483 807l84 575h170l90 -319l21 -94l16 86l97 327h167l86 -575h-135l-43 307l-14 111l-23 -97l-92 -321h-135l-90 328l-23 90l-4 -76l-49 -342h-123z" />
<glyph unicode="&#x25fc;" horiz-adv-x="1013" d="M0 0v1014h1014v-1014h-1014z" />
<glyph unicode="&#xfb01;" d="M63 778v148h207v127q0 223 115 339.5t358 116.5q78 0 150 -11t137 -28l-35 -153q-57 18 -124.5 29.5t-122.5 11.5q-156 0 -226.5 -73t-70.5 -214v-145h632v-926h-180v778h-452v-778h-181v778h-207z" />
<glyph unicode="&#xfb02;" d="M63 778v148h207v198q0 180 113 282.5t358 102.5q78 0 167 -8t175 -22v-1479h-180v1343q-47 8 -92 12.5t-88 4.5q-137 0 -204.5 -58.5t-67.5 -193.5v-182h262v-148h-262v-778h-181v778h-207z" />
</font>
</defs>
</svg>
